<svg width="91" height="101" viewBox="0 0 91 101" fill="none" xmlns="http://www.w3.org/2000/svg">
<path d="M2.21338 10.658L6.69612 7.66622L41.7469 2.03142L82.0962 5.4123L88.4529 10.6578L84.6105 53.4704L70.9488 80.3498L45.76 98.4721L29.1098 89.9583L6.69612 56.1461L2.21338 10.658Z" fill="white"/>
<path d="M46.833 28.3723C41.8392 28.3723 38.3613 24.3977 38.3613 18.7032C38.3613 13.0087 41.8519 9.03406 46.833 9.03406C51.8268 9.03406 55.3046 13.0087 55.3046 18.7032C55.3046 24.3977 51.8268 28.3723 46.833 28.3723ZM46.833 11.5819C42.4634 11.5819 40.9092 15.4164 40.9092 18.7032C40.9092 21.9899 42.4634 25.8245 46.833 25.8245C51.2025 25.8245 52.7567 21.9899 52.7567 18.7032C52.7567 15.4164 51.2025 11.5819 46.833 11.5819Z" fill="#F2A446"/>
<path d="M56.5278 95.6995C55.8272 95.6995 55.2539 95.1263 55.2539 94.4256V55.4434C55.2539 54.7427 55.8272 54.1694 56.5278 54.1694C57.2285 54.1694 57.8018 54.7427 57.8018 55.4434V94.4384C57.8018 95.1263 57.2285 95.6995 56.5278 95.6995Z" fill="#F2A446"/>
<path d="M34.9346 95.6992C34.2339 95.6992 33.6606 95.126 33.6606 94.4253V57.0864C33.6606 56.3858 34.2339 55.8125 34.9346 55.8125C35.6352 55.8125 36.2085 56.3858 36.2085 57.0864V94.4253C36.2085 95.126 35.6352 95.6992 34.9346 95.6992Z" fill="#F2A446"/>
<path d="M48.0302 33.1751H45.6353C44.9346 33.1751 44.3613 32.6018 44.3613 31.9011C44.3613 31.2005 44.9346 30.6272 45.6353 30.6272H48.0302C48.7309 30.6272 49.3042 31.2005 49.3042 31.9011C49.3042 32.6018 48.7436 33.1751 48.0302 33.1751Z" fill="#F2A446"/>
<path d="M44.629 46.3729C44.5653 46.3729 44.4888 46.3729 44.4124 46.3601C43.7245 46.2455 43.2531 45.583 43.3678 44.8951L45.5717 31.6972C45.6863 31.0093 46.3488 30.5379 47.0367 30.6526C47.7246 30.7672 48.196 31.4297 48.0813 32.1176L45.8774 45.3155C45.7755 45.927 45.2405 46.3729 44.629 46.3729Z" fill="#F2A446"/>
<path d="M52.5023 57.2778C52.324 57.2778 52.1838 57.2651 52.0947 57.2651H32.3997C30.4124 57.2651 28.8837 56.6536 27.8773 55.4561C26.2976 53.5834 26.6798 51.0738 26.7307 50.7935L28.8582 38.6912C29.2913 36.2453 30.5016 34.0796 32.2723 32.6146C33.9921 31.2005 35.9922 30.5253 38.2343 30.6272H39.6484C40.2216 30.6272 40.7185 30.9967 40.8714 31.5445L44.6677 44.7551L52.9482 31.2387C53.1775 30.8565 53.5852 30.6272 54.031 30.6272H54.8846C57.4197 30.6272 61.6746 30.6272 63.5473 34.3216C64.2225 35.6465 64.0187 37.4173 63.8148 39.3027C63.7511 39.8887 63.6874 40.5002 63.6365 41.0989C63.1906 47.7616 61.3434 52.4879 58.1458 55.1376C55.8528 57.0485 53.5087 57.2778 52.5023 57.2778ZM52.3112 54.73C52.7826 54.7555 54.668 54.7554 56.5916 53.1248C59.1522 50.9591 60.7192 46.7424 61.1014 40.9333C61.1396 40.2963 61.216 39.6466 61.2797 39.0224C61.4326 37.5956 61.5982 36.1179 61.267 35.4809C60.1841 33.3534 57.6235 33.1751 54.8718 33.1751H54.7317L46.7569 46.1946C46.362 46.9335 45.5212 47.4304 44.6167 47.4304C43.7122 47.4304 42.8714 46.9335 42.4383 46.1309C42.4001 46.0545 42.3618 45.9653 42.3364 45.8762L38.6802 33.1751H38.1706C36.5018 33.0986 35.1132 33.5573 33.8902 34.5764C32.5908 35.6592 31.6863 37.2644 31.3678 39.1243L29.2404 51.2267C29.2404 51.2267 28.9983 52.8318 29.8391 53.8127C30.3487 54.4115 31.2022 54.7045 32.3997 54.7045H46.9353C45.9543 54.0548 45.1772 53.507 44.9479 53.3286C44.5785 53.1121 41.1007 51.1884 35.4826 51.0993C35.1132 51.0993 34.7565 50.9209 34.5144 50.6407C34.2724 50.3477 34.1832 49.9782 34.2469 49.6088L35.4826 42.7933C35.61 42.1053 36.2725 41.634 36.9604 41.7614C37.6483 41.8888 38.1069 42.5512 37.9923 43.2391L37.0241 48.6151C42.7822 49.01 46.1709 51.0865 46.3238 51.1757C47.8652 52.3477 51.3813 54.5389 52.2093 54.6918C52.2348 54.7172 52.273 54.7172 52.3112 54.73Z" fill="#F2A446"/>
<path d="M51.9797 48.4368C51.8778 48.4368 51.7886 48.424 51.6867 48.3986C47.1005 47.3285 42.9475 47.5323 42.8966 47.5323L37.1639 47.6597C37.1511 47.6597 37.1384 47.6597 37.1384 47.6597C36.4505 47.6597 35.8772 47.1119 35.8645 46.4112C35.8517 45.7106 36.4123 45.1246 37.1129 45.1118L42.8074 44.9844C42.9475 44.9717 46.6801 44.7933 51.1516 45.6723L52.3109 42.3601C52.5402 41.6977 53.2791 41.341 53.9288 41.5703C54.5912 41.7996 54.9479 42.5257 54.7186 43.1882L53.1899 47.5578C53.0116 48.0928 52.5147 48.4368 51.9797 48.4368Z" fill="#F2A446"/>
<path d="M45.8013 96.7852C45.1006 96.7852 44.5273 96.1863 44.5273 95.4543V72.7493C44.5273 72.0174 45.1006 71.4185 45.8013 71.4185C46.5019 71.4185 47.0752 72.0174 47.0752 72.7493V95.4676C47.0752 96.1863 46.5147 96.7852 45.8013 96.7852Z" fill="#F2A446"/>
<path d="M88.4526 7.92774V37.0884C88.4526 64.6855 70.8193 88.3692 45.6816 98.4719C20.5439 88.3692 2.91064 64.6855 2.91064 37.0884V7.92774C16.5001 4.23641 30.8479 2.25659 45.6816 2.25659C60.5154 2.25659 74.8631 4.23641 88.4526 7.92774Z" stroke="#1B2B4B" stroke-width="3.96447" stroke-miterlimit="10" stroke-linecap="round" stroke-linejoin="round"/>
</svg>
