<svg width="115" height="78" viewBox="0 0 115 78" fill="none" xmlns="http://www.w3.org/2000/svg">
<path d="M26.9988 3.61247L56.8278 2.20496L87.2966 3.61247L98.3517 19.8618L105.901 17.6699L111.016 19.8618V24.6108L104.805 27.8986L110.407 37.275L111.016 55.2848V65.2334L110.407 74.9354L90.6621 75.4644L89.9423 65.9749L56.8278 67.227L24.4504 66.2952L23.9214 75.4644L4.08436 74.4946V65.4136L5.07493 55.2848V33.3783L10.0675 27.8986L3.37012 24.002V19.8618L9.15434 17.3046L15.6692 19.8618L26.9988 3.61247Z" fill="white"/>
<path d="M98.8649 20.1878L88.7235 5.43654C88.2625 4.97556 87.11 3.59264 84.8052 3.36215C65.2137 1.97922 49.31 1.97922 29.2575 3.36215C27.1832 3.59264 25.8002 4.74508 25.3392 5.43654L15.1978 20.1878H14.5063L13.1234 18.3439C12.8929 18.1134 12.6624 17.8829 12.2014 17.8829H5.97825C4.59532 17.8829 3.2124 18.8048 2.75142 20.1878L2.05996 23.6451C1.82947 24.1061 2.29044 24.3366 2.98191 24.567L9.66606 27.5634L6.43923 31.2512C4.59532 33.3256 3.90386 36.0914 3.90386 39.5488C3.90386 60.0622 3.90386 63.9805 3.90386 73.2C3.90386 74.5829 5.0563 75.7354 6.43923 75.7354H21.6514C23.0344 75.7354 24.1868 74.5829 24.1868 73.2V66.0549C46.7746 67.4378 67.7491 67.4378 90.3369 66.0549M98.8649 20.1878H99.5564L100.939 18.3439C101.17 18.1134 101.4 17.8829 101.861 17.8829H108.315C109.698 17.8829 111.081 19.0353 111.542 20.1878L112.233 23.6451C112.464 24.1061 112.003 24.3366 111.542 24.567L104.858 27.5634M98.8649 20.1878H15.4283M104.858 27.5634L108.084 31.2512C109.698 33.3256 110.62 36.0914 110.62 39.5488C110.62 60.0622 110.62 63.9805 110.62 73.2C110.62 74.5829 109.467 75.7354 108.084 75.7354H92.8722C91.4893 75.7354 90.3369 74.5829 90.3369 73.2V66.0549M104.858 27.5634L102.092 24.3366M90.3369 66.0549C94.9466 65.8244 99.7869 65.3634 104.627 65.1329L90.3369 66.0549ZM9.43557 27.5634L12.2014 24.3366M9.66606 65.1329C14.5063 65.3634 19.3466 65.8244 23.9563 66.0549L9.66606 65.1329ZM13.3539 38.3963C18.1941 39.3183 23.0344 40.2402 27.6441 40.7012C28.3356 40.7012 29.2575 41.6232 29.0271 42.3146L28.3356 43.928C28.1051 44.6195 27.6441 45.0805 26.7222 45.0805C22.1124 45.0805 17.5027 44.6195 12.6624 44.1585C11.9709 44.1585 11.2795 43.2366 11.2795 42.5451L11.51 39.7793C11.9709 38.8573 12.6624 38.3963 13.3539 38.3963ZM100.939 38.3963C96.0991 39.3183 91.2588 40.2402 86.6491 40.7012C85.9576 40.7012 85.0356 41.6232 85.2661 42.3146L85.9576 43.928C86.1881 44.6195 86.6491 45.0805 87.571 45.0805C92.1808 45.0805 96.7905 44.6195 101.631 44.1585C102.322 44.1585 103.014 43.2366 103.014 42.5451L102.783 39.7793C102.553 38.8573 101.631 38.3963 100.939 38.3963Z" stroke="#1B2B4B" stroke-width="3.96447" stroke-miterlimit="22.9256"/>
<path d="M53.1486 47.7582L47.765 42.3745C47.7648 42.3744 47.7647 42.3742 47.7645 42.374C47.1362 41.7445 46.2832 41.3907 45.3937 41.3907C44.504 41.3907 43.6508 41.7447 43.0224 42.3745C41.7135 43.6848 41.7139 45.8037 43.0236 47.1135L50.7873 54.8771C52.0974 56.1873 54.2173 56.1873 55.5275 54.8771L75.1781 35.2265C76.4878 33.9168 76.4882 31.7978 75.1793 30.4876L53.1486 47.7582ZM53.1486 47.7582L70.4367 30.4876C70.4373 30.487 70.4379 30.4864 70.4384 30.4858C71.0667 29.8571 71.9191 29.5038 72.808 29.5038C73.6974 29.5038 74.5503 29.8575 75.1787 30.487L53.1486 47.7582Z" stroke="#F2A446" stroke-width="3"/>
</svg>
