<svg width="110" height="110" viewBox="0 0 110 110" fill="none" xmlns="http://www.w3.org/2000/svg">
<path d="M20.002 58.3544L57.0816 46.5994L89.3061 58.3544L97.8496 82.8523L105.719 105.429L79.0137 95.7536L54.5014 104.139L31.7952 95.7536L4.83154 104.139L11.9272 79.627L20.002 58.3544Z" fill="white"/>
<path d="M81.7233 36.6659C70.4992 59.2431 54.5016 100.637 53.7413 100.637C41.4665 100.637 53.2115 72.7894 29.7312 36.6659C31.9245 27.506 20.0022 8.39874 55.3871 3.79236C89.3063 5.46744 79.7881 29.5702 81.7233 36.6659Z" fill="white"/>
<path d="M55.4605 27.8705C57.2866 24.4569 57.6485 20.6812 57.1056 16.6918C57.1056 14.6929 55.4852 13.0642 53.4781 13.0642C51.7754 13.0642 50.3523 14.2652 49.941 15.9185C49.028 19.6695 46.3628 25.2383 42.2993 27.8705V39.3866C42.2993 43.9272 45.9844 47.6123 50.5251 47.6123H60.5769C63.349 47.6123 65.8496 45.8849 66.7791 43.2691C68.2351 39.1398 68.8355 35.0187 68.5641 30.8894C68.4572 29.1784 66.993 27.8705 65.282 27.8705H55.4605Z" stroke="#F2A446" stroke-width="3.94942" stroke-miterlimit="10" stroke-linecap="round" stroke-linejoin="round"/>
<path d="M81.8368 29.8383C81.8368 44.5994 60.0307 73.4506 54.9985 73.4506C49.9663 73.4506 28.1602 44.5994 28.1602 29.8383C28.1602 15.0773 40.2374 3 54.9985 3C69.7596 3 81.8368 15.0773 81.8368 29.8383Z" stroke="#1B2B4B" stroke-width="4.62521" stroke-miterlimit="10" stroke-linecap="round" stroke-linejoin="round"/>
<path d="M31.5151 95.2569L36.5473 70.0959" stroke="#1B2B4B" stroke-width="5.01494" stroke-miterlimit="10" stroke-linecap="round" stroke-linejoin="round"/>
<path d="M78.4824 95.2569L73.4502 70.0959" stroke="#1B2B4B" stroke-width="5.01494" stroke-miterlimit="10" stroke-linecap="round" stroke-linejoin="round"/>
<path d="M34.4761 56.1431L18.0966 61.709L3 106.999L31.5157 95.2569L54.9993 105.321L78.4828 95.2569L106.999 106.999L91.902 61.709L75.5916 56.1431" stroke="#1B2B4B" stroke-width="4.62521" stroke-miterlimit="10" stroke-linecap="square" stroke-linejoin="round"/>
</svg>
