<svg width="116" height="89" viewBox="0 0 116 89" fill="none" xmlns="http://www.w3.org/2000/svg">
<path d="M56.1253 33.315L52.0499 29.2396L48.0105 32.2513C46.8392 31.5582 45.5844 31.0443 44.3056 30.7216L43.5885 25.7499L37.8281 25.7499L37.111 30.7216C35.8203 31.0562 34.5774 31.5582 33.4061 32.2513L29.3547 29.2277L25.2794 33.303L28.2911 37.3425C27.5979 38.5137 27.084 39.7686 26.7613 41.0474L21.7657 41.7644L21.7657 47.5488L26.7374 48.2659C27.072 49.5566 27.574 50.7995 28.2672 51.9707L25.2674 55.9983L29.3428 60.0736L33.3822 57.0619C34.5535 57.7551 35.8083 58.269 37.0871 58.5917L37.8042 63.5633L43.5646 63.5633L44.2817 58.5917C45.5724 58.257 46.8153 57.7551 47.9865 57.0619L52.026 60.0736L56.1014 55.9983L53.0897 51.9588C53.7829 50.7876 54.2968 49.5327 54.6194 48.2539L59.5911 47.5368L59.5911 41.7764L54.6194 41.0593C54.2848 39.7686 53.7829 38.5257 53.0897 37.3545L56.1253 33.315Z" stroke="#F2A446" stroke-width="2.70424" stroke-miterlimit="10" stroke-linecap="round" stroke-linejoin="round"/>
<path d="M44.521 48.481C46.6331 46.3688 46.6331 42.9444 44.521 40.8322C42.4088 38.7201 38.9844 38.7201 36.8722 40.8322C34.7601 42.9444 34.7601 46.3688 36.8722 48.481C38.9844 50.5931 42.4088 50.5931 44.521 48.481Z" stroke="#F2A446" stroke-width="2.70424" stroke-miterlimit="10" stroke-linecap="round" stroke-linejoin="round"/>
<path d="M83.7206 43.7005C83.3621 43.342 82.9797 43.0312 82.5853 42.7325L82.7168 39.1352L76.4424 37.4501L74.7453 40.6291C73.7653 40.7486 72.7853 41.0115 71.8532 41.3939L68.8056 39.4937L64.2164 44.0829L66.1166 47.1305C65.7222 48.0507 65.4712 49.0427 65.3517 50.0227L62.1727 51.7197L63.8578 57.9941L67.4551 57.8626C67.7539 58.257 68.0646 58.6394 68.4232 58.998C68.7817 59.3565 69.1642 59.6672 69.5585 59.966L69.4271 63.5633L75.7014 65.2484L77.3985 62.0694C78.3785 61.9499 79.3585 61.687 80.2907 61.3045L83.3382 63.2048L87.9275 58.6155L86.0272 55.568C86.4216 54.6478 86.6726 53.6558 86.7921 52.6758L89.9711 50.9788L88.286 44.7044L84.6887 44.8359C84.3899 44.4415 84.0792 44.059 83.7206 43.7005Z" stroke="#F2A446" stroke-width="2.70424" stroke-miterlimit="10" stroke-linejoin="round"/>
<path d="M78.9403 54.2174C80.5244 52.6333 80.5244 50.065 78.9403 48.4808C77.3562 46.8967 74.7878 46.8967 73.2037 48.4808C71.6196 50.065 71.6196 52.6333 73.2037 54.2174C74.7878 55.8015 77.3562 55.8015 78.9403 54.2174Z" stroke="#F2A446" stroke-width="2.70424" stroke-miterlimit="10" stroke-linejoin="round"/>
<path d="M76.4664 32.6217C76.8608 31.7015 77.1118 30.7095 77.2313 29.7295L80.4103 28.0325L78.7252 21.7581L75.1279 21.8896C74.8291 21.4952 74.5184 21.1127 74.1599 20.7542C73.8013 20.3957 73.4189 20.0849 73.0245 19.7862L73.156 16.1889L66.8816 14.5038L65.1846 17.6828C64.2046 17.8023 63.2246 18.0652 62.2924 18.4476L59.2448 16.5474L54.6556 21.1366L56.5558 24.1842C56.1614 25.1044 55.9105 26.0964 55.791 27.0764" stroke="#F2A446" stroke-width="2.70424" stroke-miterlimit="10" stroke-linecap="round" stroke-linejoin="round"/>
<path d="M69.3792 31.2714C70.9633 29.6872 70.9633 27.1189 69.3792 25.5348C67.7951 23.9507 65.2268 23.9507 63.6427 25.5348C62.0586 27.1189 62.0586 29.6872 63.6427 31.2714C65.2268 32.8555 67.7951 32.8555 69.3792 31.2714Z" stroke="#F2A446" stroke-width="2.70424" stroke-miterlimit="10" stroke-linejoin="round"/>
<path d="M104.361 88.6371H11.4509C5.1285 88.6371 0 83.7257 0 77.7017C0 76.6434 0.16281 75.6123 0.434159 74.6083C0.732644 73.6315 1.76377 73.0616 2.74063 73.3601C3.71749 73.6586 4.28732 74.6897 3.98884 75.6666C3.79889 76.3178 3.69035 76.9962 3.69035 77.6746C3.69035 81.6905 7.16363 84.9467 11.4509 84.9467H104.361C108.648 84.9467 112.122 81.6905 112.122 77.7017C112.122 76.9962 112.013 76.3178 111.823 75.6666C111.525 74.6897 112.094 73.6586 113.071 73.3601C114.048 73.0616 115.079 73.6315 115.378 74.6083C115.676 75.6123 115.839 76.6434 115.839 77.6746C115.839 83.7257 110.683 88.6371 104.361 88.6371Z" fill="#1B2B4B"/>
<path d="M113.614 76.9959H2.22506C1.19393 76.9959 0.379883 76.1547 0.379883 75.1507C0.379883 74.1196 1.22107 73.3055 2.22506 73.3055H113.614C114.645 73.3055 115.459 74.1467 115.459 75.1507C115.459 76.1547 114.618 76.9959 113.614 76.9959Z" fill="#1B2B4B"/>
<path d="M62.2202 78.9767H53.5913V82.667H62.2202V78.9767Z" fill="#1B2B4B"/>
<path d="M9.38586 20.9351H5.72461V75.366H9.38586V20.9351Z" fill="#1B2B4B"/>
<path d="M110.07 20.9354H106.38V10.8955C106.38 9.48444 105.24 8.34477 103.829 8.34477H55.5562V4.65442H103.829C107.275 4.65442 110.07 7.44932 110.07 10.8955V20.9354Z" fill="#1B2B4B"/>
<path d="M5.72466 20.9354H9.41501V10.8955C9.41501 9.48444 10.5547 8.34477 11.9657 8.34477H60.2388V4.65442H11.9657C8.51955 4.65442 5.72466 7.44932 5.72466 10.8955V20.9354Z" fill="#1B2B4B"/>
<path d="M110.07 19.5322H106.409V75.3663H110.07V19.5322Z" fill="#1B2B4B"/>
</svg>
