<svg width="53" height="53" viewBox="0 0 53 53" fill="none" xmlns="http://www.w3.org/2000/svg">
<circle cx="26.2234" cy="26.2972" r="25.8279" fill="url(#paint0_linear_331_958)"/>
<path fill-rule="evenodd" clip-rule="evenodd" d="M31.4259 30.1053L34.6739 30.4762C35.9653 30.6296 36.9372 31.7165 36.9244 33.008L36.9244 35.2202C36.9244 36.6651 35.7224 37.8671 34.2775 37.7776C23.3701 37.0999 14.6365 28.3791 13.9588 17.4589C13.8693 16.014 15.0713 14.812 16.5162 14.812L18.7284 14.812C20.0327 14.812 21.1196 15.7838 21.273 17.0753L21.6438 20.2977C21.7333 21.0777 21.4648 21.8449 20.915 22.3947L18.5494 24.7604C20.3907 28.3919 23.3573 31.3457 26.976 33.187L29.3289 30.8342C29.8787 30.2844 30.6459 30.0158 31.4259 30.1053ZM26.5538 17.4206C30.6201 17.9321 33.8041 21.1161 34.3156 25.1824C34.3923 25.8345 34.9421 26.3076 35.5815 26.3076C35.6326 26.3076 35.6838 26.3076 35.7349 26.2948C36.4382 26.2053 36.9369 25.566 36.8474 24.8627C36.1953 19.6328 32.0906 15.5281 26.8607 14.876C26.1574 14.7993 25.5181 15.298 25.4413 16.0013C25.3518 16.7045 25.8505 17.3439 26.5538 17.4206ZM27.0402 20.1186C26.3625 19.9396 25.6592 20.3488 25.4802 21.0393C25.3012 21.7298 25.7104 22.4203 26.4009 22.5993C27.7435 22.9446 28.792 23.9931 29.1501 25.3485C29.3035 25.9239 29.815 26.3076 30.3904 26.3076C30.4927 26.3076 30.6078 26.2948 30.7101 26.2692C31.3878 26.0902 31.797 25.3869 31.6308 24.7092C31.0298 22.4459 29.278 20.694 27.0402 20.1186Z" fill="white"/>
<defs>
<linearGradient id="paint0_linear_331_958" x1="43.0291" y1="7.56337" x2="6.4381" y2="52.125" gradientUnits="userSpaceOnUse">
<stop stop-color="#1B2B4B"/>
<stop offset="1" stop-color="#002877"/>
</linearGradient>
</defs>
</svg>
