<svg width="53" height="53" viewBox="0 0 53 53" fill="none" xmlns="http://www.w3.org/2000/svg">
<circle cx="26.2937" cy="26.2972" r="25.8279" fill="url(#paint0_linear_331_965)"/>
<path fill-rule="evenodd" clip-rule="evenodd" d="M31.4963 30.1054L34.7442 30.4762C36.0357 30.6296 37.0075 31.7165 36.9947 33.008L36.9947 35.2202C36.9947 36.6651 35.7927 37.8671 34.3478 37.7776C23.4404 37.0999 14.7068 28.3791 14.0291 17.4589C13.9396 16.014 15.1416 14.812 16.5865 14.812L18.7987 14.812C20.103 14.812 21.1899 15.7838 21.3433 17.0753L21.7141 20.2977C21.8037 21.0777 21.5351 21.8449 20.9853 22.3947L18.6197 24.7604C20.461 28.3919 23.4276 31.3457 27.0464 33.187L29.3992 30.8342C29.949 30.2844 30.7162 30.0158 31.4963 30.1054ZM26.6241 17.4206C30.6904 17.9321 33.8744 21.1161 34.3859 25.1824C34.4626 25.8345 35.0124 26.3076 35.6518 26.3076C35.7029 26.3076 35.7541 26.3076 35.8052 26.2948C36.5085 26.2053 37.0072 25.566 36.9177 24.8627C36.2656 19.6328 32.1609 15.5281 26.931 14.876C26.2277 14.7993 25.5884 15.298 25.5117 16.0013C25.4221 16.7045 25.9208 17.3439 26.6241 17.4206ZM27.1105 20.1186C26.4328 19.9396 25.7295 20.3488 25.5505 21.0393C25.3715 21.7298 25.7807 22.4203 26.4712 22.5993C27.8138 22.9446 28.8624 23.9931 29.2204 25.3485C29.3738 25.924 29.8853 26.3076 30.4607 26.3076C30.563 26.3076 30.6781 26.2948 30.7804 26.2692C31.4581 26.0902 31.8673 25.3869 31.7011 24.7092C31.1001 22.4459 29.3483 20.694 27.1105 20.1186Z" fill="white"/>
<defs>
<linearGradient id="paint0_linear_331_965" x1="34.0695" y1="20.4727" x2="-30.0075" y2="105.029" gradientUnits="userSpaceOnUse">
<stop stop-color="#25E221"/>
<stop offset="1" stop-color="white"/>
</linearGradient>
</defs>
</svg>
