<svg width="10" height="21" viewBox="0 0 10 21" fill="none" xmlns="http://www.w3.org/2000/svg">
<path d="M5.65 1C5.65 0.641015 5.35899 0.35 5 0.35C4.64101 0.35 4.35 0.641015 4.35 1L5.65 1ZM4.54038 19.8267C4.79422 20.0805 5.20578 20.0805 5.45962 19.8267L9.59619 15.6901C9.85003 15.4363 9.85003 15.0247 9.59619 14.7709C9.34235 14.517 8.9308 14.517 8.67695 14.7709L5 18.4478L1.32304 14.7709C1.0692 14.517 0.657646 14.517 0.403806 14.7709C0.149965 15.0247 0.149965 15.4363 0.403806 15.6901L4.54038 19.8267ZM4.35 1L4.35 19.3671L5.65 19.3671L5.65 1L4.35 1Z" fill="white"/>
</svg>
