<svg width="36" height="35" viewBox="0 0 36 35" fill="none" xmlns="http://www.w3.org/2000/svg">
<g id="person_outline_24px">
<path id="icon/social/person_outline_24px" fill-rule="evenodd" clip-rule="evenodd" d="M18.4985 5.83325C15.2756 5.83325 12.6652 8.44367 12.6652 11.6666C12.6652 14.8895 15.2756 17.4999 18.4985 17.4999C21.7214 17.4999 24.3318 14.8895 24.3318 11.6666C24.3318 8.44367 21.7214 5.83325 18.4985 5.83325ZM21.5612 11.6667C21.5612 9.97508 20.1903 8.60425 18.4987 8.60425C16.807 8.60425 15.4362 9.97508 15.4362 11.6667C15.4362 13.3584 16.807 14.7292 18.4987 14.7292C20.1903 14.7292 21.5612 13.3584 21.5612 11.6667ZM27.3947 24.7917C27.3947 23.8584 22.8301 21.7292 18.4989 21.7292C14.1676 21.7292 9.60303 23.8584 9.60303 24.7917V26.3959H27.3947V24.7917ZM6.83203 24.7916C6.83203 20.9124 14.6049 18.9583 18.4987 18.9583C22.3924 18.9583 30.1654 20.9124 30.1654 24.7916V27.7083C30.1654 28.5103 29.5091 29.1666 28.707 29.1666H8.29036C7.48828 29.1666 6.83203 28.5103 6.83203 27.7083V24.7916Z" fill="#1B2B4B"/>
</g>
</svg>
