<svg width="50" height="50" viewBox="0 0 50 50" fill="none" xmlns="http://www.w3.org/2000/svg">
<path fill-rule="evenodd" clip-rule="evenodd" d="M39.111 8.89069H30.6937C29.848 6.55479 27.6329 4.86328 25.0151 4.86328C22.3973 4.86328 20.1822 6.55479 19.3364 8.89069H10.9191C8.70406 8.89069 6.89172 10.703 6.89172 12.9181V41.11C6.89172 43.3251 8.70406 45.1374 10.9191 45.1374H39.111C41.3261 45.1374 43.1384 43.3251 43.1384 41.11V12.9181C43.1384 10.703 41.3261 8.89069 39.111 8.89069ZM25.0151 8.89042C26.1226 8.89042 27.0288 9.79659 27.0288 10.9041C27.0288 12.0117 26.1226 12.9178 25.0151 12.9178C23.9076 12.9178 23.0014 12.0117 23.0014 10.9041C23.0014 9.79659 23.9076 8.89042 25.0151 8.89042ZM16.9603 37.0821H27.0288C28.1363 37.0821 29.0425 36.1759 29.0425 35.0684C29.0425 33.9609 28.1363 33.0547 27.0288 33.0547H16.9603C15.8527 33.0547 14.9466 33.9609 14.9466 35.0684C14.9466 36.1759 15.8527 37.0821 16.9603 37.0821ZM33.0699 29.0278H16.9603C15.8527 29.0278 14.9466 28.1216 14.9466 27.0141C14.9466 25.9065 15.8527 25.0004 16.9603 25.0004H33.0699C34.1775 25.0004 35.0836 25.9065 35.0836 27.0141C35.0836 28.1216 34.1775 29.0278 33.0699 29.0278ZM16.9603 20.9728H33.0699C34.1775 20.9728 35.0836 20.0666 35.0836 18.9591C35.0836 17.8516 34.1775 16.9454 33.0699 16.9454H16.9603C15.8527 16.9454 14.9466 17.8516 14.9466 18.9591C14.9466 20.0666 15.8527 20.9728 16.9603 20.9728Z" fill="#1B2B4B"/>
</svg>
