<svg width="35" height="35" viewBox="0 0 35 35" fill="none" xmlns="http://www.w3.org/2000/svg">
<g id="person_outline_24px">
<path id="icon/social/person_outline_24px" fill-rule="evenodd" clip-rule="evenodd" d="M17.4996 5.83301C14.2767 5.83301 11.6663 8.44342 11.6663 11.6663C11.6663 14.8893 14.2767 17.4997 17.4996 17.4997C20.7225 17.4997 23.3329 14.8893 23.3329 11.6663C23.3329 8.44342 20.7225 5.83301 17.4996 5.83301ZM20.5623 11.6665C20.5623 9.97484 19.1914 8.604 17.4998 8.604C15.8081 8.604 14.4373 9.97484 14.4373 11.6665C14.4373 13.3582 15.8081 14.729 17.4998 14.729C19.1914 14.729 20.5623 13.3582 20.5623 11.6665ZM26.3958 24.7915C26.3958 23.8582 21.8312 21.729 17.5 21.729C13.1687 21.729 8.60413 23.8582 8.60413 24.7915V26.3957H26.3958V24.7915ZM5.83313 24.7913C5.83313 20.9122 13.606 18.958 17.4998 18.958C21.3935 18.958 29.1665 20.9122 29.1665 24.7913V27.708C29.1665 28.5101 28.5102 29.1663 27.7081 29.1663H7.29146C6.48938 29.1663 5.83313 28.5101 5.83313 27.708V24.7913Z" fill="white"/>
</g>
</svg>
