<svg width="30" height="35" viewBox="0 0 30 35" fill="none" xmlns="http://www.w3.org/2000/svg">
<path d="M13.2562 15.4354C12.7464 15.4383 12.3205 15.8513 12.3281 16.3728C12.331 16.8826 12.7441 17.3085 13.2655 17.3009C13.7753 17.2979 14.2012 16.8849 14.1936 16.3635C14.1906 15.8536 13.7822 15.4393 13.2562 15.4354Z" fill="#1B2B4B"/>
<path d="M13.1698 22.2883C12.66 22.2913 12.2341 22.7043 12.2371 23.2141C12.24 23.7239 12.6531 24.1498 13.1745 24.1422C13.6843 24.1393 14.1102 23.7262 14.1026 23.2048C14.1043 22.7066 13.6843 22.2969 13.1698 22.2883Z" fill="#1B2B4B"/>
<path d="M11.3958 19.477C11.9057 19.474 12.3316 19.061 12.324 18.5396C12.321 18.0298 11.908 17.6039 11.3866 17.6115C10.8767 17.6144 10.4508 18.0275 10.4584 18.5489C10.4614 19.0587 10.8814 19.4684 11.3958 19.477Z" fill="#1B2B4B"/>
<path d="M11.304 20.3206C10.7942 20.3236 10.3683 20.7366 10.3759 21.258C10.3789 21.7678 10.7919 22.1937 11.3133 22.1861C11.8232 22.1832 12.249 21.7701 12.2414 21.2487C12.2385 20.7389 11.8185 20.3292 11.304 20.3206Z" fill="#1B2B4B"/>
<path d="M15.8232 22.4331C15.3134 22.4361 14.8875 22.8491 14.8951 23.3705C14.8981 23.8803 15.3111 24.3062 15.8209 24.3033C16.3308 24.3003 16.7567 23.8873 16.7491 23.3659C16.7577 22.8514 16.3377 22.4417 15.8232 22.4331Z" fill="#1B2B4B"/>
<path d="M17.8358 19.4736C17.8387 19.9834 18.2518 20.4093 18.7732 20.4017C19.283 20.3987 19.7089 19.9857 19.7013 19.4643C19.6983 18.9545 19.2853 18.5286 18.7639 18.5362C18.2541 18.5391 17.8328 18.9638 17.8358 19.4736Z" fill="#1B2B4B"/>
<path d="M16.0301 15.2767C15.5203 15.2796 15.0944 15.6927 15.102 16.2141C15.105 16.7239 15.518 17.1498 16.0394 17.1422C16.5492 17.1392 16.9751 16.7262 16.9675 16.2048C16.9646 15.695 16.5399 15.2737 16.0301 15.2767Z" fill="#1B2B4B"/>
<path d="M24.0767 23.1274C24.0556 22.9745 24.023 22.8262 23.9741 22.671L21.5884 14.417C21.2975 13.3907 20.782 12.5756 20.4575 12.5714L9.87387 12.5708C9.53784 12.5712 8.98269 13.3992 8.62477 14.417L5.75222 22.6706C5.70141 22.812 5.66912 22.9326 5.64147 23.0647C5.56286 23.2039 5.50512 23.3615 5.50765 23.5353L5.50602 27.7855C5.50204 28.3115 5.92666 28.7328 6.45272 28.7368L23.2239 28.7413C23.75 28.7452 24.1828 28.316 24.1752 27.7946L24.1768 23.5444C24.179 23.3822 24.1394 23.2501 24.0767 23.1274ZM14.8463 24.9234C12.0074 24.92 9.71496 22.6263 9.71836 19.7874C9.72176 16.9486 12.0155 14.6561 14.8543 14.6595C17.6932 14.6629 19.9856 16.9566 19.9822 19.7954C19.9742 22.6227 17.6851 24.9268 14.8463 24.9234Z" fill="#1B2B4B"/>
<path d="M18.0419 21.0583C17.5321 21.0613 17.1062 21.4743 17.1091 21.9841C17.1121 22.494 17.5251 22.9199 18.0465 22.9123C18.5564 22.9093 18.9823 22.4963 18.9746 21.9748C18.9763 21.4766 18.5517 21.0554 18.0419 21.0583Z" fill="#1B2B4B"/>
<path d="M27.3496 9.10485C20.446 5.40792 9.7441 5.41436 2.83817 9.11466C2.06468 9.53276 1.66 10.2331 1.68857 10.8403C1.68629 10.8681 1.67936 10.8843 1.67707 10.9121L1.95247 14.3114C2.00183 14.8699 2.5076 15.3258 3.10087 15.3297L6.66967 15.309C7.26294 15.3129 7.93905 14.8532 8.19325 14.2804L9.40651 11.5745C13.2667 11.0737 17.2017 11.0943 21.0563 11.6179L22.216 14.2722C22.46 14.8466 23.1234 15.293 23.6888 15.2946L27.1209 15.3019C27.6864 15.3035 28.1771 14.851 28.2228 14.2948L28.4966 10.8901C28.4989 10.8623 28.4896 10.8392 28.4919 10.8114C28.5282 10.232 28.1218 9.52102 27.3496 9.10485Z" fill="#1B2B4B"/>
<path d="M13.0545 15.4356C12.5447 15.4386 12.1188 15.8516 12.1264 16.373C12.1294 16.8828 12.5424 17.3087 13.0638 17.3011C13.5736 17.2982 13.9995 16.8851 13.9919 16.3637C13.989 15.8539 13.5644 15.4326 13.0545 15.4356Z" fill="url(#paint0_linear_236_3177)"/>
<path d="M12.9564 22.2929C12.4466 22.2959 12.0207 22.7089 12.0237 23.2188C12.0266 23.7286 12.4397 24.1545 12.9611 24.1469C13.4709 24.1439 13.8968 23.7309 13.8892 23.2095C13.8909 22.7112 13.4779 22.2853 12.9564 22.2929Z" fill="url(#paint1_linear_236_3177)"/>
<path d="M11.1942 19.4771C11.704 19.4742 12.1299 19.0612 12.1223 18.5397C12.1193 18.0299 11.7063 17.604 11.1849 17.6116C10.6751 17.6146 10.2492 18.0276 10.2568 18.549C10.2597 19.0589 10.6681 19.4732 11.1942 19.4771Z" fill="url(#paint2_linear_236_3177)"/>
<path d="M11.0908 20.3257C10.581 20.3286 10.1551 20.7417 10.1627 21.2631C10.1657 21.7729 10.5787 22.1988 11.0885 22.1958C11.5984 22.1929 12.0242 21.7799 12.0166 21.2584C12.0253 20.744 11.6006 20.3227 11.0908 20.3257Z" fill="url(#paint3_linear_236_3177)"/>
<path d="M15.6103 22.438C15.1005 22.4409 14.6746 22.854 14.6822 23.3754C14.6852 23.8852 15.0982 24.3111 15.6081 24.3081C16.1179 24.3052 16.5438 23.8922 16.5362 23.3707C16.5448 22.8563 16.1364 22.442 15.6103 22.438Z" fill="url(#paint4_linear_236_3177)"/>
<path d="M17.6227 19.4784C17.6256 19.9882 18.0387 20.4141 18.5485 20.4112C19.0583 20.4082 19.4842 19.9952 19.4766 19.4738C19.4736 18.9639 19.0606 18.5381 18.5392 18.5457C18.0409 18.544 17.6266 18.9523 17.6227 19.4784Z" fill="url(#paint5_linear_236_3177)"/>
<path d="M15.8236 15.2652C15.3137 15.2681 14.8879 15.6812 14.8955 16.2026C14.8984 16.7124 15.3114 17.1383 15.8329 17.1307C16.3427 17.1278 16.7686 16.7147 16.761 16.1933C16.758 15.6835 16.3381 15.2738 15.8236 15.2652Z" fill="url(#paint6_linear_236_3177)"/>
<path d="M23.8753 23.1275C23.8542 22.9746 23.8216 22.8263 23.7727 22.6711L21.3755 14.4217C21.0845 13.3955 20.569 12.5804 20.2446 12.5762L9.66781 12.5593C9.33179 12.5597 8.77664 13.3877 8.41871 14.4055L5.54616 22.6591C5.49536 22.8006 5.46306 22.9211 5.43542 23.0532C5.3568 23.1924 5.29906 23.35 5.3016 23.5238L5.30461 27.7856C5.30064 28.3116 5.72525 28.7329 6.25131 28.7369L23.0225 28.7414C23.5486 28.7453 23.9698 28.3207 23.9738 27.7947L23.9754 23.5445C23.9775 23.3823 23.938 23.2502 23.8753 23.1275ZM14.6333 24.9281C11.7945 24.9247 9.50197 22.631 9.50537 19.7922C9.50877 16.9533 11.8025 14.6608 14.6413 14.6642C17.4802 14.6676 19.7727 16.9613 19.7693 19.8002C19.7612 22.6274 17.4675 24.9199 14.6333 24.9281Z" fill="url(#paint7_linear_236_3177)"/>
<path d="M17.8242 21.0517C17.3144 21.0547 16.8885 21.4677 16.8961 21.9892C16.8991 22.499 17.3121 22.9249 17.8219 22.9219C18.3318 22.919 18.7576 22.5059 18.75 21.9845C18.7587 21.47 18.3503 21.0557 17.8242 21.0517Z" fill="url(#paint8_linear_236_3177)"/>
<path d="M27.1482 9.10542C20.2446 5.4085 9.53808 5.40336 2.63215 9.10366C1.85865 9.52176 1.45398 10.2221 1.48255 10.8293C1.48026 10.8571 1.47333 10.8733 1.48263 10.8965L1.75802 14.2958C1.80739 14.8542 2.31316 15.3101 2.90642 15.314L6.4683 15.3096C7.06156 15.3134 7.73768 14.8538 7.99188 14.281L9.20514 11.5751C13.0538 11.079 17.0004 11.0949 20.8549 11.6184L22.003 14.2774C22.2471 14.8518 22.9104 15.2983 23.4759 15.2999L26.908 15.3072C27.4734 15.3088 27.9642 14.8563 28.0098 14.3L28.2999 10.9023C28.3022 10.8745 28.2929 10.8513 28.2951 10.8235C28.3222 10.221 27.9204 9.5216 27.1482 9.10542Z" fill="url(#paint9_linear_236_3177)"/>
<defs>
<linearGradient id="paint0_linear_236_3177" x1="12.7108" y1="15.5028" x2="13.406" y2="17.2345" gradientUnits="userSpaceOnUse">
<stop stop-color="#4F73BB"/>
<stop offset="1" stop-color="#1B2B4B"/>
</linearGradient>
<linearGradient id="paint1_linear_236_3177" x1="12.6134" y1="22.3597" x2="13.304" y2="24.08" gradientUnits="userSpaceOnUse">
<stop stop-color="#4F73BB"/>
<stop offset="1" stop-color="#1B2B4B"/>
</linearGradient>
<linearGradient id="paint2_linear_236_3177" x1="10.8419" y1="17.6785" x2="11.5371" y2="19.4103" gradientUnits="userSpaceOnUse">
<stop stop-color="#4F73BB"/>
<stop offset="1" stop-color="#1B2B4B"/>
</linearGradient>
<linearGradient id="paint3_linear_236_3177" x1="10.7445" y1="20.3939" x2="11.4397" y2="22.1257" gradientUnits="userSpaceOnUse">
<stop stop-color="#4F73BB"/>
<stop offset="1" stop-color="#1B2B4B"/>
</linearGradient>
<linearGradient id="paint4_linear_236_3177" x1="15.2648" y1="22.5059" x2="15.96" y2="24.2376" gradientUnits="userSpaceOnUse">
<stop stop-color="#4F73BB"/>
<stop offset="1" stop-color="#1B2B4B"/>
</linearGradient>
<linearGradient id="paint5_linear_236_3177" x1="18.2019" y1="18.6103" x2="18.8972" y2="20.342" gradientUnits="userSpaceOnUse">
<stop stop-color="#4F73BB"/>
<stop offset="1" stop-color="#1B2B4B"/>
</linearGradient>
<linearGradient id="paint6_linear_236_3177" x1="15.4799" y1="15.3324" x2="16.1751" y2="17.0641" gradientUnits="userSpaceOnUse">
<stop stop-color="#4F73BB"/>
<stop offset="1" stop-color="#1B2B4B"/>
</linearGradient>
<linearGradient id="paint7_linear_236_3177" x1="9.85283" y1="12.4663" x2="17.3339" y2="31.1014" gradientUnits="userSpaceOnUse">
<stop stop-color="#4F73BB"/>
<stop offset="1" stop-color="#1B2B4B"/>
</linearGradient>
<linearGradient id="paint8_linear_236_3177" x1="17.4787" y1="21.1197" x2="18.1739" y2="22.8514" gradientUnits="userSpaceOnUse">
<stop stop-color="#4F73BB"/>
<stop offset="1" stop-color="#1B2B4B"/>
</linearGradient>
<linearGradient id="paint9_linear_236_3177" x1="12.1059" y1="5.17472" x2="17.6925" y2="19.0906" gradientUnits="userSpaceOnUse">
<stop stop-color="#365491"/>
<stop offset="1" stop-color="#1B2B4B"/>
</linearGradient>
</defs>
</svg>
