<svg width="34" height="34" viewBox="0 0 34 34" fill="none" xmlns="http://www.w3.org/2000/svg">
<path fill-rule="evenodd" clip-rule="evenodd" d="M23.4511 21.1386L26.9807 21.5415C28.3842 21.7083 29.4403 22.8895 29.4264 24.293L29.4264 26.697C29.4264 28.2673 28.1202 29.5735 26.5499 29.4762C14.6965 28.7397 5.20547 19.2626 4.46897 7.3953C4.3717 5.82503 5.67793 4.5188 7.2482 4.5188L9.65223 4.5188C11.0696 4.5188 12.2508 5.5749 12.4176 6.97841L12.8205 10.4802C12.9178 11.3279 12.626 12.1617 12.0285 12.7592L9.45768 15.33C11.4587 19.2765 14.6826 22.4865 18.6152 24.4875L21.1721 21.9306C21.7696 21.3331 22.6034 21.0413 23.4511 21.1386ZM18.1564 7.35367C22.5754 7.90951 26.0355 11.3696 26.5914 15.7886C26.6748 16.4973 27.2723 17.0115 27.9671 17.0115C28.0227 17.0115 28.0783 17.0115 28.1338 16.9976C28.8981 16.9003 29.4401 16.2055 29.3428 15.4412C28.6341 9.7577 24.1735 5.29704 18.4899 4.58834C17.7256 4.50496 17.0308 5.04691 16.9475 5.8112C16.8502 6.57549 17.3921 7.27029 18.1564 7.35367ZM18.6845 10.2857C17.948 10.0911 17.1837 10.5358 16.9891 11.2862C16.7946 12.0366 17.2393 12.787 17.9897 12.9815C19.4487 13.3567 20.5882 14.4962 20.9773 15.9692C21.1441 16.5945 21.6999 17.0114 22.3252 17.0114C22.4364 17.0114 22.5615 16.9975 22.6726 16.9697C23.4091 16.7752 23.8538 16.0109 23.6732 15.2744C23.0201 12.8148 21.1163 10.911 18.6845 10.2857Z" fill="#1B2B4B"/>
</svg>
