<svg width="35" height="34" viewBox="0 0 35 34" fill="none" xmlns="http://www.w3.org/2000/svg">
<path fill-rule="evenodd" clip-rule="evenodd" d="M23.8773 21.1386L27.407 21.5415C28.8105 21.7083 29.8666 22.8895 29.8527 24.293L29.8527 26.697C29.8527 28.2673 28.5464 29.5735 26.9762 29.4762C15.1228 28.7397 5.63174 19.2626 4.89524 7.3953C4.79797 5.82503 6.1042 4.5188 7.67447 4.5188L10.0785 4.5188C11.4959 4.5188 12.6771 5.5749 12.8438 6.97841L13.2468 10.4802C13.3441 11.3279 13.0523 12.1617 12.4547 12.7592L9.88395 15.33C11.885 19.2765 15.1089 22.4865 19.0415 24.4875L21.5984 21.9306C22.1959 21.3331 23.0297 21.0413 23.8773 21.1386ZM18.5827 7.35367C23.0017 7.90951 26.4618 11.3696 27.0176 15.7886C27.101 16.4973 27.6986 17.0115 28.3934 17.0115C28.4489 17.0115 28.5045 17.0115 28.5601 16.9976C29.3244 16.9003 29.8663 16.2055 29.7691 15.4412C29.0604 9.7577 24.5997 5.29704 18.9162 4.58834C18.1519 4.50496 17.4571 5.04691 17.3737 5.8112C17.2765 6.57549 17.8184 7.27029 18.5827 7.35367ZM19.1107 10.2857C18.3742 10.0911 17.6099 10.5358 17.4154 11.2862C17.2209 12.0366 17.6655 12.787 18.4159 12.9815C19.875 13.3567 21.0145 14.4962 21.4036 15.9692C21.5703 16.5945 22.1262 17.0114 22.7515 17.0114C22.8627 17.0114 22.9877 16.9975 23.0989 16.9697C23.8354 16.7752 24.2801 16.0109 24.0994 15.2744C23.4463 12.8148 21.5426 10.911 19.1107 10.2857Z" fill="white"/>
</svg>
