<svg width="28" height="28" viewBox="0 0 28 28" fill="none" xmlns="http://www.w3.org/2000/svg">
<path fill-rule="evenodd" clip-rule="evenodd" d="M13.8991 8.63184H13.8653C13.2578 8.63184 12.7628 8.13684 12.7628 7.51809V4.10934C12.7628 3.50184 13.2578 3.00684 13.8766 3.00684H13.9103C14.5178 3.00684 15.0128 3.50184 15.0128 4.10934V7.52934C15.0128 8.13684 14.5178 8.63184 13.8991 8.63184ZM20.9751 11.0054C20.5364 11.4442 19.8389 11.4442 19.4001 11.0054L19.3889 10.9829C18.9501 10.5554 18.9501 9.8467 19.3889 9.4192L21.8301 7.00045C22.2576 6.57295 22.9664 6.57295 23.3939 7.00045C23.8326 7.42795 23.8326 8.1367 23.3939 8.5642C22.6851 9.27295 21.6726 10.2967 20.9751 11.0054ZM6.81187 10.9944C7.23937 11.4331 7.94812 11.4331 8.38687 10.9944C8.81437 10.5669 8.81437 9.85814 8.38687 9.43064L5.96812 6.98939C5.54063 6.55064 4.83187 6.55064 4.40438 6.98939L4.38188 7.00064C3.94313 7.43939 3.94313 8.13689 4.38188 8.56439C5.09062 9.26189 6.11438 10.2856 6.81187 10.9944ZM1.2986 19.0157C8.50985 12.6482 19.3773 12.6482 26.5886 19.0157C27.5448 19.8594 27.5448 21.3557 26.6561 22.2557L25.2836 23.6282C24.4736 24.4382 23.1911 24.5057 22.2911 23.7969L20.0523 22.0194C19.5123 21.5919 19.1973 20.9394 19.1973 20.2532V17.3169C15.7886 16.2032 12.1098 16.2144 8.71235 17.3169V20.2419C8.71235 20.9282 8.39735 21.5807 7.85735 22.0082L5.60735 23.7969C4.70735 24.5057 3.42485 24.4382 2.61485 23.6282L1.24235 22.2557C0.342347 21.3557 0.342347 19.8594 1.2986 19.0157Z" fill="#1B2B4B"/>
</svg>
