<svg width="33" height="33" viewBox="0 0 33 33" fill="none" xmlns="http://www.w3.org/2000/svg">
<g id="ring_volume_24px">
<path id="icon/communication/ring_volume_24px" fill-rule="evenodd" clip-rule="evenodd" d="M16.4676 10.5606H16.4271C15.6976 10.5606 15.1032 9.96614 15.1032 9.22313V5.12982C15.1032 4.40032 15.6976 3.80591 16.4406 3.80591H16.4811C17.2106 3.80591 17.805 4.40032 17.805 5.12982V9.23664C17.805 9.96614 17.2106 10.5606 16.4676 10.5606ZM24.9647 13.4108C24.4378 13.9377 23.6003 13.9377 23.0734 13.4108L23.0599 13.3838C22.533 12.8705 22.533 12.0194 23.0599 11.506L25.9914 8.60154C26.5048 8.08818 27.3559 8.08818 27.8692 8.60154C28.3961 9.11489 28.3961 9.96598 27.8692 10.4793C27.0181 11.3304 25.8023 12.5598 24.9647 13.4108ZM7.95713 13.3976C8.47049 13.9244 9.32157 13.9244 9.84843 13.3976C10.3618 12.8842 10.3618 12.0331 9.84843 11.5198L6.94394 8.58826C6.43058 8.0614 5.5795 8.0614 5.06615 8.58826L5.03913 8.60177C4.51227 9.12863 4.51227 9.9662 5.03913 10.4796C5.89021 11.3171 7.11956 12.5465 7.95713 13.3976ZM1.33665 23.0298C9.9961 15.3835 23.0461 15.3835 31.7055 23.0298C32.8538 24.0429 32.8538 25.8397 31.7866 26.9204L30.1384 28.5686C29.1658 29.5412 27.6257 29.6223 26.545 28.7712L23.8566 26.6367C23.2082 26.1234 22.8299 25.3398 22.8299 24.5158V20.9898C18.7366 19.6524 14.3191 19.6659 10.2393 20.9898V24.5023C10.2393 25.3263 9.86101 26.1099 9.21256 26.6232L6.51071 28.7712C5.42996 29.6223 3.8899 29.5412 2.91724 28.5686L1.2691 26.9204C0.18836 25.8397 0.18836 24.0429 1.33665 23.0298Z" fill="white"/>
</g>
</svg>
