<svg width="62" height="62" viewBox="0 0 62 62" fill="none" xmlns="http://www.w3.org/2000/svg">
<circle cx="31.1141" cy="30.8856" r="30.8856" fill="white"/>
<g clip-path="url(#clip0_340_853)">
<path d="M40.7021 32.8519C41.3755 33.1916 41.9856 33.5254 42.5668 33.9179C46.6071 36.6413 49.3236 40.3663 50.7049 45.0987C50.7625 45.2978 50.774 45.3857 50.515 45.3798C48.3682 45.3681 46.2157 45.3681 44.069 45.3798C43.8273 45.3798 43.7697 45.2627 43.7064 45.0752C42.9007 42.7032 41.6057 40.665 39.7007 39.0426C38.0604 37.6487 36.1727 36.7995 34.0489 36.4949C33.9626 36.4832 33.8763 36.4832 33.7899 36.4715C33.6748 36.4539 33.6288 36.4949 33.6346 36.612C33.6403 36.6823 33.6346 36.7467 33.6346 36.817C33.6346 39.5698 33.6288 42.3225 33.6403 45.0752C33.6403 45.3154 33.5828 45.3857 33.341 45.3857C30.5324 45.3915 27.7756 45.0752 25.1109 44.1323C20.6908 42.5685 17.37 39.6693 15.0563 35.5519C13.5714 32.9105 12.6678 30.0582 12.1153 27.077C11.7412 24.9685 11.5455 22.8425 11.4822 20.7047C11.4765 20.4529 11.5513 20.4001 11.7873 20.4001C13.8189 20.4119 15.8563 20.4119 17.8879 20.4001C18.1469 20.4001 18.2217 20.4646 18.2275 20.734C18.2908 23.6273 18.6707 26.4679 19.603 29.2089C20.4145 31.5927 21.5944 33.748 23.4361 35.4758C24.4778 36.4539 25.6576 37.1919 27.0274 37.6136C27.2922 37.6956 27.3209 37.6311 27.3209 37.3793C27.3152 31.8387 27.3209 26.2922 27.3094 20.7516C27.3094 20.4763 27.3612 20.3943 27.649 20.3943C29.5368 20.406 31.4303 20.4119 33.318 20.3943C33.6058 20.3943 33.6576 20.4821 33.6576 20.7516C33.6461 23.8264 33.6518 26.9013 33.6461 29.9762C33.6461 30.2222 33.6864 30.2807 33.9396 30.2339C35.4763 29.9703 36.7942 29.2265 37.9741 28.2367C40.3568 26.2336 41.9568 23.6859 42.8891 20.693C42.9582 20.4646 43.0503 20.4001 43.2805 20.4001C45.1913 20.4119 47.0963 20.4119 49.0071 20.4001C49.243 20.4001 49.3121 20.4294 49.2603 20.7047C48.6272 23.9026 47.1539 26.6612 45.0647 29.1035C43.8158 30.5619 42.3884 31.8211 40.7021 32.8519Z" fill="#1B2B4B"/>
</g>
<defs>
<clipPath id="clip0_340_853">
<rect width="39.263" height="24.9855" fill="white" transform="translate(11.4824 20.4004)"/>
</clipPath>
</defs>
</svg>
