<svg width="62" height="63" viewBox="0 0 62 63" fill="none" xmlns="http://www.w3.org/2000/svg">
<circle cx="31.0545" cy="31.8665" r="30.8856" fill="white"/>
<path d="M32.4063 46.3198C29.1701 46.3198 26.15 45.3443 23.627 43.6843L17.4924 45.6442L19.481 39.7164C17.5676 37.0899 16.4423 33.854 16.4423 30.3648C16.4423 21.5667 23.5989 14.4101 32.397 14.4101C41.1952 14.4101 48.3518 21.5667 48.3518 30.3648C48.3518 39.1626 41.1952 46.3195 32.397 46.3195H32.4063V46.3198ZM32.4063 11.3896C21.9288 11.3896 13.4312 19.8881 13.4312 30.3651C13.4312 33.948 14.4254 37.3059 16.1511 40.1667L12.7275 50.3437L23.2331 46.9766C26.041 48.5292 29.1976 49.3426 32.4063 49.3402C42.8835 49.3402 51.3814 40.8423 51.3814 30.3651C51.3812 19.8881 42.8835 11.3896 32.4063 11.3896Z" fill="#1B2B4B"/>
<path d="M27.9509 22.5148C27.6415 21.7739 27.4069 21.7458 26.9381 21.7268C26.7601 21.7153 26.5818 21.7091 26.4034 21.7083C25.7935 21.7083 25.1558 21.8864 24.7711 22.2803C24.3023 22.7586 23.1392 23.8747 23.1392 26.1634C23.1392 28.4522 24.8087 30.6657 25.0337 30.9754C25.2683 31.2846 28.2887 36.0495 32.9784 37.9915C36.6458 39.511 37.734 39.3701 38.5687 39.192C39.788 38.9294 41.317 38.0286 41.7016 36.9408C42.0862 35.8526 42.0862 34.924 41.9735 34.727C41.861 34.5301 41.5513 34.4178 41.0824 34.183C40.6136 33.9485 38.3342 32.8229 37.9027 32.6728C37.4804 32.5135 37.0773 32.5698 36.7586 33.0201C36.3083 33.6486 35.8675 34.2865 35.511 34.6709C35.2296 34.9711 34.7697 35.0087 34.3854 34.849C33.8694 34.6336 32.4252 34.1266 30.6428 32.5415C29.2639 31.313 28.326 29.7842 28.0542 29.3247C27.782 28.8559 28.0261 28.5835 28.2416 28.3304C28.4761 28.0395 28.7011 27.8333 28.9357 27.5611C29.1702 27.2893 29.3015 27.1484 29.4516 26.8295C29.6112 26.52 29.4984 26.201 29.3859 25.9665C29.2734 25.7319 28.3355 23.4432 27.9509 22.5148Z" fill="#1B2B4B"/>
</svg>
