<svg width="62" height="62" viewBox="0 0 62 62" fill="none" xmlns="http://www.w3.org/2000/svg">
<circle cx="30.9178" cy="30.9478" r="30.8856" fill="#1B2B4B"/>
<path d="M32.2696 45.4011C29.0334 45.4011 26.0133 44.4256 23.4903 42.7656L17.3557 44.7255L19.3443 38.7977C17.4309 36.1712 16.3056 32.9353 16.3056 29.4461C16.3056 20.648 23.4622 13.4914 32.2603 13.4914C41.0584 13.4914 48.215 20.648 48.215 29.4461C48.215 38.2439 41.0584 45.4008 32.2603 45.4008H32.2696V45.4011ZM32.2696 10.4709C21.7921 10.4709 13.2944 18.9694 13.2944 29.4464C13.2944 33.0293 14.2887 36.3872 16.0144 39.248L12.5908 49.425L23.0964 46.0578C25.9043 47.6105 29.0609 48.4239 32.2696 48.4215C42.7468 48.4215 51.2447 39.9236 51.2447 29.4464C51.2445 18.9694 42.7468 10.4709 32.2696 10.4709Z" fill="white"/>
<path d="M27.8142 21.5961C27.5047 20.8552 27.2702 20.8271 26.8014 20.8081C26.6234 20.7966 26.445 20.7904 26.2667 20.7896C25.6568 20.7896 25.0191 20.9677 24.6344 21.3616C24.1656 21.8399 23.0024 22.956 23.0024 25.2447C23.0024 27.5335 24.672 29.747 24.897 30.0567C25.1316 30.3659 28.152 35.1308 32.8417 37.0728C36.5091 38.5923 37.5973 38.4514 38.432 38.2733C39.6513 38.0107 41.1803 37.1099 41.5649 36.0221C41.9495 34.9339 41.9495 34.0053 41.8368 33.8083C41.7243 33.6114 41.4145 33.4991 40.9457 33.2643C40.4769 33.0298 38.1974 31.9042 37.7659 31.7541C37.3437 31.5948 36.9406 31.6511 36.6218 32.1014C36.1716 32.7299 35.7308 33.3678 35.3742 33.7522C35.0928 34.0524 34.633 34.09 34.2487 33.9303C33.7327 33.7149 32.2884 33.2079 30.5061 31.6228C29.1272 30.3943 28.1893 28.8655 27.9174 28.406C27.6453 27.9372 27.8894 27.6648 28.1049 27.4117C28.3394 27.1208 28.5644 26.9146 28.7989 26.6424C29.0335 26.3706 29.1648 26.2297 29.3149 25.9108C29.4745 25.6013 29.3617 25.2823 29.2492 25.0478C29.1367 24.8132 28.1988 22.5245 27.8142 21.5961Z" fill="white"/>
</svg>
