<svg width="63" height="63" viewBox="0 0 63 63" fill="none" xmlns="http://www.w3.org/2000/svg">
<circle cx="31.1463" cy="31.2034" r="30.8856" fill="#1B2B4B"/>
<g clip-path="url(#clip0_304_853)">
<path d="M40.7343 33.1698C41.4077 33.5095 42.0178 33.8433 42.5991 34.2357C46.6393 36.9592 49.3558 40.6842 50.7371 45.4165C50.7947 45.6157 50.8062 45.7035 50.5472 45.6977C48.4005 45.686 46.248 45.686 44.1012 45.6977C43.8595 45.6977 43.8019 45.5805 43.7386 45.3931C42.9329 43.0211 41.6379 40.9829 39.7329 39.3605C38.0926 37.9666 36.2049 37.1173 34.0812 36.8128C33.9948 36.8011 33.9085 36.8011 33.8222 36.7893C33.7071 36.7718 33.661 36.8128 33.6668 36.9299C33.6725 37.0002 33.6668 37.0646 33.6668 37.1349C33.6668 39.8876 33.661 42.6404 33.6725 45.3931C33.6725 45.6333 33.615 45.7035 33.3733 45.7035C30.5647 45.7094 27.8078 45.3931 25.1431 44.4502C20.723 42.8864 17.4022 39.9872 15.0885 35.8698C13.6037 33.2283 12.7001 30.376 12.1476 27.3949C11.7735 25.2864 11.5778 23.1603 11.5145 21.0226C11.5087 20.7707 11.5835 20.718 11.8195 20.718C13.8511 20.7297 15.8885 20.7297 17.9202 20.718C18.1792 20.718 18.254 20.7824 18.2597 21.0519C18.323 23.9452 18.7029 26.7858 19.6353 29.5268C20.4468 31.9105 21.6266 34.0659 23.4683 35.7937C24.51 36.7718 25.6899 37.5097 27.0596 37.9314C27.3244 38.0134 27.3532 37.949 27.3532 37.6972C27.3474 32.1565 27.3532 26.6101 27.3417 21.0694C27.3417 20.7942 27.3935 20.7122 27.6812 20.7122C29.569 20.7239 31.4625 20.7297 33.3502 20.7122C33.638 20.7122 33.6898 20.8 33.6898 21.0694C33.6783 24.1443 33.684 27.2192 33.6783 30.294C33.6783 30.54 33.7186 30.5986 33.9718 30.5517C35.5085 30.2882 36.8265 29.5444 38.0063 28.5545C40.389 26.5515 41.989 24.0037 42.9214 21.0109C42.9904 20.7824 43.0825 20.718 43.3127 20.718C45.2235 20.7297 47.1285 20.7297 49.0393 20.718C49.2753 20.718 49.3443 20.7473 49.2925 21.0226C48.6595 24.2204 47.1861 26.979 45.0969 29.4214C43.848 30.8797 42.4207 32.139 40.7343 33.1698Z" fill="#FDFEFE"/>
</g>
<defs>
<clipPath id="clip0_304_853">
<rect width="39.263" height="24.9855" fill="white" transform="translate(11.5146 20.7183)"/>
</clipPath>
</defs>
</svg>
