<svg width="138" height="138" viewBox="0 0 138 138" fill="none" xmlns="http://www.w3.org/2000/svg">
<circle cx="68.7246" cy="68.6034" r="65.4842" stroke="#F2A446" stroke-width="5.84681"/>
<path d="M68.9272 107.45C68.2208 107.45 67.6749 106.872 67.6749 106.198V106.037C67.6749 104.014 66.0374 102.377 64.0145 102.377H32.9653C30.9424 102.377 29.3048 104.014 29.3048 106.037V106.198C29.3048 106.904 28.7269 107.45 28.0526 107.45C27.3462 107.45 26.8004 106.872 26.8004 106.198V106.037C26.8004 102.602 29.5938 99.8403 32.9974 99.8403H64.0145C67.4502 99.8403 70.2115 102.634 70.2115 106.037V106.198C70.1794 106.904 69.6336 107.45 68.9272 107.45Z" fill="#1B2B4B" stroke="#1B2B4B" stroke-width="0.602684"/>
<path d="M64.3997 102.345H32.5477C31.8413 102.345 31.2955 101.767 31.2955 101.092V96.2439C31.2955 95.5375 31.8734 94.9917 32.5477 94.9917H64.3997C65.1061 94.9917 65.652 95.5697 65.652 96.2439V101.092C65.6841 101.799 65.1061 102.345 64.3997 102.345ZM33.8 99.808H63.1475V97.4962H33.8V99.808Z" fill="#1B2B4B" stroke="#1B2B4B" stroke-width="0.602684"/>
<path d="M41.2492 91.5881C40.9281 91.5881 40.607 91.4597 40.3501 91.2028L35.6944 86.547C35.2127 86.0654 35.2127 85.2627 35.6944 84.7489C36.176 84.2673 36.9787 84.2673 37.4925 84.7489L42.1482 89.4047C42.6299 89.8863 42.6299 90.6891 42.1482 91.2028C41.8914 91.4597 41.5703 91.5881 41.2492 91.5881Z" fill="#1B2B4B" stroke="#1B2B4B" stroke-width="0.602684"/>
<path d="M55.7304 91.5881C55.4093 91.5881 55.0882 91.4597 54.8313 91.2028C54.3497 90.7212 54.3497 89.9184 54.8313 89.4047L59.4871 84.7489C59.9687 84.2673 60.7715 84.2673 61.2852 84.7489C61.7668 85.2306 61.7668 86.0333 61.2852 86.547L56.6294 91.2349C56.3725 91.4597 56.0515 91.5881 55.7304 91.5881Z" fill="#1B2B4B" stroke="#1B2B4B" stroke-width="0.602684"/>
<path d="M48.4737 89.8544C47.7673 89.8544 47.2215 89.2764 47.2215 88.6021V82.0198C47.2215 81.3134 47.7995 80.7676 48.4737 80.7676C49.1801 80.7676 49.726 81.3455 49.726 82.0198V88.6021C49.7581 89.3085 49.1801 89.8544 48.4737 89.8544Z" fill="#1B2B4B" stroke="#1B2B4B" stroke-width="0.602684"/>
<path d="M68.9271 107.45H28.0204C27.314 107.45 26.7681 106.872 26.7681 106.198C26.7681 105.492 27.3461 104.946 28.0204 104.946H68.9271C69.6335 104.946 70.1793 105.524 70.1793 106.198C70.1793 106.904 69.6335 107.45 68.9271 107.45Z" fill="#1B2B4B" stroke="#1B2B4B" stroke-width="0.602684"/>
<path d="M62.0023 70.1395H61.9702C61.6491 70.1395 61.328 69.9789 61.1032 69.7221L49.1587 56.8785C48.6771 56.3648 48.7092 55.562 49.223 55.0804L70.2543 35.5261C70.768 35.0445 71.5707 35.0766 72.0524 35.5903L83.9969 48.4339C84.2216 48.6908 84.3501 49.0118 84.3501 49.3329C84.3501 49.654 84.1895 49.9751 83.9327 50.1999L62.9013 69.7542C62.6445 70.011 62.3234 70.1395 62.0023 70.1395ZM51.8559 56.0758L62.0665 67.057L81.2355 49.2366L71.0249 38.2554L51.8559 56.0758Z" fill="#1B2B4B" stroke="#1B2B4B" stroke-width="0.602684"/>
<path d="M57.154 77.6856C56.1265 77.6856 55.1311 77.2682 54.3926 76.4976L41.8702 63.044C41.1959 62.3055 40.8106 61.3422 40.8748 60.3468C40.9069 59.3514 41.3243 58.4203 42.0628 57.7139L43.8288 56.0763C44.0857 55.8516 44.4068 55.7231 44.7279 55.7231C45.049 55.7231 45.37 55.8837 45.5948 56.1406L61.5208 73.2546C61.7456 73.5115 61.874 73.8325 61.874 74.1536C61.874 74.4747 61.7135 74.7958 61.4566 75.0206L59.6906 76.6581C59.0163 77.3645 58.0852 77.6856 57.154 77.6856ZM44.6315 58.7735L43.7967 59.5441C43.283 60.0257 43.283 60.7963 43.7325 61.3101L56.2549 74.7637C56.7045 75.2775 57.5072 75.2775 58.0209 74.8279L58.8558 74.0573L44.6315 58.7735Z" fill="#1B2B4B" stroke="#1B2B4B" stroke-width="0.602684"/>
<path d="M57.7961 72.3552H57.764C57.4429 72.3552 57.1218 72.1946 56.8971 71.9378L46.6222 60.8923C46.1406 60.3786 46.1727 59.5759 46.6865 59.0942L50.0258 55.9797C50.2827 55.7549 50.6037 55.6265 50.9248 55.6265C51.2459 55.6265 51.567 55.787 51.7918 56.0439L62.0666 67.0893C62.5482 67.6031 62.5161 68.4058 62.0024 68.8874L58.6631 72.002C58.4383 72.2268 58.1172 72.3552 57.7961 72.3552ZM49.3194 60.1217L57.8603 69.3048L59.3374 67.9242L50.7964 58.741L49.3194 60.1217Z" fill="#1B2B4B" stroke="#1B2B4B" stroke-width="0.602684"/>
<path d="M88.1068 49.3327C88.0747 49.3327 88.0747 49.3327 88.0747 49.3327C87.7536 49.3327 87.4325 49.1721 87.2078 48.9153L71.2818 31.7691C71.057 31.5123 70.9286 31.1912 70.9286 30.8701C70.9286 30.549 71.0891 30.2279 71.346 30.0031L73.112 28.3656C73.8505 27.6913 74.8138 27.306 75.8091 27.3702C76.8045 27.4023 77.7357 27.8197 78.4421 28.5582L90.9645 42.0119C92.3773 43.521 92.281 45.9291 90.7719 47.3419L89.0059 48.9795C88.749 49.2364 88.4279 49.3327 88.1068 49.3327ZM73.9789 30.9985L88.1711 46.2823L89.0059 45.5117C89.5196 45.0622 89.5196 44.2595 89.0701 43.7457L76.5476 30.2921C76.3229 30.0353 76.0018 29.9068 75.6807 29.9068C75.3275 29.8747 75.0385 30.0031 74.7817 30.2279L73.9789 30.9985Z" fill="#1B2B4B" stroke="#1B2B4B" stroke-width="0.602684"/>
<path d="M81.9419 49.3974C81.5887 49.3974 81.2676 49.2689 81.0107 48.9799L70.768 37.9666C70.2864 37.4529 70.3185 36.6501 70.8322 36.1685L74.1715 33.0539C74.6853 32.5723 75.488 32.6044 75.9696 33.1182L86.2124 44.1636C86.4371 44.4205 86.5656 44.7416 86.5656 45.0627C86.5656 45.3838 86.405 45.7048 86.1481 45.9296L82.8088 49.0442C82.5519 49.301 82.263 49.3974 81.9419 49.3974ZM73.4651 37.1639L82.0061 46.347L83.4831 44.9663L74.9421 35.7832L73.4651 37.1639Z" fill="#1B2B4B" stroke="#1B2B4B" stroke-width="0.602684"/>
<path d="M73.8826 67.0248H73.8505C73.5294 67.0248 73.2083 66.8642 72.9836 66.6074L69.0021 62.369C68.5204 61.8552 68.5525 61.0525 69.0663 60.5709L74.2679 55.7546C74.5248 55.5298 74.8459 55.4014 75.167 55.4014C75.4881 55.4014 75.8091 55.5619 76.0339 55.8188L79.9833 60.0572C80.4649 60.5709 80.4328 61.3736 79.9191 61.8553L74.7174 66.6716C74.4927 66.8963 74.2037 67.0248 73.8826 67.0248ZM71.7313 61.5663L73.9468 63.9423L77.2862 60.8278L75.0706 58.4517L71.7313 61.5663Z" fill="#1B2B4B" stroke="#1B2B4B" stroke-width="0.602684"/>
<path d="M106.794 99.8402C106.634 99.8402 106.505 99.8402 106.345 99.808C105.221 99.6796 104.161 99.1659 103.358 98.2989L73.8504 65.7405C73.4009 65.2268 73.433 64.4241 73.9146 63.9745L77.2861 60.8279C77.7998 60.3462 78.6025 60.3783 79.0521 60.8921L109.363 92.6799C110.166 93.5468 110.647 94.6706 110.679 95.7944C110.711 96.9825 110.262 98.0742 109.459 98.8448C108.753 99.487 107.822 99.8402 106.794 99.8402ZM76.5797 64.9699L105.253 96.5972C105.638 97.0146 106.12 97.2714 106.634 97.3036C107.083 97.3678 107.501 97.2393 107.79 96.9504C108.078 96.6935 108.239 96.2761 108.207 95.8265C108.207 95.3128 107.982 94.7991 107.597 94.3816L78.153 63.4929L76.5797 64.9699Z" fill="#1B2B4B" stroke="#1B2B4B" stroke-width="0.602684"/>
</svg>
