<svg width="137" height="138" viewBox="0 0 137 138" fill="none" xmlns="http://www.w3.org/2000/svg">
<circle cx="68.4398" cy="68.7779" r="65.4842" stroke="#F2A446" stroke-width="5.84681"/>
<path d="M68.6406 69.8004C77.9609 69.8004 85.7389 62.2236 85.7389 52.7022C85.7389 43.2813 78.0615 35.6039 68.6406 35.6039C59.1863 35.6039 51.5424 43.3149 51.5424 52.7022C51.5424 62.0224 59.1528 69.8004 68.6406 69.8004ZM73.8372 66.8502C74.7759 65.6767 75.5805 64.1681 76.2175 62.4247C77.2233 62.7265 78.2291 63.0617 79.2013 63.464C77.6591 64.9392 75.8487 66.1126 73.8372 66.8502ZM80.5759 61.8883C79.3354 61.3519 78.0615 60.8825 76.7875 60.5137C77.3239 58.4686 77.6927 56.1553 77.7597 53.7079H83.6938C83.4927 56.6247 82.4534 59.4744 80.5759 61.8883ZM83.6938 51.6964H77.7597C77.6927 49.249 77.3574 46.9357 76.7875 44.8906C78.0615 44.5218 79.3354 44.0524 80.5759 43.516C82.3863 45.8293 83.4927 48.612 83.6938 51.6964ZM79.1678 41.9068C78.1956 42.3091 77.1898 42.6779 76.184 42.9461C75.547 41.2027 74.7424 39.6941 73.8037 38.5206C75.8487 39.2582 77.6591 40.4316 79.1678 41.9068ZM69.6464 37.7495C71.4904 38.3195 73.0996 40.4316 74.206 43.4154C72.6973 43.7172 71.1886 43.9183 69.6464 43.9519V37.7495ZM69.6464 45.997C71.4233 45.9299 73.1331 45.7287 74.843 45.36C75.3459 47.2709 75.6811 49.4166 75.7482 51.6964H69.6464V45.997ZM69.6464 53.7079H75.7482C75.6811 55.9877 75.3459 58.1334 74.843 60.0444C73.1331 59.6756 71.4233 59.4744 69.6464 59.4074V53.7079ZM69.6464 61.3854C71.1886 61.4525 72.7308 61.6201 74.206 61.9218C73.0996 64.9056 71.4568 67.0178 69.6464 67.5877V61.3854ZM58.1135 63.464C59.0857 63.0617 60.0915 62.6929 61.0973 62.4247C61.7343 64.1681 62.5389 65.6767 63.4776 66.8502C61.4325 66.1126 59.6221 64.9392 58.1135 63.464ZM67.6349 67.6213C65.7909 67.0513 64.1817 64.9392 63.0753 61.9554C64.584 61.6536 66.0927 61.4525 67.6349 61.4189V67.6213ZM67.6349 59.3738C65.858 59.4409 64.1482 59.6421 62.4383 60.0108C61.9354 58.0999 61.6002 55.9542 61.5331 53.6744H67.6349V59.3738ZM67.6349 51.6964H61.5331C61.6002 49.4166 61.9354 47.2709 62.4383 45.36C64.1482 45.7287 65.858 45.9299 67.6349 45.997V51.6964ZM67.6349 37.7495V43.9854C66.0927 43.9183 64.5505 43.7507 63.0753 43.449C64.1817 40.4316 65.8245 38.3195 67.6349 37.7495ZM63.4776 38.5206C62.5389 39.6941 61.7343 41.2027 61.0973 42.9461C60.0915 42.6444 59.0857 42.3091 58.1135 41.9068C59.6221 40.4316 61.4325 39.2582 63.4776 38.5206ZM56.7054 43.4825C57.9458 44.0189 59.2198 44.4883 60.4938 44.8571C59.9574 46.9022 59.5886 49.2155 59.5216 51.6629H53.5874C53.7886 48.7461 54.8614 45.8964 56.7054 43.4825ZM59.5216 53.7079C59.5886 56.1553 59.9239 58.4686 60.4938 60.5137C59.2198 60.8825 57.9458 61.3519 56.7054 61.8883C54.8279 59.4744 53.7886 56.6247 53.5874 53.7079H59.5216Z" fill="#1B2B4B" stroke="#1B2B4B" stroke-width="0.584681"/>
<path d="M93.1146 27.5409H44.1666C40.6463 27.5409 37.7966 30.3906 37.7966 33.9108V103.645C37.7966 107.165 40.6463 110.015 44.1666 110.015H93.1146C96.6348 110.015 99.4846 107.165 99.4846 103.645V33.9108C99.4846 30.3906 96.6348 27.5409 93.1146 27.5409ZM97.473 103.645C97.473 106.059 95.5285 108.003 93.1146 108.003H44.1666C41.7527 108.003 39.8082 106.059 39.8082 103.645V33.9108C39.8082 31.497 41.7527 29.5525 44.1666 29.5525H93.1146C95.5285 29.5525 97.473 31.497 97.473 33.9108V103.645Z" fill="#1B2B4B" stroke="#1B2B4B" stroke-width="1.16936"/>
<path d="M86.4094 85.5411H50.8717C50.3018 85.5411 49.866 85.977 49.866 86.5469C49.866 87.1169 50.3018 87.5527 50.8717 87.5527H86.4094C86.9793 87.5527 87.4151 87.1169 87.4151 86.5469C87.4151 85.977 86.9793 85.5411 86.4094 85.5411Z" fill="#1B2B4B" stroke="#1B2B4B" stroke-width="1.16936"/>
<path d="M82.8892 92.9167H54.392C53.8221 92.9167 53.3862 93.3526 53.3862 93.9225C53.3862 94.4925 53.8221 94.9283 54.392 94.9283H82.8892C83.4591 94.9283 83.8949 94.4925 83.8949 93.9225C83.8949 93.3526 83.4591 92.9167 82.8892 92.9167Z" fill="#1B2B4B" stroke="#1B2B4B" stroke-width="1.16936"/>
<path d="M75.5427 73.699L83.87 73.0246L92.1555 69.3062L100.063 73.0246L109.327 74.8171L108.848 89.7527L103.896 104.768L92.1555 111.876L83.87 107.404L76.1018 90.7111L75.5427 73.699Z" fill="white"/>
<path d="M92.4177 113.688C92.1142 113.688 91.7969 113.633 91.4934 113.536C72.8555 107.424 72.7313 82.4267 73.1314 74.9081C73.1866 73.9286 73.6418 73.0319 74.373 72.4386C74.911 72.011 75.5732 71.7627 76.2492 71.7627C76.4009 71.7627 76.5389 71.7765 76.6907 71.7903C77.5046 71.9144 78.3323 71.9834 79.1325 71.9834C84.6508 71.9834 88.1273 68.9345 90.0035 67.3067L90.4174 66.948C90.983 66.4651 91.7003 66.203 92.4315 66.203C93.1627 66.203 93.8801 66.4651 94.4457 66.9618L94.9423 67.3894C96.7634 69.0035 100.157 71.9972 105.689 71.9972C106.503 71.9972 107.345 71.9282 108.186 71.804C108.324 71.7903 108.476 71.7765 108.614 71.7765C109.29 71.7765 109.938 72.011 110.49 72.4524C111.221 73.0457 111.676 73.9424 111.732 74.9219C112.132 82.4405 112.008 107.438 93.3972 113.55C93.0661 113.633 92.735 113.688 92.4177 113.688ZM77.9185 75.86C77.6839 75.86 77.4494 75.9427 77.2701 76.1083C77.0769 76.2876 76.9666 76.536 76.9666 76.7843C76.7872 84.9237 77.9047 104.431 92.1004 109.618C92.2108 109.659 92.3211 109.673 92.4315 109.673C92.5419 109.673 92.6523 109.659 92.7626 109.618C106.958 104.472 108.076 84.9375 107.896 76.7843C107.896 76.5222 107.786 76.2738 107.593 76.1083C107.414 75.9427 107.179 75.86 106.945 75.86C106.931 75.86 106.903 75.86 106.889 75.86C106.489 75.8876 106.089 75.9014 105.689 75.9014C99.5915 75.9014 95.5631 73.0595 93.0523 70.9211C92.873 70.7694 92.6522 70.6866 92.4315 70.6866C92.2108 70.6866 91.9901 70.7556 91.8107 70.9073C89.2723 73.0457 85.2026 75.8876 79.1877 75.8876C78.7876 75.8876 78.3875 75.8738 77.9874 75.8462C77.9599 75.86 77.9323 75.86 77.9185 75.86Z" fill="#1B2B4B"/>
<path d="M101.203 81.0056L89.9787 92.2181L86.1708 88.4102C85.8998 88.1386 85.5319 87.986 85.1482 87.986C84.7645 87.986 84.3966 88.1386 84.1256 88.4102C83.5605 88.9756 83.5605 89.8895 84.1258 90.4548L88.962 95.2909C89.5274 95.8563 90.4414 95.8563 91.0068 95.2909L103.248 83.0501C103.813 82.4848 103.813 81.5709 103.248 81.0055C102.977 80.7339 102.609 80.5813 102.225 80.5813C101.842 80.5813 101.474 80.7339 101.203 81.0055C101.203 81.0055 101.203 81.0056 101.203 81.0056Z" fill="#1B2B4B" stroke="#1B2B4B" stroke-width="0.584681"/>
</svg>
