<svg width="138" height="138" viewBox="0 0 138 138" fill="none" xmlns="http://www.w3.org/2000/svg">
<circle cx="69.1534" cy="68.7779" r="65.4842" stroke="#F2A446" stroke-width="5.84681"/>
<path d="M114.896 63.576C114.448 63.2921 113.866 63.4116 113.567 63.8598L111.401 67.221L109.085 63.8448C108.697 63.2622 107.83 63.2921 107.472 63.9046L106.277 65.9213C104.589 54.1795 95.8197 44.0362 83.3609 39.943C82.9127 39.7936 82.4197 40.0028 82.2106 40.421L75.1147 54.553C74.9504 54.8667 74.9803 55.2402 75.1894 55.539L82.9725 66.5786L67.6006 82.0401L72.8291 66.967C72.9486 66.6384 72.8739 66.2649 72.62 65.996L62.626 55.2551L69.9758 39.4202C70.2597 38.8077 69.8264 38.0906 69.1542 38.0607C67.5856 37.986 64.3589 38.3147 62.6708 38.5836L44.1917 27.6784C43.5195 27.275 42.668 27.8128 42.7576 28.6046L44.7893 48.951C42.9966 50.8183 41.4579 52.85 40.1882 55.0161C39.9342 55.4493 39.4711 55.7182 38.9632 55.7182H29.5817C28.2671 55.7182 27.1915 56.7938 27.1915 58.1084V69.7755C27.1915 70.6868 27.7293 71.5383 28.5509 71.9267C28.9842 72.1358 34.9895 75.019 36.6776 75.8406C37.7382 81.0243 40.2031 85.9092 43.8481 90.0323L36.6029 103.866C36.1398 104.747 36.4386 105.852 37.2751 106.375L42.5783 109.721C43.4 110.244 44.4905 110.05 45.103 109.288L54.111 97.9647C64.7772 103.402 77.8485 103.417 88.5446 97.9647L97.5526 109.288C98.1651 110.05 99.2407 110.244 100.077 109.721L105.38 106.39C106.217 105.867 106.516 104.762 106.053 103.88L98.8074 90.0771C103.887 84.3407 106.77 76.9759 106.546 69.2078L108.338 66.1753L110.609 69.4917C110.967 70.0295 111.819 70.0743 112.207 69.4767L115.15 64.9204C115.464 64.4573 115.33 63.8598 114.896 63.576ZM96.955 89.2704C96.6861 89.5692 96.6264 90.0024 96.8057 90.361L104.35 104.747L99.0465 108.078L89.5455 96.1422C89.2616 95.7837 88.7537 95.6791 88.3354 95.8883C77.8634 101.52 64.7772 101.535 54.2902 95.8883C53.8869 95.6642 53.379 95.7688 53.0802 96.1422L43.5792 108.078L38.276 104.747L45.82 90.361C46.0142 90.0024 45.9545 89.5692 45.6706 89.2704C42.3393 85.6553 39.994 81.3978 38.8287 76.8415L47.3139 80.5313C47.1794 80.5313 47.4334 80.5911 47.3139 80.5313C48.3447 80.5313 49.0318 79.1868 48.0907 78.7686C35.1986 73.1666 40.0537 75.3775 29.3576 70.2237C29.1933 70.149 29.0887 69.9846 29.0887 69.7904V58.1233C29.0887 57.8545 29.2979 57.6453 29.5668 57.6453H38.9184C40.0985 57.6453 41.204 57.0179 41.8015 55.9871C43.0564 53.836 44.61 51.8043 46.4325 49.9818C46.6267 49.7726 46.7313 49.5037 46.7014 49.2199L44.8341 30.3076L61.9986 40.421C62.1928 40.5406 62.4318 40.5854 62.6559 40.5406C63.7315 40.3314 65.9275 40.0924 67.5856 40.0028L60.6242 55.046C60.4599 55.4045 60.5197 55.8228 60.7886 56.1066L70.8273 66.8923L64.4187 85.3864C64.09 86.3425 65.2851 87.0894 66.0022 86.3723L84.9145 67.3405C85.2431 67.0118 85.288 66.489 85.0191 66.1155L77.1016 54.8966L83.5551 42.0195C104.499 49.4589 111.535 73.4355 96.955 89.2704Z" fill="#1B2B4B"/>
<path d="M47.3139 80.5313L38.8287 76.8415C39.994 81.3978 42.3393 85.6553 45.6706 89.2704C45.9545 89.5692 46.0142 90.0024 45.82 90.361L38.276 104.747L43.5792 108.078L53.0802 96.1422C53.379 95.7688 53.8869 95.6642 54.2902 95.8883C64.7772 101.535 77.8634 101.52 88.3354 95.8883C88.7537 95.6791 89.2616 95.7837 89.5455 96.1422L99.0465 108.078L104.35 104.747L96.8057 90.361C96.6264 90.0024 96.6861 89.5692 96.955 89.2704C111.535 73.4355 104.499 49.4589 83.5551 42.0195L77.1016 54.8966L85.0191 66.1155C85.288 66.489 85.2431 67.0118 84.9145 67.3405L66.0021 86.3723C65.2851 87.0894 64.09 86.3425 64.4187 85.3864L70.8273 66.8923L60.7886 56.1066C60.5197 55.8228 60.4599 55.4045 60.6242 55.046L67.5856 40.0028C65.9275 40.0924 63.7315 40.3314 62.6559 40.5406C62.4318 40.5854 62.1928 40.5406 61.9986 40.421L44.8341 30.3076L46.7014 49.2199C46.7313 49.5037 46.6267 49.7726 46.4325 49.9818C44.61 51.8043 43.0564 53.836 41.8015 55.9871C41.204 57.0179 40.0985 57.6453 38.9184 57.6453H29.5668C29.2979 57.6453 29.0887 57.8545 29.0887 58.1233V69.7904C29.0887 69.9846 29.1933 70.149 29.3576 70.2237C40.0537 75.3775 35.1986 73.1666 48.0907 78.7686C49.0318 79.1868 48.3447 80.5313 47.3139 80.5313ZM47.3139 80.5313C47.4334 80.5911 47.1794 80.5313 47.3139 80.5313ZM114.896 63.576C114.448 63.2921 113.866 63.4116 113.567 63.8598L111.401 67.221L109.085 63.8448C108.697 63.2622 107.83 63.2921 107.472 63.9046L106.277 65.9213C104.589 54.1795 95.8197 44.0362 83.3609 39.943C82.9127 39.7936 82.4197 40.0028 82.2106 40.421L75.1147 54.553C74.9504 54.8667 74.9803 55.2402 75.1894 55.539L82.9725 66.5786L67.6006 82.0401L72.8291 66.967C72.9486 66.6384 72.8739 66.2649 72.62 65.996L62.626 55.2551L69.9758 39.4202C70.2597 38.8077 69.8264 38.0906 69.1542 38.0607C67.5856 37.986 64.3589 38.3147 62.6708 38.5836L44.1917 27.6784C43.5195 27.275 42.668 27.8128 42.7576 28.6046L44.7893 48.951C42.9966 50.8183 41.4579 52.85 40.1882 55.0161C39.9342 55.4493 39.4711 55.7182 38.9632 55.7182H29.5817C28.2671 55.7182 27.1915 56.7938 27.1915 58.1084V69.7755C27.1915 70.6868 27.7293 71.5383 28.5509 71.9267C28.9842 72.1358 34.9895 75.019 36.6776 75.8406C37.7382 81.0243 40.2031 85.9092 43.8481 90.0323L36.6029 103.865C36.1398 104.747 36.4386 105.852 37.2751 106.375L42.5783 109.721C43.4 110.244 44.4905 110.05 45.103 109.288L54.111 97.9647C64.7772 103.402 77.8485 103.417 88.5446 97.9647L97.5526 109.288C98.1651 110.05 99.2407 110.244 100.077 109.721L105.38 106.39C106.217 105.867 106.516 104.762 106.053 103.88L98.8074 90.0771C103.887 84.3407 106.77 76.9759 106.546 69.2078L108.338 66.1753L110.609 69.4917C110.968 70.0295 111.819 70.0743 112.207 69.4767L115.15 64.9204C115.464 64.4573 115.33 63.8598 114.896 63.576Z" stroke="#1B2B4B" stroke-width="1.75404"/>
</svg>
