<svg width="137" height="138" viewBox="0 0 137 138" fill="none" xmlns="http://www.w3.org/2000/svg">
<circle cx="68.5822" cy="69.0672" r="65.4842" stroke="#F2A446" stroke-width="5.84681"/>
<path d="M74.6369 97.3947V97.4735L88.4668 103.996L88.3925 104.182C88.3928 104.182 88.3932 104.182 88.3935 104.182C89.6306 104.678 90.4344 105.884 90.4344 107.182V112.502C90.4344 114.264 88.9803 115.718 87.2187 115.718H48.1356C46.3728 115.718 44.92 114.296 44.92 112.502V107.182C44.92 105.849 45.7256 104.645 46.9578 104.183L46.9594 104.183C52.3002 102.129 55.6004 100.631 57.642 99.563C59.6788 98.4972 60.4771 97.8516 60.7975 97.4956L60.8488 97.4386V97.3618V96.4751V96.4019L60.8016 96.346C59.5722 94.8902 58.5663 93.0422 57.9167 90.9635L57.9008 90.9126L57.8617 90.8764C57.0097 90.0875 56.44 88.9807 56.2818 87.8106L56.2819 87.8106L56.281 87.8054C56.092 86.6395 56.3438 85.4403 56.9758 84.4292L57.0062 84.3806V84.3232V80.1521C57.0062 77.0454 58.0405 74.5482 59.8861 72.8266C61.7334 71.1036 64.4146 70.138 67.7429 70.138C71.139 70.138 73.8192 71.0801 75.6487 72.7896C77.4765 74.4974 78.4796 76.9936 78.4796 80.1521V84.3232V84.3781L78.5076 84.4253C79.109 85.4383 79.362 86.6082 79.2039 87.8107C79.0457 88.9808 78.476 90.0875 77.6241 90.8764L77.585 90.9126L77.5691 90.9635C76.9189 93.0441 75.9455 94.8906 74.6858 96.3441L74.6369 96.4005V96.4751V97.3947ZM48.3626 112.141V112.341H48.5626H86.5589H86.7589H86.8246V112.141H86.9589V107.477V107.34L86.8311 107.291C80.3803 104.796 76.5934 102.979 74.3563 101.573C72.1196 100.167 71.461 99.1908 71.2186 98.3879L71.2161 98.3795L71.2129 98.3714C71.1584 98.2351 71.1286 98.0641 71.1286 97.8873V95.7525C71.1286 95.2811 71.3039 94.8719 71.6284 94.5474L71.6284 94.5474L71.6322 94.5435C72.8392 93.2694 73.8061 91.5324 74.3721 89.4698C74.4907 89.0866 74.7266 88.7621 75.0531 88.5246L75.0532 88.5248L75.0604 88.519C75.4219 88.2299 75.6807 87.8278 75.7562 87.3488C75.8314 87.0011 75.7879 86.4819 75.3887 86.0062C75.1479 85.6731 75.0041 85.2886 75.0041 84.9144V80.1521C75.0041 77.9817 74.4105 76.3258 73.1766 75.2165C71.9469 74.1111 70.1162 73.5806 67.71 73.5806C65.3353 73.5806 63.5055 74.1199 62.2683 75.2287C61.0271 76.3411 60.4159 77.9962 60.4159 80.1521V84.9144C60.4159 85.3364 60.2959 85.7119 60.0403 85.9958L60.0401 85.9955L60.0328 86.0046C59.7383 86.3727 59.5879 86.8552 59.6629 87.3423C59.7357 87.8159 59.9908 88.2607 60.3684 88.5257C60.6941 88.763 60.9295 89.0872 61.0479 89.4698C61.6129 91.5286 62.5463 93.3021 63.7917 94.5474C64.1148 94.8706 64.2914 95.3121 64.2914 95.7525V97.8873C64.2914 98.0581 64.2638 98.2006 64.2031 98.3824L64.2031 98.3824L64.202 98.386C63.9746 99.1135 63.4739 100.008 61.3089 101.389C59.1381 102.774 55.3188 104.632 48.49 107.291L48.3626 107.341V107.477V112.141Z" fill="#1B2B4B" stroke="white" stroke-width="0.4"/>
<mask id="path-3-inside-1_581_2024" fill="white">
<path d="M113.559 62.3183C113.559 58.1144 110.143 54.6659 105.906 54.6659C105.282 54.6659 104.691 54.7316 104.1 54.8958C101.637 49.4439 97.9913 44.616 93.3933 40.7405C94.0501 39.8209 94.4443 38.6714 94.4443 37.4562C94.4443 34.3033 91.8825 31.7087 88.6967 31.7087C86.5291 31.7087 84.6571 32.9239 83.6718 34.6646C76.0194 31.3146 67.3817 30.4607 59.2695 32.2013C58.0214 29.6724 55.394 27.8989 52.3725 27.8989C48.1686 27.8989 44.7201 31.3146 44.7201 35.5513C44.7201 36.5038 44.8843 37.4234 45.2127 38.2773C39.2024 42.3827 34.3745 48.0973 31.3201 54.6988C28.1672 54.6659 25.6055 57.2277 25.6055 60.4134C25.6055 62.4168 26.6236 64.1904 28.2001 65.2085C27.9045 67.2119 27.7403 69.281 27.7403 71.3173C27.7403 76.2109 28.627 80.9731 30.3349 85.5054C29.7765 86.5892 29.4481 87.8044 29.4481 89.0853C29.4481 93.2892 32.8638 96.7377 37.1005 96.7377C39.9578 96.7377 42.4539 95.1612 43.7676 92.8294C45.2127 92.9279 46.6906 92.9936 48.1357 92.9936C49.1539 92.9936 50.2048 92.9608 51.223 92.8951C52.2739 92.8294 53.095 91.9426 53.0293 90.8917C52.9636 89.8407 52.2411 89.0196 51.0259 89.0853C48.924 89.2167 46.822 89.1838 44.7201 89.0525C44.7201 87.9358 44.4573 86.852 44.0304 85.8995C44.6872 85.0128 45.4426 83.7648 46.4607 82.0898C50.4347 75.5869 57.496 64.059 70.1405 53.6806C70.6988 53.6806 71.2571 53.7135 71.8155 53.7463C77.7929 59.3296 84.0659 66.3908 89.1237 74.503C87.4815 75.6854 85.6752 76.8677 83.7375 78.0501C82.8507 78.6084 82.5551 79.7908 83.1134 80.6775C83.4747 81.2687 84.0987 81.5971 84.7556 81.5971C85.084 81.5971 85.4453 81.4986 85.7409 81.3015C87.6458 80.1192 89.4521 78.9368 91.0943 77.7873C92.8349 80.9074 94.3786 84.1589 95.6266 87.5417C94.8712 88.4941 94.4443 89.7093 94.4443 91.023C94.4443 94.176 97.006 96.7706 100.192 96.7706C103.345 96.7706 105.939 94.2088 105.939 91.023C105.939 89.5123 105.348 88.1657 104.429 87.1476C106.76 81.7285 107.877 75.7839 107.647 69.8065C110.997 68.9854 113.559 65.9639 113.559 62.3183ZM86.8247 37.1606C86.9561 36.241 87.7443 35.5513 88.6967 35.5513C89.7477 35.5513 90.6016 36.4052 90.6016 37.4562C90.6016 38.1459 90.2075 38.7699 89.6492 39.0984C89.5835 39.1312 89.5178 39.1641 89.4521 39.1969C89.2222 39.2954 88.9595 39.3611 88.6967 39.3611C88.4012 39.3611 88.1056 39.2954 87.8428 39.1641C87.7771 39.0984 87.6786 39.0655 87.6129 39.0327C87.1531 38.7371 86.8575 38.2444 86.7919 37.6861C86.8247 37.5219 86.8247 37.3248 86.8247 37.1606ZM52.3725 31.7087C54.2117 31.7087 55.7553 33.0224 56.1166 34.7631C56.1166 34.7959 56.1166 34.8288 56.1166 34.8616C56.1494 35.0915 56.1822 35.3214 56.1822 35.5513C56.1822 36.6023 55.7553 37.5547 55.0656 38.2444C54.9999 38.2773 54.967 38.343 54.9014 38.4087C54.2117 39.0327 53.3249 39.394 52.3396 39.394C50.2377 39.394 48.5298 37.6861 48.5298 35.5842C48.5298 33.4822 50.2705 31.7087 52.3725 31.7087ZM30.8932 62.2526C30.8603 62.2526 30.8603 62.2526 30.8275 62.2526C30.0393 62.0227 29.4481 61.3002 29.4481 60.4134C29.4481 59.3625 30.302 58.5085 31.353 58.5085C32.404 58.5085 33.2579 59.3625 33.2579 60.4134C33.2579 61.4644 32.404 62.3183 31.353 62.3183C31.1888 62.3183 31.0246 62.2855 30.8932 62.2526ZM40.7789 90.0378C40.7461 90.1363 40.7132 90.2677 40.6804 90.3662C40.1549 91.8441 38.7426 92.8951 37.1005 92.8951C34.9985 92.8951 33.2907 91.1873 33.2907 89.0853C33.2907 88.2971 33.5206 87.5417 33.9476 86.9505C34.0133 86.8848 34.0461 86.8191 34.0789 86.7535C34.7686 85.8339 35.8853 85.2755 37.1005 85.2755C38.3157 85.2755 39.3667 85.8339 40.0892 86.6878C40.1549 86.7863 40.2206 86.8848 40.2863 86.9505C40.6804 87.5745 40.9431 88.2971 40.9431 89.0853C40.9103 89.4137 40.8446 89.7422 40.7789 90.0378ZM43.2093 80.0535C42.5853 81.0716 41.9941 82.0569 41.5014 82.8123C40.2534 81.9255 38.7426 81.4001 37.1005 81.4001C35.7211 81.4001 34.4402 81.7613 33.3236 82.4182C32.1741 78.8383 31.5829 75.0942 31.5829 71.2844C31.5829 69.5438 31.7143 67.8031 31.9442 66.0953C34.6373 65.8325 36.8049 63.6649 37.0677 60.9718C37.3632 60.8404 37.6917 60.709 38.0529 60.5776C42.6181 58.6728 52.1754 54.7316 64.0974 53.812C53.2264 63.6977 46.9205 74.0104 43.2093 80.0535ZM36.575 57.0634C36.4108 57.1291 36.2794 57.1948 36.1152 57.2605C35.7868 56.7679 35.3927 56.3409 34.9657 55.9796C37.7245 50.1336 42.0926 45.0429 47.446 41.3974C48.7926 42.514 50.5004 43.2037 52.3725 43.2037C53.8832 43.2037 55.2955 42.7768 56.4778 41.9885C59.3352 43.5978 63.1778 46.2581 67.4145 49.8052C53.2264 50.1336 41.797 54.863 36.575 57.0634ZM71.1586 47.9988C66.2979 43.8277 61.9626 40.839 59.1381 39.1312C59.6307 38.1788 59.9592 37.1278 60.0249 36.0111C67.743 34.3361 75.9208 35.2557 83.1134 38.6386C83.212 39.1969 83.409 39.6895 83.6718 40.1822C79.0409 42.5797 74.8699 45.24 71.1586 47.9988ZM74.837 50.0679C78.4169 47.5062 82.3909 45.0758 86.7919 42.8753C87.383 43.0724 88.0399 43.2037 88.6967 43.2037C89.1894 43.2037 89.682 43.138 90.1418 43.0067C94.7398 46.6522 98.3526 51.3488 100.75 56.7022C100.389 57.0634 100.028 57.4247 99.732 57.8517C91.16 53.0566 82.7193 50.7904 74.837 50.0679ZM77.9571 54.3375C84.4928 55.3228 91.357 57.4904 98.2869 61.4644C98.254 61.76 98.2212 62.0556 98.2212 62.3512C98.2212 63.7634 98.6153 65.0771 99.2722 66.1938C97.9913 67.409 95.5609 69.6094 92.2109 72.1712C87.9742 65.2742 82.9164 59.2968 77.9571 54.3375ZM100.159 92.8951C99.1079 92.8951 98.254 92.0412 98.254 90.9902C98.254 90.4319 98.4839 89.9392 98.8781 89.578C98.9766 89.5123 99.0423 89.4466 99.1079 89.3809C99.4035 89.1838 99.7648 89.0853 100.159 89.0853C100.455 89.0853 100.717 89.151 100.98 89.2824C101.046 89.3152 101.111 89.3809 101.21 89.4137C101.735 89.7422 102.064 90.3333 102.064 91.023C102.097 92.0412 101.21 92.8951 100.159 92.8951ZM100.98 85.3084C100.717 85.2755 100.455 85.2427 100.159 85.2427C99.732 85.2427 99.305 85.3084 98.9109 85.3741C97.5643 81.8927 95.9879 78.5756 94.2143 75.4555C97.9256 72.631 100.586 70.2006 101.998 68.8541C102.556 69.1825 103.148 69.4452 103.772 69.6423C104.002 75.0614 103.049 80.4148 100.98 85.3084ZM105.906 66.1281C103.804 66.1281 102.097 64.4203 102.097 62.3183C102.097 61.957 102.162 61.5958 102.261 61.2673C102.327 61.1688 102.359 61.0374 102.392 60.9389C102.688 60.1507 103.246 59.4938 103.969 59.0669C104.034 59.034 104.133 58.9683 104.199 58.9355C104.724 58.6728 105.315 58.5085 105.972 58.5085C108.074 58.5085 109.782 60.2164 109.782 62.3183C109.716 64.4203 108.008 66.1281 105.906 66.1281Z"/>
</mask>
<path d="M113.559 62.3183C113.559 58.1144 110.143 54.6659 105.906 54.6659C105.282 54.6659 104.691 54.7316 104.1 54.8958C101.637 49.4439 97.9913 44.616 93.3933 40.7405C94.0501 39.8209 94.4443 38.6714 94.4443 37.4562C94.4443 34.3033 91.8825 31.7087 88.6967 31.7087C86.5291 31.7087 84.6571 32.9239 83.6718 34.6646C76.0194 31.3146 67.3817 30.4607 59.2695 32.2013C58.0214 29.6724 55.394 27.8989 52.3725 27.8989C48.1686 27.8989 44.7201 31.3146 44.7201 35.5513C44.7201 36.5038 44.8843 37.4234 45.2127 38.2773C39.2024 42.3827 34.3745 48.0973 31.3201 54.6988C28.1672 54.6659 25.6055 57.2277 25.6055 60.4134C25.6055 62.4168 26.6236 64.1904 28.2001 65.2085C27.9045 67.2119 27.7403 69.281 27.7403 71.3173C27.7403 76.2109 28.627 80.9731 30.3349 85.5054C29.7765 86.5892 29.4481 87.8044 29.4481 89.0853C29.4481 93.2892 32.8638 96.7377 37.1005 96.7377C39.9578 96.7377 42.4539 95.1612 43.7676 92.8294C45.2127 92.9279 46.6906 92.9936 48.1357 92.9936C49.1539 92.9936 50.2048 92.9608 51.223 92.8951C52.2739 92.8294 53.095 91.9426 53.0293 90.8917C52.9636 89.8407 52.2411 89.0196 51.0259 89.0853C48.924 89.2167 46.822 89.1838 44.7201 89.0525C44.7201 87.9358 44.4573 86.852 44.0304 85.8995C44.6872 85.0128 45.4426 83.7648 46.4607 82.0898C50.4347 75.5869 57.496 64.059 70.1405 53.6806C70.6988 53.6806 71.2571 53.7135 71.8155 53.7463C77.7929 59.3296 84.0659 66.3908 89.1237 74.503C87.4815 75.6854 85.6752 76.8677 83.7375 78.0501C82.8507 78.6084 82.5551 79.7908 83.1134 80.6775C83.4747 81.2687 84.0987 81.5971 84.7556 81.5971C85.084 81.5971 85.4453 81.4986 85.7409 81.3015C87.6458 80.1192 89.4521 78.9368 91.0943 77.7873C92.8349 80.9074 94.3786 84.1589 95.6266 87.5417C94.8712 88.4941 94.4443 89.7093 94.4443 91.023C94.4443 94.176 97.006 96.7706 100.192 96.7706C103.345 96.7706 105.939 94.2088 105.939 91.023C105.939 89.5123 105.348 88.1657 104.429 87.1476C106.76 81.7285 107.877 75.7839 107.647 69.8065C110.997 68.9854 113.559 65.9639 113.559 62.3183ZM86.8247 37.1606C86.9561 36.241 87.7443 35.5513 88.6967 35.5513C89.7477 35.5513 90.6016 36.4052 90.6016 37.4562C90.6016 38.1459 90.2075 38.7699 89.6492 39.0984C89.5835 39.1312 89.5178 39.1641 89.4521 39.1969C89.2222 39.2954 88.9595 39.3611 88.6967 39.3611C88.4012 39.3611 88.1056 39.2954 87.8428 39.1641C87.7771 39.0984 87.6786 39.0655 87.6129 39.0327C87.1531 38.7371 86.8575 38.2444 86.7919 37.6861C86.8247 37.5219 86.8247 37.3248 86.8247 37.1606ZM52.3725 31.7087C54.2117 31.7087 55.7553 33.0224 56.1166 34.7631C56.1166 34.7959 56.1166 34.8288 56.1166 34.8616C56.1494 35.0915 56.1822 35.3214 56.1822 35.5513C56.1822 36.6023 55.7553 37.5547 55.0656 38.2444C54.9999 38.2773 54.967 38.343 54.9014 38.4087C54.2117 39.0327 53.3249 39.394 52.3396 39.394C50.2377 39.394 48.5298 37.6861 48.5298 35.5842C48.5298 33.4822 50.2705 31.7087 52.3725 31.7087ZM30.8932 62.2526C30.8603 62.2526 30.8603 62.2526 30.8275 62.2526C30.0393 62.0227 29.4481 61.3002 29.4481 60.4134C29.4481 59.3625 30.302 58.5085 31.353 58.5085C32.404 58.5085 33.2579 59.3625 33.2579 60.4134C33.2579 61.4644 32.404 62.3183 31.353 62.3183C31.1888 62.3183 31.0246 62.2855 30.8932 62.2526ZM40.7789 90.0378C40.7461 90.1363 40.7132 90.2677 40.6804 90.3662C40.1549 91.8441 38.7426 92.8951 37.1005 92.8951C34.9985 92.8951 33.2907 91.1873 33.2907 89.0853C33.2907 88.2971 33.5206 87.5417 33.9476 86.9505C34.0133 86.8848 34.0461 86.8191 34.0789 86.7535C34.7686 85.8339 35.8853 85.2755 37.1005 85.2755C38.3157 85.2755 39.3667 85.8339 40.0892 86.6878C40.1549 86.7863 40.2206 86.8848 40.2863 86.9505C40.6804 87.5745 40.9431 88.2971 40.9431 89.0853C40.9103 89.4137 40.8446 89.7422 40.7789 90.0378ZM43.2093 80.0535C42.5853 81.0716 41.9941 82.0569 41.5014 82.8123C40.2534 81.9255 38.7426 81.4001 37.1005 81.4001C35.7211 81.4001 34.4402 81.7613 33.3236 82.4182C32.1741 78.8383 31.5829 75.0942 31.5829 71.2844C31.5829 69.5438 31.7143 67.8031 31.9442 66.0953C34.6373 65.8325 36.8049 63.6649 37.0677 60.9718C37.3632 60.8404 37.6917 60.709 38.0529 60.5776C42.6181 58.6728 52.1754 54.7316 64.0974 53.812C53.2264 63.6977 46.9205 74.0104 43.2093 80.0535ZM36.575 57.0634C36.4108 57.1291 36.2794 57.1948 36.1152 57.2605C35.7868 56.7679 35.3927 56.3409 34.9657 55.9796C37.7245 50.1336 42.0926 45.0429 47.446 41.3974C48.7926 42.514 50.5004 43.2037 52.3725 43.2037C53.8832 43.2037 55.2955 42.7768 56.4778 41.9885C59.3352 43.5978 63.1778 46.2581 67.4145 49.8052C53.2264 50.1336 41.797 54.863 36.575 57.0634ZM71.1586 47.9988C66.2979 43.8277 61.9626 40.839 59.1381 39.1312C59.6307 38.1788 59.9592 37.1278 60.0249 36.0111C67.743 34.3361 75.9208 35.2557 83.1134 38.6386C83.212 39.1969 83.409 39.6895 83.6718 40.1822C79.0409 42.5797 74.8699 45.24 71.1586 47.9988ZM74.837 50.0679C78.4169 47.5062 82.3909 45.0758 86.7919 42.8753C87.383 43.0724 88.0399 43.2037 88.6967 43.2037C89.1894 43.2037 89.682 43.138 90.1418 43.0067C94.7398 46.6522 98.3526 51.3488 100.75 56.7022C100.389 57.0634 100.028 57.4247 99.732 57.8517C91.16 53.0566 82.7193 50.7904 74.837 50.0679ZM77.9571 54.3375C84.4928 55.3228 91.357 57.4904 98.2869 61.4644C98.254 61.76 98.2212 62.0556 98.2212 62.3512C98.2212 63.7634 98.6153 65.0771 99.2722 66.1938C97.9913 67.409 95.5609 69.6094 92.2109 72.1712C87.9742 65.2742 82.9164 59.2968 77.9571 54.3375ZM100.159 92.8951C99.1079 92.8951 98.254 92.0412 98.254 90.9902C98.254 90.4319 98.4839 89.9392 98.8781 89.578C98.9766 89.5123 99.0423 89.4466 99.1079 89.3809C99.4035 89.1838 99.7648 89.0853 100.159 89.0853C100.455 89.0853 100.717 89.151 100.98 89.2824C101.046 89.3152 101.111 89.3809 101.21 89.4137C101.735 89.7422 102.064 90.3333 102.064 91.023C102.097 92.0412 101.21 92.8951 100.159 92.8951ZM100.98 85.3084C100.717 85.2755 100.455 85.2427 100.159 85.2427C99.732 85.2427 99.305 85.3084 98.9109 85.3741C97.5643 81.8927 95.9879 78.5756 94.2143 75.4555C97.9256 72.631 100.586 70.2006 101.998 68.8541C102.556 69.1825 103.148 69.4452 103.772 69.6423C104.002 75.0614 103.049 80.4148 100.98 85.3084ZM105.906 66.1281C103.804 66.1281 102.097 64.4203 102.097 62.3183C102.097 61.957 102.162 61.5958 102.261 61.2673C102.327 61.1688 102.359 61.0374 102.392 60.9389C102.688 60.1507 103.246 59.4938 103.969 59.0669C104.034 59.034 104.133 58.9683 104.199 58.9355C104.724 58.6728 105.315 58.5085 105.972 58.5085C108.074 58.5085 109.782 60.2164 109.782 62.3183C109.716 64.4203 108.008 66.1281 105.906 66.1281Z" fill="#1B2B4B" stroke="white" stroke-width="0.8" mask="url(#path-3-inside-1_581_2024)"/>
</svg>
