<svg width="138" height="138" viewBox="0 0 138 138" fill="none" xmlns="http://www.w3.org/2000/svg">
<circle cx="68.8683" cy="68.9364" r="65.4842" stroke="#F2A446" stroke-width="5.84681"/>
<path d="M100.453 61.1331C102.391 61.1331 104.099 59.5561 104.099 57.6173V56.5756H108.656V51.2947L68.8684 26.1199L29.0806 51.2947V56.5756H33.6381V57.6173C33.6381 59.5561 35.0994 61.1331 37.0381 61.1331H40.2646V89.7369H37.0381C35.0994 89.7369 33.6381 91.314 33.6381 93.2527V94.6995H32.4806C30.5419 94.6995 29.0806 96.2766 29.0806 98.2298V103.815H108.656V98.2153C108.656 96.2766 106.949 94.6995 105.01 94.6995H104.099V93.2527C104.099 91.314 102.391 89.7369 100.453 89.7369H97.8773V61.1331H100.453ZM33.5223 53.6675H31.9887V52.8862L68.8684 29.5489L105.748 52.8862V53.6675H103.968H33.5223ZM105.01 97.6077C105.357 97.6077 105.748 97.8826 105.748 98.2298V100.921H31.9887V98.2298C31.9887 97.8826 32.1478 97.6077 32.4806 97.6077H105.01ZM100.453 92.6306C100.8 92.6306 101.19 92.9055 101.19 93.2527V94.2944H36.5462V93.2527C36.5462 92.9055 36.7054 92.6306 37.0381 92.6306H40.1488H54.2409H62.1117H75.7842H84.0745H97.747H100.453ZM43.1727 89.7225V61.5382H51.463V89.7225H43.1727ZM54.3567 89.7225V61.1331H62.2274V89.7369H54.3567V89.7225ZM65.1355 89.7225V61.5382H73.0063V89.7225H65.1355ZM75.9144 89.7225V61.1331H84.2047V89.7369H75.9144V89.7225ZM87.0984 89.7225V61.5382H94.9691V89.7225H87.0984ZM37.0381 58.225C36.6909 58.225 36.5462 57.9501 36.5462 57.6029V56.5611H101.205V57.6029C101.205 57.9501 100.8 58.225 100.467 58.225H37.0381ZM69.1432 34.8298C64.9619 34.8298 61.5619 38.2298 61.5619 42.4112C61.5619 46.5925 64.9619 49.9925 69.1432 49.9925C73.3246 49.9925 76.7246 46.5925 76.7246 42.4112C76.7391 38.2298 73.3391 34.8298 69.1432 34.8298ZM69.1432 47.0989C66.5534 47.0989 64.4555 45.001 64.4555 42.4112C64.4555 39.8213 66.5534 37.7234 69.1432 37.7234C71.7331 37.7234 73.831 39.8213 73.831 42.4112C73.831 45.001 71.7331 47.0989 69.1432 47.0989Z" fill="#1B2B4B"/>
</svg>
