<svg width="138" height="138" viewBox="0 0 138 138" fill="none" xmlns="http://www.w3.org/2000/svg">
<path d="M105.963 86.9871L104.644 77.8407C102.649 70.9041 96.2031 66.0239 88.9596 66.0239C88.2537 66.0239 87.5784 66.4229 87.2715 67.0675L76.1914 89.3198L74.7488 73.9734L77.1429 69.3694C77.6339 68.4487 77.2656 67.313 76.3448 66.8219C75.4241 66.3309 74.2884 66.6992 73.7973 67.62L71.6795 71.7021H66.2776L64.1598 67.62C63.6687 66.6992 62.5331 66.3309 61.6123 66.8219C60.6915 67.313 60.3232 68.4487 60.8143 69.3694L63.2083 73.9734L61.7658 89.3198L53.9917 67.0675C53.6847 66.4229 53.0095 66.0239 52.3036 66.0239C45.0601 66.0239 40.4878 70.8734 38.4928 77.8407L30.8196 104.574C30.5434 105.587 31.0958 106.631 32.1087 106.907C33.1215 107.183 34.1651 106.631 34.4413 105.618L42.1145 78.8842C43.5264 73.912 46.0422 70.3516 51.1372 69.8605L57.7951 89.3198L67.2905 108.871C67.5974 109.516 68.2726 109.915 68.9786 109.915C69.6845 109.915 70.3598 109.516 70.6667 108.871L90.0952 69.8605C95.1595 70.3209 99.5486 73.912 100.991 78.8842L102.311 88.0307C102.587 89.0435 103.661 89.6267 104.644 89.3198C105.656 89.0435 106.24 88 105.963 86.9871ZM68.9786 103.776L64.9885 95.7346L66.8608 75.4773H71.0964L72.9686 95.7346L68.9786 103.776Z" fill="#1B2B4B"/>
<path d="M96.6942 90.4854H85.9824C84.9389 90.4854 84.0795 91.3447 84.0795 92.3883C84.0795 93.4319 84.9389 94.2913 85.9824 94.2913H96.6942C97.7378 94.2913 98.5972 93.4319 98.5972 92.3883C98.5972 91.3447 97.7378 90.4854 96.6942 90.4854Z" fill="#1B2B4B"/>
<circle cx="69.0111" cy="68.8353" r="65.4842" stroke="#F2A446" stroke-width="5.84681"/>
<path d="M67.9151 63.2197C59.6251 63.2197 53.1415 54.3386 53.1415 42.9991C53.1291 28.9575 63.4607 27.4404 67.9151 27.4404C72.3695 27.4404 82.6887 28.9575 82.6887 42.9991C82.6887 54.3386 76.1928 63.2197 67.9151 63.2197ZM67.9151 30.5743C62.7678 30.5743 56.6431 32.7337 56.6431 42.9991C56.6431 52.2567 61.8027 60.0859 67.9151 60.0859C74.0275 60.0859 79.1871 52.2567 79.1871 42.9991C79.1871 32.7337 73.05 30.5743 67.9151 30.5743Z" fill="#1B2B4B" stroke="#1B2B4B" stroke-width="0.614546"/>
<path d="M74.6556 67.5206H82.84L91.3795 63.9507L99.5435 67.5206H109.305L110.37 83.6508L104.513 100.866L91.3795 110.628L81.6182 104.259L72.7443 82.231L74.6556 67.5206Z" fill="white"/>
<path d="M91.3232 112.132C90.99 112.132 90.6416 112.071 90.3085 111.965C69.8483 105.256 69.712 77.8143 70.1512 69.5606C70.2118 68.4853 70.7115 67.5009 71.5142 66.8497C72.1048 66.3802 72.8318 66.1076 73.5738 66.1076C73.7404 66.1076 73.8919 66.1228 74.0585 66.1379C74.952 66.2742 75.8607 66.3499 76.739 66.3499C82.7968 66.3499 86.6132 63.003 88.6729 61.216L89.1272 60.8222C89.7481 60.2921 90.5356 60.0044 91.3383 60.0044C92.1409 60.0044 92.9285 60.2921 93.5494 60.8373L94.0946 61.3068C96.0937 63.0787 99.8192 66.3651 105.892 66.3651C106.786 66.3651 107.709 66.2893 108.633 66.153C108.785 66.1379 108.951 66.1228 109.103 66.1228C109.845 66.1228 110.557 66.3802 111.162 66.8648C111.965 67.5161 112.465 68.5004 112.525 69.5757C112.965 77.8294 112.828 105.271 92.3984 111.98C92.0349 112.071 91.6715 112.132 91.3232 112.132ZM75.4063 70.6055C75.1489 70.6055 74.8914 70.6964 74.6945 70.8781C74.4825 71.075 74.3614 71.3476 74.3614 71.6202C74.1645 80.5554 75.3912 101.97 90.9748 107.664C91.096 107.709 91.2171 107.725 91.3383 107.725C91.4594 107.725 91.5806 107.709 91.7018 107.664C107.285 102.015 108.512 80.5706 108.315 71.6202C108.315 71.3325 108.194 71.0599 107.982 70.8781C107.785 70.6964 107.528 70.6055 107.27 70.6055C107.255 70.6055 107.225 70.6055 107.21 70.6055C106.771 70.6358 106.331 70.651 105.892 70.651C99.1983 70.651 94.7761 67.5312 92.0198 65.1838C91.8229 65.0172 91.5806 64.9263 91.3383 64.9263C91.096 64.9263 90.8537 65.0021 90.6568 65.1687C87.8702 67.516 83.4026 70.6358 76.7996 70.6358C76.3604 70.6358 75.9212 70.6207 75.482 70.5904C75.4518 70.6055 75.4215 70.6055 75.4063 70.6055Z" fill="#1B2B4B"/>
<path d="M103.212 76.2546C103.832 76.8753 103.832 77.8785 103.212 78.4991L89.7742 91.9367C89.1535 92.5574 88.1502 92.5574 87.5295 91.9367L82.2205 86.6277C81.5999 86.0071 81.5998 85.0038 82.2204 84.3831C82.5179 84.085 82.9217 83.9175 83.3428 83.9175C83.7639 83.9175 84.1677 84.085 84.4652 84.383C84.4653 84.3831 84.4654 84.3832 84.4654 84.3833L88.6456 88.5634L100.967 76.2547C101.264 75.9565 101.668 75.7889 102.089 75.7889C102.511 75.7889 102.914 75.9565 103.212 76.2546ZM103.212 76.2546C103.212 76.2546 103.212 76.2547 103.212 76.2547L102.985 76.4813L103.212 76.2544C103.212 76.2545 103.212 76.2545 103.212 76.2546Z" fill="#1B2B4B" stroke="#1B2B4B" stroke-width="0.641844"/>
</svg>
