<svg width="137" height="138" viewBox="0 0 137 138" fill="none" xmlns="http://www.w3.org/2000/svg">
<circle cx="68.5822" cy="69.1688" r="65.4842" stroke="#F2A446" stroke-width="5.84681"/>
<path d="M21.8971 60.0316C21.013 60.5949 20.6118 61.6776 20.9152 62.6809L34.1164 106.338C34.5556 107.79 36.2398 108.446 37.5457 107.674L55.3422 97.1478C55.7388 96.9132 56.1957 96.801 56.6558 96.8253L79.263 98.0151C79.8915 98.0482 80.5069 97.8265 80.9699 97.4002L95.7573 83.7865C96.146 83.4286 96.6445 83.2129 97.1715 83.1745L119.253 81.5667C120.903 81.4465 121.91 79.697 121.185 78.2094L103.492 41.9093C103.114 41.1354 102.342 40.6313 101.482 40.5971L81.2771 39.7935C80.6958 39.7704 80.1267 39.9648 79.681 40.3387L66.0941 51.7379C65.5796 52.1695 64.9045 52.3592 64.2405 52.2586L62.0306 51.9237C61.4415 51.8345 60.9083 52.0097 60.5861 52.5109C59.986 53.4444 60.5107 54.7672 61.6093 54.9241L63.2059 55.1522C64.0874 55.2781 64.8209 55.8937 65.0979 56.74L68.8703 68.2668C69.1076 68.9919 68.9835 69.7924 68.559 70.4264C68.4053 70.6558 68.2517 70.8812 68.0981 71.086C68.0148 71.2109 67.9315 71.3358 67.8439 71.4607C67.5241 71.9163 67.522 72.5559 67.9157 72.9496C68.3494 73.3833 69.061 73.3282 69.4191 72.8302C69.5219 72.6873 69.6291 72.54 69.7487 72.3804C69.7564 72.37 69.7671 72.3582 69.7758 72.3486C69.9136 72.1988 70.0914 72.2094 70.1551 72.4028L76.4916 91.6269C77.0062 93.1882 75.792 94.7791 74.1503 94.6947L55.8859 93.7554C55.4275 93.7318 54.9723 93.8436 54.577 94.077L39.3503 103.065C38.0397 103.839 36.351 103.174 35.9189 101.715L31.3922 86.4246C31.2397 85.9093 31.7609 85.4034 32.2742 85.5624C32.6323 85.6734 33.029 85.4855 33.1408 85.1277L33.2637 84.7343C33.4339 84.1899 33.1262 83.6123 32.5825 83.4401C32.1047 83.2887 31.6469 83.1374 31.209 82.986C30.5198 82.7478 29.9967 82.1848 29.7859 81.4868L24.4963 63.9648C24.1926 62.959 24.597 61.8742 25.4848 61.3125L35.2152 55.1565C35.9336 54.702 36.0939 53.6622 35.6286 52.9508C35.1683 52.247 34.2843 52.1389 33.5751 52.5908L21.8971 60.0316ZM72.6234 69.8386C72.4328 69.2607 72.5471 68.6256 72.9272 68.1505C73.0621 67.9818 73.1971 67.8131 73.3321 67.6444C73.6343 67.2666 73.6269 66.7278 73.3144 66.3584L72.815 65.7682C72.6301 65.5497 72.2837 65.5621 72.1015 65.7829C71.8727 66.0599 71.387 65.981 71.2756 65.6394L68.2001 56.208C67.9063 55.3067 68.1855 54.3173 68.9071 53.7026L80.8421 43.5357C81.2815 43.1614 81.8437 42.9628 82.4206 42.9781L99.4182 43.4284C100.288 43.4514 101.073 43.9554 101.456 44.7366L110.022 62.2057C110.168 62.5033 109.825 62.7742 109.554 62.5838C109.397 62.4736 109.194 62.5374 109.104 62.7066L108.701 63.4632C108.442 63.948 108.58 64.5495 109.028 64.8674C110.07 65.6058 111.166 66.3563 112.268 67.1663C112.569 67.3878 112.81 67.6814 112.973 68.0183L116.6 75.5331C117.318 77.0195 116.312 78.7614 114.666 78.8823L96.2589 80.2342C95.7426 80.2722 95.2535 80.4803 94.8682 80.8261L83.1639 91.3299C81.9084 92.4566 79.9093 91.924 79.3809 90.3221L72.6234 69.8386Z" fill="#1B2B4B" stroke="#1B2B4B" stroke-width="0.467744"/>
<path d="M33.317 39.6296C33.317 43.21 34.7236 46.2789 36.6417 48.9642C39.7106 53.3118 47.8943 67.2497 47.8943 67.2497C47.8943 67.2497 56.0781 53.4397 59.147 48.9642C61.0651 46.2789 62.4717 43.21 62.4717 39.6296C62.4717 31.5737 55.9502 25.0522 47.8943 25.0522C39.8384 25.0522 33.317 31.5737 33.317 39.6296ZM39.9663 38.4787C39.9663 34.1311 43.5467 30.5507 47.8943 30.5507C52.242 30.5507 55.8223 34.1311 55.8223 38.4787C55.8223 42.8263 52.242 46.4067 47.8943 46.4067C43.5467 46.4067 39.9663 42.8263 39.9663 38.4787Z" stroke="#1B2B4B" stroke-width="3.50808"/>
<path d="M57.0566 86.4459C56.4511 86.8257 55.6551 86.4866 55.4914 85.7908C55.3843 85.3359 55.5913 84.8676 55.9844 84.6148C56.3937 84.3516 56.803 84.0616 57.2123 83.7449C57.6637 83.3956 58.3079 83.4174 58.7115 83.821C59.1559 84.2654 59.1354 84.9943 58.6334 85.3726C58.1217 85.7581 57.5929 86.1094 57.0566 86.4459Z" fill="#1B2B4B" stroke="#1B2B4B" stroke-width="0.467744"/>
<path d="M41.7816 86.8817C41.6235 87.4193 41.0758 87.7425 40.5278 87.6259C40.0679 87.5281 39.5997 87.4302 39.1373 87.3324C38.494 87.1962 38.1266 86.5195 38.3575 85.9038C38.5468 85.399 39.0785 85.1123 39.6056 85.2253C40.0315 85.3166 40.4575 85.4032 40.8834 85.4788C41.5357 85.5944 41.9685 86.2461 41.7816 86.8817Z" fill="#1B2B4B" stroke="#1B2B4B" stroke-width="0.467744"/>
<path d="M86.1608 54.5028C86.8126 54.3774 87.3717 54.9273 87.3327 55.5899C87.3015 56.1204 86.8903 56.5447 86.3723 56.6633C85.5877 56.8428 84.8703 57.1206 84.2203 57.3989C84.2133 57.4018 84.2162 57.4032 84.2085 57.4034C84.1525 57.4051 84.0087 57.4175 83.9784 57.3703L83.1204 56.0356C83.0386 55.9084 83.1133 55.656 83.2602 55.6202C83.2969 55.6112 83.3314 55.6019 83.363 55.5813C84.1833 55.0453 85.131 54.701 86.1608 54.5028Z" fill="#1B2B4B" stroke="#1B2B4B" stroke-width="0.467744"/>
<path d="M63.8844 80.1204C63.4695 80.58 62.7562 80.577 62.3183 80.1391C61.901 79.7218 61.8797 79.053 62.254 78.5966C62.6231 78.1464 62.9805 77.6899 63.3475 77.2164C63.7654 76.6773 64.5601 76.6267 65.0424 77.109C65.4104 77.477 65.4845 78.0511 65.1892 78.4795C64.7751 79.0804 64.3345 79.6217 63.8844 80.1204Z" fill="#1B2B4B" stroke="#1B2B4B" stroke-width="0.467744"/>
<path d="M77.6852 59.3114C78.1509 58.8798 78.8757 59.0088 79.219 59.5429C79.5143 60.0023 79.4237 60.6073 79.0243 60.9796C78.6735 61.3066 78.3281 61.6483 77.996 61.9967C77.5542 62.4602 76.8018 62.4586 76.3882 61.9698C76.0389 61.557 76.0631 60.9441 76.4388 60.5552C76.844 60.1356 77.2556 59.7095 77.6852 59.3114Z" fill="#1B2B4B" stroke="#1B2B4B" stroke-width="0.467744"/>
<path d="M95.5317 55.2296C96.1671 55.4204 96.4562 56.1476 96.144 56.7331C95.8981 57.1942 95.3563 57.408 94.8585 57.2489C94.321 57.0772 93.7835 56.9193 93.246 56.8014C92.7015 56.6819 92.2913 56.2 92.324 55.6435C92.361 55.0158 92.9391 54.5606 93.5519 54.7016C94.2004 54.8507 94.8562 55.0267 95.5317 55.2296Z" fill="#1B2B4B" stroke="#1B2B4B" stroke-width="0.467744"/>
<path d="M49.4631 86.4268C49.9675 86.4323 50.4055 86.7771 50.521 87.2681C50.6815 87.9503 50.1639 88.6039 49.463 88.6039C49.4089 88.6039 49.3549 88.6039 49.3008 88.6039C48.7861 88.6039 48.2714 88.6039 47.7323 88.5796C47.0657 88.5495 46.621 87.9096 46.7738 87.26C46.9028 86.7119 47.418 86.3465 47.9801 86.379C48.5094 86.4095 49.0074 86.4218 49.4631 86.4268Z" fill="#1B2B4B" stroke="#1B2B4B" stroke-width="0.467744"/>
<path d="M103.875 59.0386C104.439 59.3346 104.645 60.0433 104.318 60.5891C104.015 61.0944 103.365 61.2682 102.85 60.9821C102.319 60.6867 101.787 60.3914 101.255 60.096C100.737 59.8081 100.545 59.1578 100.824 58.6347C101.11 58.0986 101.779 57.9018 102.312 58.1949C102.822 58.4761 103.34 58.7574 103.875 59.0386Z" fill="#1B2B4B" stroke="#1B2B4B" stroke-width="0.467744"/>
</svg>
