<svg width="137" height="138" viewBox="0 0 137 138" fill="none" xmlns="http://www.w3.org/2000/svg">
<circle cx="68.4398" cy="68.9364" r="65.4842" stroke="#F2A446" stroke-width="5.84681"/>
<path d="M92.8313 48.6538C92.8313 48.6538 85.5329 53.6994 74.9148 53.9234V71.4183C74.9148 77.1621 77.4969 82.5897 81.9628 86.1993L92.8313 95.0258L103.7 86.1993C108.152 82.5897 110.748 77.1489 110.748 71.4183V53.9234C100.13 53.6994 92.8313 48.6538 92.8313 48.6538Z" stroke="#1B2B4B" stroke-width="2.99206" stroke-miterlimit="10" stroke-linecap="round" stroke-linejoin="round"/>
<path d="M95.993 66.5703V60.2468H89.6695V66.5703H83.3461V72.8937H89.6695V79.2172H95.993V72.8937H102.316V66.5703H95.993Z" stroke="#1B2B4B" stroke-width="2.99206" stroke-miterlimit="10" stroke-linecap="round" stroke-linejoin="round"/>
<path d="M58.9689 61.9546H67.7077" stroke="#1B2B4B" stroke-width="3.50808" stroke-miterlimit="10" stroke-linecap="round" stroke-linejoin="round"/>
<path d="M58.9689 71.84H67.7077" stroke="#1B2B4B" stroke-width="3.50808" stroke-miterlimit="10" stroke-linecap="round" stroke-linejoin="round"/>
<path d="M68.4396 81.7253H58.9689" stroke="#1B2B4B" stroke-width="3.50808" stroke-miterlimit="10" stroke-linecap="round" stroke-linejoin="round"/>
<path d="M52.4956 63.1901C53.178 63.1901 53.7312 62.6369 53.7312 61.9544C53.7312 61.272 53.178 60.7188 52.4956 60.7188C51.8131 60.7188 51.2599 61.272 51.2599 61.9544C51.2599 62.6369 51.8131 63.1901 52.4956 63.1901Z" stroke="#1B2B4B" stroke-width="2.33872" stroke-miterlimit="10"/>
<path d="M52.4956 73.0755C53.178 73.0755 53.7312 72.5222 53.7312 71.8398C53.7312 71.1574 53.178 70.6041 52.4956 70.6041C51.8131 70.6041 51.2599 71.1574 51.2599 71.8398C51.2599 72.5222 51.8131 73.0755 52.4956 73.0755Z" stroke="#1B2B4B" stroke-width="2.33872" stroke-miterlimit="10"/>
<path d="M52.4956 82.9611C53.178 82.9611 53.7312 82.4079 53.7312 81.7254C53.7312 81.043 53.178 80.4897 52.4956 80.4897C51.8131 80.4897 51.2599 81.043 51.2599 81.7254C51.2599 82.4079 51.8131 82.9611 52.4956 82.9611Z" stroke="#1B2B4B" stroke-width="2.33872" stroke-miterlimit="10"/>
<path d="M83.3874 40.948V36.0053C83.3874 33.9664 81.7347 32.2982 79.6804 32.2982H77.209V26.1199H57.4383V32.2982H54.9669C52.9126 32.2982 51.2599 33.9664 51.2599 36.0053V40.948H83.3874Z" stroke="#1B2B4B" stroke-width="3.50808" stroke-miterlimit="10" stroke-linecap="round" stroke-linejoin="round"/>
<path d="M63.6167 33.5339V34.7696H71.0307V33.5339" stroke="#1B2B4B" stroke-width="3.50808" stroke-miterlimit="10" stroke-linecap="round" stroke-linejoin="round"/>
<path d="M91.1219 102.731H43.8459C42.4866 102.731 41.3745 101.619 41.3745 100.26V38.4765C41.3745 37.1172 42.4866 36.0051 43.8459 36.0051H50.3504" stroke="#1B2B4B" stroke-width="3.50808" stroke-miterlimit="10" stroke-linecap="round" stroke-linejoin="round"/>
<path d="M83.401 36.0051H90.3601C91.7194 36.0051 92.8315 37.1172 92.8315 38.4765V43.5639" stroke="#1B2B4B" stroke-width="3.50808" stroke-miterlimit="10" stroke-linecap="round" stroke-linejoin="round"/>
<path d="M92.9546 100.107C92.9546 101.467 92.9546 102.732 90.4833 102.732L85.3958 102.732" stroke="#1B2B4B" stroke-width="3.50808" stroke-miterlimit="10" stroke-linecap="round" stroke-linejoin="round"/>
</svg>
