<svg width="138" height="138" viewBox="0 0 138 138" fill="none" xmlns="http://www.w3.org/2000/svg">
<circle cx="69.0111" cy="68.9364" r="65.4842" stroke="#F2A446" stroke-width="5.84681"/>
<mask id="path-2-inside-1_567_2457" fill="white">
<path d="M75.0147 97.1975C76.2978 97.6581 77.0216 99.0728 76.5939 100.323C76.1333 101.606 74.8173 102.33 73.4684 101.902C72.5801 101.606 71.6918 101.31 70.7706 101.146C70.0139 100.915 69.1256 100.849 68.2373 100.849C66.1317 100.849 64.2235 101.507 62.1837 102.198C59.9465 102.955 57.6435 103.778 54.7812 103.909C52.0834 104.074 48.8264 103.613 45.8325 102.034C43.4308 100.751 41.1936 98.8096 39.6473 95.9144C38.759 94.3352 38.1668 92.6902 37.8707 90.9136C37.6404 89.2686 37.6404 87.5578 37.9365 85.847C38.3971 83.6098 39.1209 81.8991 40.1737 80.3857C41.1607 78.971 42.4109 77.7866 43.7598 76.7338C44.8784 75.8455 46.4576 76.0758 47.2801 77.0957C48.1026 78.2143 47.9381 79.7935 46.8195 80.616C45.8325 81.4384 44.9442 82.261 44.2862 83.2151C43.6282 84.1034 43.1018 85.222 42.8715 86.7354C42.6412 87.854 42.6412 89.0383 42.8057 90.1569C43.036 91.2755 43.3979 92.3941 43.9901 93.5127C45.0429 95.4538 46.5234 96.8027 48.1684 97.6252C50.2411 98.7438 52.5769 99.0399 54.518 98.9083C56.6894 98.8425 58.6305 98.1516 60.5716 97.4936C63.0391 96.6711 65.4079 95.8486 68.2702 95.8486C69.5533 95.8486 70.7377 96.0131 71.9221 96.3092C72.942 96.5395 73.9948 96.9014 75.0147 97.1975ZM53.7613 75.5823C52.6427 76.4706 51.1623 76.339 50.2411 75.2862C49.3528 74.2334 49.4844 72.6871 50.5371 71.7659C50.899 71.5356 51.1952 71.2395 51.5899 70.9434C51.8202 70.7131 52.1164 70.417 52.5441 69.9893C53.6626 68.8707 54.6496 67.3902 55.6695 65.9755C57.0842 63.8041 58.5647 61.7314 60.6703 60.0206C61.7231 59.1981 62.9733 58.5401 64.3222 58.0137C65.6053 57.5531 66.9213 57.257 68.2044 57.257C69.4875 57.257 70.8035 57.5531 72.0866 58.0137C73.4355 58.5401 74.6857 59.1981 75.7385 60.0206C78.1073 61.9617 80.1471 64.6595 82.2198 67.4889C83.8648 69.5945 85.5098 71.8317 87.1548 73.378C88.1089 74.365 88.1089 75.9113 87.1548 76.8983C86.2007 77.9511 84.6215 77.9511 83.6345 76.9641C81.6934 75.023 79.9826 72.72 78.2718 70.4828C76.3965 67.8837 74.4554 65.4162 72.6788 64.0015C72.0208 63.4751 71.1983 63.0145 70.3758 62.7184C69.6191 62.4223 68.8953 62.2578 68.2044 62.2578C67.5464 62.2578 66.7239 62.4223 66.033 62.7184C65.1447 63.0145 64.388 63.4751 63.73 64.0015C62.2495 65.1201 60.9664 66.9954 59.7162 68.772C58.5976 70.4828 57.479 72.1278 56.0643 73.5425C55.7682 73.8386 55.4063 74.2005 54.8799 74.6611C54.518 74.9572 54.1232 75.2533 53.7613 75.5823ZM39.746 45.3472C42.9373 45.3472 45.7009 47.058 47.7407 49.8874C49.5173 52.4536 50.6359 55.941 50.6359 59.7574C50.6359 63.5738 49.5173 66.9954 47.7407 69.5287C45.7338 72.3581 42.9702 74.0689 39.746 74.0689C36.6205 74.0689 33.7911 72.3581 31.85 69.5287C30.0405 66.9954 28.9219 63.5409 28.9219 59.7574C28.9219 55.941 30.0405 52.4536 31.8171 49.8874C33.7582 47.058 36.6205 45.3472 39.746 45.3472ZM43.6282 52.7497C42.5754 51.2692 41.2265 50.348 39.746 50.348C38.3313 50.348 36.9166 51.2363 35.8638 52.7497C34.6794 54.5263 33.8569 56.9938 33.8569 59.7574C33.8569 62.521 34.6794 64.9885 35.8638 66.6993C36.9166 68.1798 38.3313 69.1668 39.746 69.1668C41.2265 69.1668 42.5754 68.1798 43.6282 66.6993C44.9113 64.9885 45.6351 62.521 45.6351 59.7574C45.6351 56.9938 44.8784 54.5263 43.6282 52.7497ZM86.7271 59.7574C86.7271 58.3427 87.8457 57.2241 89.1946 57.2241C90.6093 57.2241 91.7279 58.3427 91.7279 59.7574C91.7279 62.521 92.4846 64.9885 93.669 66.6993C94.7218 68.1798 96.1365 69.1668 97.5512 69.1668C99.0317 69.1668 100.381 68.1798 101.499 66.6993C102.684 64.9885 103.44 62.521 103.44 59.7574C103.44 56.9938 102.684 54.5263 101.499 52.7497C100.381 51.2692 99.0317 50.348 97.5512 50.348C97.0248 50.348 96.4326 50.5125 95.9062 50.7099C95.2482 51.006 94.7218 51.5324 94.1954 52.1246C93.9651 52.3549 93.8335 52.5852 93.669 52.7826C93.4387 53.0787 93.3071 53.3748 93.1426 53.6051C92.4846 54.7895 90.9712 55.2501 89.7868 54.5921C88.6024 53.9341 88.1418 52.4207 88.8327 51.2363C89.063 50.7757 89.2933 50.4138 89.5894 50.0519C89.8197 49.69 90.1158 49.2952 90.4119 48.9333C91.366 47.8147 92.5175 46.9264 93.7019 46.3342C94.8863 45.742 96.2352 45.3472 97.5841 45.3472C100.808 45.3472 103.638 47.058 105.579 49.8874C107.355 52.4207 108.474 55.941 108.474 59.7245C108.474 63.5409 107.355 66.9625 105.579 69.4958C103.638 72.3252 100.808 74.036 97.5841 74.036C94.4586 74.036 91.6292 72.3252 89.6881 69.4958C87.8457 66.9954 86.7271 63.5409 86.7271 59.7574ZM62.7101 42.3533C62.7101 40.9386 63.8287 39.82 65.1776 39.82C66.5923 39.82 67.7109 40.9386 67.7109 42.3533C67.7109 45.7749 66.6581 48.9991 65.0131 51.3021C63.1378 53.9012 60.6045 55.4804 57.6106 55.4804C54.7154 55.4804 52.0834 53.9012 50.3069 51.3021C48.6619 48.9991 47.6091 45.7749 47.6091 42.3533C47.6091 38.833 48.6619 35.6417 50.3069 33.3387C52.1163 30.7396 54.7483 29.1604 57.6435 29.1604C59.2885 29.1604 60.769 29.6868 62.1179 30.5093C63.4668 31.3976 64.5854 32.6149 65.4737 34.0954C66.2304 35.2798 65.8356 36.7932 64.6512 37.4512C63.4668 38.2079 61.9534 37.8131 61.2296 36.6287C60.769 35.8062 60.111 35.1482 59.453 34.6876C58.9266 34.3257 58.3344 34.1612 57.6764 34.1612C56.492 34.1612 55.3076 34.9179 54.3864 36.1681C53.3336 37.7473 52.6756 39.8858 52.6756 42.3533C52.6756 44.755 53.3336 46.8935 54.3864 48.4727C55.2747 49.7558 56.492 50.5783 57.6764 50.5783C58.9595 50.5783 60.0781 49.7558 61.0322 48.4727C62.0521 46.9264 62.7101 44.755 62.7101 42.3533ZM78.8311 29.1604C81.7263 29.1604 84.3583 30.7396 86.1349 33.3387C87.7799 35.6417 88.8327 38.8659 88.8327 42.3533C88.8327 45.7749 87.7799 48.9991 86.1349 51.3021C84.3583 53.9012 81.7263 55.4804 78.8311 55.4804C75.8372 55.4804 73.2381 53.9012 71.4286 51.3021C69.7836 48.9991 68.7308 45.7749 68.7308 42.3533C68.7308 38.833 69.7836 35.6417 71.4286 33.3387C73.2381 30.7396 75.8372 29.1604 78.8311 29.1604ZM82.1211 36.1681C81.2328 34.885 80.0155 34.1612 78.8311 34.1612C77.548 34.1612 76.3636 34.9179 75.4753 36.1681C74.4225 37.7473 73.7645 39.8858 73.7645 42.3533C73.7645 44.755 74.4225 46.8935 75.4753 48.4727C76.3636 49.7558 77.548 50.5783 78.8311 50.5783C80.0155 50.5783 81.1999 49.7558 82.1211 48.4727C83.1739 46.8935 83.8319 44.755 83.8319 42.3533C83.8319 39.9187 83.1739 37.7473 82.1211 36.1681Z"/>
</mask>
<path d="M75.0147 97.1975C76.2978 97.6581 77.0216 99.0728 76.5939 100.323C76.1333 101.606 74.8173 102.33 73.4684 101.902C72.5801 101.606 71.6918 101.31 70.7706 101.146C70.0139 100.915 69.1256 100.849 68.2373 100.849C66.1317 100.849 64.2235 101.507 62.1837 102.198C59.9465 102.955 57.6435 103.778 54.7812 103.909C52.0834 104.074 48.8264 103.613 45.8325 102.034C43.4308 100.751 41.1936 98.8096 39.6473 95.9144C38.759 94.3352 38.1668 92.6902 37.8707 90.9136C37.6404 89.2686 37.6404 87.5578 37.9365 85.847C38.3971 83.6098 39.1209 81.8991 40.1737 80.3857C41.1607 78.971 42.4109 77.7866 43.7598 76.7338C44.8784 75.8455 46.4576 76.0758 47.2801 77.0957C48.1026 78.2143 47.9381 79.7935 46.8195 80.616C45.8325 81.4384 44.9442 82.261 44.2862 83.2151C43.6282 84.1034 43.1018 85.222 42.8715 86.7354C42.6412 87.854 42.6412 89.0383 42.8057 90.1569C43.036 91.2755 43.3979 92.3941 43.9901 93.5127C45.0429 95.4538 46.5234 96.8027 48.1684 97.6252C50.2411 98.7438 52.5769 99.0399 54.518 98.9083C56.6894 98.8425 58.6305 98.1516 60.5716 97.4936C63.0391 96.6711 65.4079 95.8486 68.2702 95.8486C69.5533 95.8486 70.7377 96.0131 71.9221 96.3092C72.942 96.5395 73.9948 96.9014 75.0147 97.1975ZM53.7613 75.5823C52.6427 76.4706 51.1623 76.339 50.2411 75.2862C49.3528 74.2334 49.4844 72.6871 50.5371 71.7659C50.899 71.5356 51.1952 71.2395 51.5899 70.9434C51.8202 70.7131 52.1164 70.417 52.5441 69.9893C53.6626 68.8707 54.6496 67.3902 55.6695 65.9755C57.0842 63.8041 58.5647 61.7314 60.6703 60.0206C61.7231 59.1981 62.9733 58.5401 64.3222 58.0137C65.6053 57.5531 66.9213 57.257 68.2044 57.257C69.4875 57.257 70.8035 57.5531 72.0866 58.0137C73.4355 58.5401 74.6857 59.1981 75.7385 60.0206C78.1073 61.9617 80.1471 64.6595 82.2198 67.4889C83.8648 69.5945 85.5098 71.8317 87.1548 73.378C88.1089 74.365 88.1089 75.9113 87.1548 76.8983C86.2007 77.9511 84.6215 77.9511 83.6345 76.9641C81.6934 75.023 79.9826 72.72 78.2718 70.4828C76.3965 67.8837 74.4554 65.4162 72.6788 64.0015C72.0208 63.4751 71.1983 63.0145 70.3758 62.7184C69.6191 62.4223 68.8953 62.2578 68.2044 62.2578C67.5464 62.2578 66.7239 62.4223 66.033 62.7184C65.1447 63.0145 64.388 63.4751 63.73 64.0015C62.2495 65.1201 60.9664 66.9954 59.7162 68.772C58.5976 70.4828 57.479 72.1278 56.0643 73.5425C55.7682 73.8386 55.4063 74.2005 54.8799 74.6611C54.518 74.9572 54.1232 75.2533 53.7613 75.5823ZM39.746 45.3472C42.9373 45.3472 45.7009 47.058 47.7407 49.8874C49.5173 52.4536 50.6359 55.941 50.6359 59.7574C50.6359 63.5738 49.5173 66.9954 47.7407 69.5287C45.7338 72.3581 42.9702 74.0689 39.746 74.0689C36.6205 74.0689 33.7911 72.3581 31.85 69.5287C30.0405 66.9954 28.9219 63.5409 28.9219 59.7574C28.9219 55.941 30.0405 52.4536 31.8171 49.8874C33.7582 47.058 36.6205 45.3472 39.746 45.3472ZM43.6282 52.7497C42.5754 51.2692 41.2265 50.348 39.746 50.348C38.3313 50.348 36.9166 51.2363 35.8638 52.7497C34.6794 54.5263 33.8569 56.9938 33.8569 59.7574C33.8569 62.521 34.6794 64.9885 35.8638 66.6993C36.9166 68.1798 38.3313 69.1668 39.746 69.1668C41.2265 69.1668 42.5754 68.1798 43.6282 66.6993C44.9113 64.9885 45.6351 62.521 45.6351 59.7574C45.6351 56.9938 44.8784 54.5263 43.6282 52.7497ZM86.7271 59.7574C86.7271 58.3427 87.8457 57.2241 89.1946 57.2241C90.6093 57.2241 91.7279 58.3427 91.7279 59.7574C91.7279 62.521 92.4846 64.9885 93.669 66.6993C94.7218 68.1798 96.1365 69.1668 97.5512 69.1668C99.0317 69.1668 100.381 68.1798 101.499 66.6993C102.684 64.9885 103.44 62.521 103.44 59.7574C103.44 56.9938 102.684 54.5263 101.499 52.7497C100.381 51.2692 99.0317 50.348 97.5512 50.348C97.0248 50.348 96.4326 50.5125 95.9062 50.7099C95.2482 51.006 94.7218 51.5324 94.1954 52.1246C93.9651 52.3549 93.8335 52.5852 93.669 52.7826C93.4387 53.0787 93.3071 53.3748 93.1426 53.6051C92.4846 54.7895 90.9712 55.2501 89.7868 54.5921C88.6024 53.9341 88.1418 52.4207 88.8327 51.2363C89.063 50.7757 89.2933 50.4138 89.5894 50.0519C89.8197 49.69 90.1158 49.2952 90.4119 48.9333C91.366 47.8147 92.5175 46.9264 93.7019 46.3342C94.8863 45.742 96.2352 45.3472 97.5841 45.3472C100.808 45.3472 103.638 47.058 105.579 49.8874C107.355 52.4207 108.474 55.941 108.474 59.7245C108.474 63.5409 107.355 66.9625 105.579 69.4958C103.638 72.3252 100.808 74.036 97.5841 74.036C94.4586 74.036 91.6292 72.3252 89.6881 69.4958C87.8457 66.9954 86.7271 63.5409 86.7271 59.7574ZM62.7101 42.3533C62.7101 40.9386 63.8287 39.82 65.1776 39.82C66.5923 39.82 67.7109 40.9386 67.7109 42.3533C67.7109 45.7749 66.6581 48.9991 65.0131 51.3021C63.1378 53.9012 60.6045 55.4804 57.6106 55.4804C54.7154 55.4804 52.0834 53.9012 50.3069 51.3021C48.6619 48.9991 47.6091 45.7749 47.6091 42.3533C47.6091 38.833 48.6619 35.6417 50.3069 33.3387C52.1163 30.7396 54.7483 29.1604 57.6435 29.1604C59.2885 29.1604 60.769 29.6868 62.1179 30.5093C63.4668 31.3976 64.5854 32.6149 65.4737 34.0954C66.2304 35.2798 65.8356 36.7932 64.6512 37.4512C63.4668 38.2079 61.9534 37.8131 61.2296 36.6287C60.769 35.8062 60.111 35.1482 59.453 34.6876C58.9266 34.3257 58.3344 34.1612 57.6764 34.1612C56.492 34.1612 55.3076 34.9179 54.3864 36.1681C53.3336 37.7473 52.6756 39.8858 52.6756 42.3533C52.6756 44.755 53.3336 46.8935 54.3864 48.4727C55.2747 49.7558 56.492 50.5783 57.6764 50.5783C58.9595 50.5783 60.0781 49.7558 61.0322 48.4727C62.0521 46.9264 62.7101 44.755 62.7101 42.3533ZM78.8311 29.1604C81.7263 29.1604 84.3583 30.7396 86.1349 33.3387C87.7799 35.6417 88.8327 38.8659 88.8327 42.3533C88.8327 45.7749 87.7799 48.9991 86.1349 51.3021C84.3583 53.9012 81.7263 55.4804 78.8311 55.4804C75.8372 55.4804 73.2381 53.9012 71.4286 51.3021C69.7836 48.9991 68.7308 45.7749 68.7308 42.3533C68.7308 38.833 69.7836 35.6417 71.4286 33.3387C73.2381 30.7396 75.8372 29.1604 78.8311 29.1604ZM82.1211 36.1681C81.2328 34.885 80.0155 34.1612 78.8311 34.1612C77.548 34.1612 76.3636 34.9179 75.4753 36.1681C74.4225 37.7473 73.7645 39.8858 73.7645 42.3533C73.7645 44.755 74.4225 46.8935 75.4753 48.4727C76.3636 49.7558 77.548 50.5783 78.8311 50.5783C80.0155 50.5783 81.1999 49.7558 82.1211 48.4727C83.1739 46.8935 83.8319 44.755 83.8319 42.3533C83.8319 39.9187 83.1739 37.7473 82.1211 36.1681Z" fill="#1B2B4B" stroke="white" stroke-width="0.935489" mask="url(#path-2-inside-1_567_2457)"/>
<path d="M88.9069 88.5841V90.5721H90.8948V88.5841H88.9069ZM88.9069 96.9553H90.8948V94.9674H88.9069V96.9553ZM97.2781 96.9553V94.9674H95.2902V96.9553H97.2781ZM97.2781 88.5841H95.2902V90.5721H97.2781V88.5841ZM90.8948 81.2494C90.8948 81.0556 91.0519 80.8986 91.2456 80.8986V76.9227C88.8561 76.9227 86.919 78.8598 86.919 81.2494H90.8948ZM90.8948 88.5841V81.2494H86.919V88.5841H90.8948ZM81.5722 90.5721H88.9069V86.5962H81.5722V90.5721ZM81.2214 90.9229C81.2214 90.7291 81.3785 90.5721 81.5722 90.5721V86.5962C79.1827 86.5962 77.2456 88.5333 77.2456 90.9229H81.2214ZM81.2214 94.6166V90.9229H77.2456V94.6166H81.2214ZM81.5722 94.9674C81.3785 94.9674 81.2214 94.8104 81.2214 94.6166H77.2456C77.2456 97.0061 79.1827 98.9432 81.5722 98.9432V94.9674ZM88.9069 94.9674H81.5722V98.9432H88.9069V94.9674ZM90.8948 104.29V96.9553H86.919V104.29H90.8948ZM91.2456 104.641C91.0519 104.641 90.8948 104.484 90.8948 104.29H86.919C86.919 106.679 88.8561 108.617 91.2456 108.617V104.641ZM94.9393 104.641H91.2456V108.617H94.9393V104.641ZM95.2902 104.29C95.2902 104.484 95.1331 104.641 94.9393 104.641V108.617C97.3289 108.617 99.266 106.679 99.266 104.29H95.2902ZM95.2902 96.9553V104.29H99.266V96.9553H95.2902ZM104.613 94.9674H97.2781V98.9432H104.613V94.9674ZM104.964 94.6166C104.964 94.8104 104.806 94.9674 104.613 94.9674V98.9432C107.002 98.9432 108.939 97.0061 108.939 94.6166H104.964ZM104.964 90.9229V94.6166H108.939V90.9229H104.964ZM104.613 90.5721C104.806 90.5721 104.964 90.7291 104.964 90.9229H108.939C108.939 88.5333 107.002 86.5962 104.613 86.5962V90.5721ZM97.2781 90.5721H104.613V86.5962H97.2781V90.5721ZM95.2902 81.2494V88.5841H99.266V81.2494H95.2902ZM94.9393 80.8986C95.1331 80.8986 95.2902 81.0556 95.2902 81.2494H99.266C99.266 78.8598 97.3289 76.9227 94.9393 76.9227V80.8986ZM91.2456 80.8986H94.9393V76.9227H91.2456V80.8986Z" fill="#1B2B4B"/>
</svg>
