<svg width="137" height="138" viewBox="0 0 137 138" fill="none" xmlns="http://www.w3.org/2000/svg">
<circle cx="68.4398" cy="68.6034" r="65.4842" stroke="#F2A446" stroke-width="5.84681"/>
<path d="M111.242 92.8404H94.4659L94.4363 77.1016C95.2662 76.5385 96.0665 75.916 96.8075 75.264L100.586 79.2315C100.349 79.9725 99.6074 79.2491 100.171 79.8715L101.579 77.7034C100.957 77.7034 102.024 78.1776 101.579 77.7034C101.135 78.1184 102.143 77.7034 101.579 77.7034C102.498 76.8439 104.336 77.3207 103.476 76.4315L104.995 78.0621C104.432 77.4397 102.35 76.7674 101.579 76.9453L98.4377 73.6338C101.461 70.1955 103.269 65.6903 103.269 60.7701C103.269 53.9233 99.7418 47.9064 94.4067 44.3793C94.4067 44.3496 94.4067 44.32 94.4067 44.2903V43.9643C94.4067 38.5106 89.9607 34.0646 84.507 34.0646H34.2378H34.2082C34.1785 34.0646 34.1489 34.0646 34.1193 34.0646C28.547 34.035 24.0121 38.5698 24.0121 44.1421C24.0121 44.1718 24.0121 44.1718 24.0121 44.2014C24.0121 44.2311 24.0121 44.2311 24.0121 44.2607C24.0121 44.8831 24.516 45.387 25.1384 45.387H41.9738V94.2038V94.2334C42.0627 99.6872 46.4791 104.104 51.9328 104.192H51.9624H102.143C102.143 104.192 102.143 104.192 102.172 104.192C107.537 104.163 111.924 99.8946 112.191 94.5891C112.309 94.4113 112.398 94.1742 112.398 93.937C112.398 93.3442 111.865 92.8404 111.242 92.8404ZM100.987 60.7404C100.987 70.2845 93.2211 78.0797 83.6474 78.0797C74.1034 78.0797 66.3081 70.3141 66.3081 60.7404C66.3081 51.1668 74.0737 43.4011 83.6474 43.4011C93.2211 43.4011 100.987 51.1964 100.987 60.7404ZM34.1193 36.3172C38.091 36.3172 41.381 39.3108 41.8849 43.1344H26.3536C26.8575 39.2812 30.1475 36.3172 34.1193 36.3172ZM44.2561 94.0852V44.2607C44.2561 44.2311 44.2561 44.2311 44.2561 44.2014C44.2561 44.1718 44.2561 44.1718 44.2561 44.1421C44.2561 40.9707 42.8037 38.1549 40.5215 36.2876H84.5366C88.4491 36.2876 91.6798 39.2516 92.1244 43.0158C89.5754 41.8006 86.7003 41.1189 83.7067 41.1189C72.8881 41.1189 64.1148 49.9219 64.1148 60.7108C64.1148 71.4997 72.9178 80.3027 83.7067 80.3027C86.7596 80.3027 89.6643 79.5914 92.243 78.3465L92.2726 92.7811H61.0619C60.4394 92.7811 59.9355 93.285 59.9355 93.9074C59.9355 93.937 59.9355 93.937 59.9355 93.9667C59.9355 93.9963 59.9355 93.9963 59.9355 94.026C59.9355 98.3534 56.4084 101.881 52.081 101.881C47.7536 101.94 44.2561 98.4127 44.2561 94.0852ZM102.083 101.94H58.4536C60.4987 100.28 61.8621 97.8495 62.1289 95.1226H93.2211C93.2507 95.1226 93.2803 95.1226 93.3396 95.1226C93.3693 95.1226 93.3989 95.1226 93.4582 95.1226H109.849C109.375 98.9462 106.055 101.94 102.083 101.94Z" fill="#1B2B4B"/>
<path d="M101.579 77.7034L100.171 79.8715C99.6074 79.2491 100.349 79.9725 100.586 79.2315L96.8075 75.264C96.0665 75.916 95.2662 76.5385 94.4363 77.1016L94.4659 92.8404H111.242C111.865 92.8404 112.398 93.3442 112.398 93.937C112.398 94.1742 112.309 94.4113 112.191 94.5891C111.924 99.8946 107.537 104.163 102.172 104.192C102.143 104.192 102.143 104.192 102.143 104.192H51.9624H51.9328C46.4791 104.104 42.0627 99.6872 41.9738 94.2334V94.2038V45.387H25.1384C24.516 45.387 24.0121 44.8831 24.0121 44.2607C24.0121 44.2311 24.0121 44.2311 24.0121 44.2014C24.0121 44.1718 24.0121 44.1718 24.0121 44.1421C24.0121 38.5698 28.547 34.035 34.1193 34.0646C34.1489 34.0646 34.1785 34.0646 34.2082 34.0646H34.2378H84.507C89.9607 34.0646 94.4067 38.5106 94.4067 43.9643V44.2903C94.4067 44.32 94.4067 44.3496 94.4067 44.3793C99.7418 47.9064 103.269 53.9233 103.269 60.7701C103.269 65.6903 101.461 70.1955 98.4377 73.6338L101.579 76.9453C102.35 76.7674 104.432 77.4397 104.995 78.0621L103.476 76.4315C104.336 77.3207 102.498 76.8439 101.579 77.7034ZM101.579 77.7034C102.024 78.1776 100.957 77.7034 101.579 77.7034ZM101.579 77.7034C102.143 77.7034 101.135 78.1184 101.579 77.7034ZM100.987 60.7404C100.987 70.2845 93.2211 78.0797 83.6474 78.0797C74.1034 78.0797 66.3081 70.3141 66.3081 60.7404C66.3081 51.1668 74.0737 43.4011 83.6474 43.4011C93.2211 43.4011 100.987 51.1964 100.987 60.7404ZM34.1193 36.3172C38.091 36.3172 41.381 39.3108 41.8849 43.1344H26.3536C26.8575 39.2812 30.1475 36.3172 34.1193 36.3172ZM44.2561 94.0852V44.2607C44.2561 44.2311 44.2561 44.2311 44.2561 44.2014C44.2561 44.1718 44.2561 44.1718 44.2561 44.1421C44.2561 40.9707 42.8037 38.1549 40.5215 36.2876H84.5366C88.4491 36.2876 91.6798 39.2516 92.1244 43.0158C89.5754 41.8006 86.7003 41.1189 83.7067 41.1189C72.8881 41.1189 64.1148 49.9219 64.1148 60.7108C64.1148 71.4997 72.9178 80.3027 83.7067 80.3027C86.7596 80.3027 89.6643 79.5914 92.243 78.3465L92.2726 92.7811H61.0619C60.4394 92.7811 59.9355 93.285 59.9355 93.9074C59.9355 93.937 59.9355 93.937 59.9355 93.9667C59.9355 93.9963 59.9355 93.9963 59.9355 94.026C59.9355 98.3534 56.4084 101.881 52.081 101.881C47.7536 101.94 44.2561 98.4127 44.2561 94.0852ZM102.083 101.94H58.4536C60.4987 100.28 61.8621 97.8495 62.1289 95.1226H93.2211C93.2507 95.1226 93.2804 95.1226 93.3396 95.1226C93.3693 95.1226 93.3989 95.1226 93.4582 95.1226H109.849C109.375 98.9462 106.055 101.94 102.083 101.94Z" stroke="#1B2B4B" stroke-width="1.05556"/>
<path d="M50.5396 45.1203H65.2114C65.8338 45.1203 66.3377 44.6164 66.3377 43.994C66.3377 43.3716 65.8338 42.8677 65.2114 42.8677H50.5396C49.9172 42.8677 49.4133 43.3716 49.4133 43.994C49.4133 44.6164 49.9172 45.1203 50.5396 45.1203Z" fill="#1B2B4B" stroke="#1B2B4B" stroke-width="1.05556"/>
<path d="M50.5396 53.9816H62.0695C62.692 53.9816 63.1958 53.4778 63.1958 52.8553C63.1958 52.2329 62.692 51.729 62.0695 51.729H50.5396C49.9172 51.729 49.4133 52.2329 49.4133 52.8553C49.4133 53.4778 49.9172 53.9816 50.5396 53.9816Z" fill="#1B2B4B" stroke="#1B2B4B" stroke-width="1.05556"/>
<path d="M50.5396 62.8444H60.0837C60.7061 62.8444 61.21 62.3405 61.21 61.7181C61.21 61.0957 60.7061 60.5918 60.0837 60.5918H50.5396C49.9172 60.5918 49.4133 61.0957 49.4133 61.7181C49.4133 62.3405 49.9172 62.8444 50.5396 62.8444Z" fill="#1B2B4B" stroke="#1B2B4B" stroke-width="1.05556"/>
<path d="M50.5396 71.7067H62.0695C62.692 71.7067 63.1958 71.2029 63.1958 70.5804C63.1958 69.958 62.692 69.4541 62.0695 69.4541H50.5396C49.9172 69.4541 49.4133 69.958 49.4133 70.5804C49.4133 71.2029 49.9172 71.7067 50.5396 71.7067Z" fill="#1B2B4B" stroke="#1B2B4B" stroke-width="1.05556"/>
<path d="M50.5396 80.569H68.0568C68.6792 80.569 69.1831 80.0652 69.1831 79.4427C69.1831 78.8203 68.6792 78.3164 68.0568 78.3164H50.5396C49.9172 78.3164 49.4133 78.8203 49.4133 79.4427C49.4133 80.0652 49.9172 80.569 50.5396 80.569Z" fill="#1B2B4B" stroke="#1B2B4B" stroke-width="1.05556"/>
<path d="M88.2119 88.3055C88.2119 87.6831 87.708 87.1792 87.0855 87.1792H50.5396C49.9172 87.1792 49.4133 87.6831 49.4133 88.3055C49.4133 88.9279 49.9172 89.4318 50.5396 89.4318H87.0855C87.708 89.4318 88.2119 88.9279 88.2119 88.3055Z" fill="#1B2B4B" stroke="#1B2B4B" stroke-width="1.05556"/>
<path d="M69.4498 55.7903C69.2424 56.3831 69.5684 57.0352 70.1612 57.2426C70.2798 57.2723 70.3983 57.3019 70.5465 57.3019C71.0208 57.3019 71.4654 57.0055 71.6135 56.5313C73.3919 51.4036 78.2529 47.9357 83.7066 47.9357C84.329 47.9357 84.8329 47.4319 84.8329 46.8094C84.8329 46.187 84.329 45.6831 83.7066 45.6831C77.2451 45.6831 71.5543 49.7438 69.4498 55.7903Z" fill="#1B2B4B" stroke="#1B2B4B" stroke-width="1.05556"/>
<path d="M70.8726 60.7401C70.8726 60.1176 70.3687 59.6138 69.7463 59.6138C69.1239 59.6138 68.62 60.1176 68.62 60.7401C68.62 63.4669 69.361 66.1642 70.7541 68.5057C70.9615 68.8614 71.3469 69.0689 71.7322 69.0689C71.9397 69.0689 72.1471 69.0096 72.325 68.9207C72.8585 68.5946 73.0363 67.9129 72.7103 67.3498C71.5247 65.3343 70.8726 63.052 70.8726 60.7401Z" fill="#1B2B4B" stroke="#1B2B4B" stroke-width="1.05556"/>
<path d="M83.8157 79.4141C73.4126 79.4141 64.9792 70.9807 64.9792 60.5776C64.9792 50.1746 73.4126 41.7412 83.8157 41.7412C94.2187 41.7412 102.652 50.1746 102.652 60.5776C102.652 70.9807 94.2187 79.4141 83.8157 79.4141Z" stroke="#1B2B4B" stroke-width="1.92755" stroke-miterlimit="10"/>
<path d="M97.5032 74.2646L101.019 77.7808" stroke="#1B2B4B" stroke-width="1.92755" stroke-miterlimit="10"/>
<path d="M108.853 88.0454L111.283 85.6152C111.63 85.2681 111.63 84.7473 111.283 84.4002L103.819 76.9357C103.471 76.5885 102.951 76.5885 102.604 76.9357L100.173 79.3658C99.8262 79.713 99.8262 80.2337 100.173 80.5809L107.638 88.0454C107.985 88.3925 108.506 88.3925 108.853 88.0454Z" stroke="#1B2B4B" stroke-width="1.92755" stroke-miterlimit="10"/>
</svg>
