<svg width="138" height="138" viewBox="0 0 138 138" fill="none" xmlns="http://www.w3.org/2000/svg">
<circle cx="69.0111" cy="68.7779" r="65.4842" stroke="#F2A446" stroke-width="5.84681"/>
<path d="M68.1309 63.9964C60.2437 63.9964 54.0752 55.5469 54.0752 44.7584C54.0634 31.3993 63.893 29.9559 68.1309 29.9559C72.3687 29.9559 82.1865 31.3993 82.1865 44.7584C82.1865 55.5469 76.0063 63.9964 68.1309 63.9964ZM68.1309 32.9375C63.2337 32.9375 57.4067 34.9919 57.4067 44.7584C57.4067 53.5662 62.3155 61.0149 68.1309 61.0149C73.9462 61.0149 78.8551 53.5662 78.8551 44.7584C78.8551 34.9919 73.0162 32.9375 68.1309 32.9375Z" fill="#1B2B4B" stroke="#1B2B4B" stroke-width="0.584681"/>
<path d="M38.3834 103.656C37.477 103.656 36.7236 102.915 36.7236 102.008C36.6529 93.344 37.8654 77.3343 42.892 72.2723C44.1281 71.0363 45.5996 70.3771 47.1652 70.3771H48.519C52.1094 70.3771 54.7934 70.0945 56.7593 66.4923C57.0536 65.9508 57.6069 65.6212 58.2191 65.6212C58.4898 65.6212 58.7723 65.6918 59.0195 65.8213C59.408 66.0332 59.7023 66.3864 59.82 66.8102C59.9495 67.234 59.9024 67.6813 59.6788 68.0698C56.983 73.0257 52.9217 73.7085 48.9428 73.7085C48.5896 73.7085 48.2365 73.7085 47.8951 73.6967H47.1652C46.4825 73.6967 45.8821 73.991 45.2582 74.6032C40.6201 79.2884 40.1139 97.4289 40.0786 99.489C40.0786 99.7126 40.161 99.9128 40.314 100.078C40.467 100.231 40.6789 100.325 40.8908 100.325H48.3071C48.7544 100.325 49.1194 99.9598 49.1194 99.5125V89.6006C49.1194 88.6824 49.861 87.9407 50.7792 87.9407C51.6974 87.9407 52.4391 88.6824 52.4391 89.6006V99.5125C52.4391 99.9598 52.804 100.325 53.2513 100.325H79.0696C79.9878 100.325 80.7294 101.066 80.7294 101.985C80.7294 102.903 79.9878 103.644 79.0696 103.644H38.3834V103.656Z" fill="#1B2B4B" stroke="#1B2B4B" stroke-width="0.584681"/>
<path d="M88.5876 108.422C88.2841 108.422 87.9668 108.367 87.6633 108.27C69.0254 102.159 68.9012 77.1608 69.3013 69.6422C69.3565 68.6627 69.8117 67.766 70.5429 67.1728C71.0809 66.7451 71.7431 66.4968 72.4191 66.4968C72.5709 66.4968 72.7088 66.5106 72.8606 66.5244C73.6745 66.6485 74.5023 66.7175 75.3024 66.7175C80.8207 66.7175 84.2972 63.6687 86.1734 62.0408L86.5873 61.6821C87.1529 61.1993 87.8703 60.9371 88.6014 60.9371C89.3326 60.9371 90.05 61.1993 90.6156 61.6959L91.1123 62.1236C92.9333 63.7377 96.327 66.7313 101.859 66.7313C102.673 66.7313 103.515 66.6623 104.356 66.5382C104.494 66.5244 104.646 66.5106 104.784 66.5106C105.46 66.5106 106.108 66.7451 106.66 67.1866C107.391 67.7798 107.846 68.6765 107.902 69.656C108.302 77.1746 108.177 102.172 89.5671 108.284C89.236 108.367 88.9049 108.422 88.5876 108.422ZM74.0884 70.5941C73.8539 70.5941 73.6193 70.6769 73.44 70.8424C73.2469 71.0218 73.1365 71.2701 73.1365 71.5184C72.9571 79.6579 74.0746 99.1649 88.2703 104.352C88.3807 104.394 88.4911 104.407 88.6014 104.407C88.7118 104.407 88.8222 104.394 88.9325 104.352C103.128 99.2063 104.246 79.6717 104.066 71.5184C104.066 71.2563 103.956 71.008 103.763 70.8424C103.584 70.6769 103.349 70.5941 103.114 70.5941C103.101 70.5941 103.073 70.5941 103.059 70.5941C102.659 70.6217 102.259 70.6355 101.859 70.6355C95.7614 70.6355 91.7331 67.7936 89.2222 65.6553C89.0429 65.5035 88.8222 65.4207 88.6014 65.4207C88.3807 65.4207 88.16 65.4897 87.9806 65.6415C85.4422 67.7798 81.3725 70.6217 75.3576 70.6217C74.9575 70.6217 74.5574 70.6079 74.1574 70.5803C74.1298 70.5941 74.1022 70.5941 74.0884 70.5941Z" fill="#1B2B4B"/>
<path d="M97.3724 75.7397L86.1485 86.9522L82.3406 83.1444C82.0696 82.8727 81.7017 82.7201 81.318 82.7201C80.9343 82.7201 80.5664 82.8727 80.2954 83.1444C79.7303 83.7098 79.7303 84.6236 80.2956 85.1889L85.1318 90.0251C85.6972 90.5904 86.6112 90.5904 87.1766 90.0251L99.4174 77.7842C99.9827 77.2189 99.9828 76.305 99.4175 75.7396C99.1465 75.4681 98.7786 75.3154 98.395 75.3154C98.0113 75.3154 97.6434 75.4681 97.3725 75.7396C97.3724 75.7397 97.3724 75.7397 97.3724 75.7397Z" fill="#1B2B4B" stroke="#1B2B4B" stroke-width="0.584681"/>
</svg>
