<svg width="137" height="138" viewBox="0 0 137 138" fill="none" xmlns="http://www.w3.org/2000/svg">
<circle cx="68.4398" cy="68.8353" r="65.4842" stroke="#F2A446" stroke-width="5.84681"/>
<path d="M110.709 54.1904H26.5034V98.1238H110.709V54.1904Z" stroke="#1B2B4B" stroke-width="3.66111" stroke-miterlimit="10"/>
<path d="M31.995 46.8687H105.217" stroke="#1B2B4B" stroke-width="3.66111" stroke-miterlimit="10"/>
<path d="M97.8952 39.5459H39.3174" stroke="#1B2B4B" stroke-width="3.66111" stroke-miterlimit="10"/>
<path d="M96.0647 90.8011H41.148C41.148 87.6892 38.7683 85.3094 35.6564 85.3094V67.0039C38.7683 67.0039 41.148 65.1733 41.148 61.5122H96.0647C96.0647 65.1733 98.4445 67.0039 101.556 67.0039V85.3094C98.4445 85.3094 96.0647 87.6892 96.0647 90.8011Z" stroke="#1B2B4B" stroke-width="3.66111" stroke-miterlimit="10"/>
<path d="M48.4702 76.1572H52.1313" stroke="#1B2B4B" stroke-width="3.66111" stroke-miterlimit="10"/>
<path d="M85.0813 76.1572H88.7424" stroke="#1B2B4B" stroke-width="3.66111" stroke-miterlimit="10"/>
<path d="M68.6063 83.4794C72.6502 83.4794 75.9285 80.2011 75.9285 76.1572C75.9285 72.1132 72.6502 68.835 68.6063 68.835C64.5623 68.835 61.2841 72.1132 61.2841 76.1572C61.2841 80.2011 64.5623 83.4794 68.6063 83.4794Z" stroke="#1B2B4B" stroke-width="3.66111" stroke-miterlimit="10"/>
</svg>
