<svg width="138" height="138" viewBox="0 0 138 138" fill="none" xmlns="http://www.w3.org/2000/svg">
<circle cx="68.7247" cy="69.0672" r="65.4842" stroke="#F2A446" stroke-width="5.84681"/>
<path d="M116.645 64.1948H99.715V53.2258V51.6744V42.7468C99.715 42.1752 99.2523 41.7125 98.6807 41.7125C98.1091 41.7125 97.6464 42.1752 97.6464 42.7468V46.3668C96.2038 44.8154 94.1625 43.8627 91.9033 43.8627C89.6442 43.8627 87.6028 44.8426 86.1603 46.3668V42.7468C86.1603 42.1752 85.6976 41.7125 85.126 41.7125C84.5544 41.7125 84.0917 42.1752 84.0917 42.7468V51.6744V53.2258V64.1948H77.9131V49.2792V47.265V35.5612C77.9131 34.9896 77.4504 34.5269 76.8788 34.5269C76.3072 34.5269 75.8445 34.9896 75.8445 35.5612V41.1953C74.0209 38.8546 71.1902 37.3576 68.0056 37.3576C64.8211 37.3576 61.9904 38.8546 60.1668 41.1953V35.5612C60.1668 34.9896 59.7041 34.5269 59.1325 34.5269C58.5609 34.5269 58.0982 34.9896 58.0982 35.5612V47.265V49.2792V64.1948H51.9196V53.2258V51.6744V42.7468C51.9196 42.1752 51.4569 41.7125 50.8853 41.7125C50.3137 41.7125 49.851 42.1752 49.851 42.7468V46.3668C48.4084 44.8154 46.3671 43.8627 44.108 43.8627C41.8488 43.8627 39.8075 44.8426 38.3649 46.3668V42.7468C38.3649 42.1752 37.9022 41.7125 37.3306 41.7125C36.759 41.7125 36.2963 42.1752 36.2963 42.7468V51.6744V53.2258V64.1948H20.2103C19.6387 64.1948 19.176 64.6575 19.176 65.2291V73.313C19.176 73.3402 19.176 73.3674 19.176 73.3946C19.176 73.4218 19.176 73.4763 19.176 73.5035C19.176 73.5307 19.2032 73.5579 19.2032 73.6124C19.2032 73.6396 19.2304 73.6668 19.2304 73.7212C19.2304 73.7485 19.2576 73.7757 19.2848 73.8029C19.3121 73.8301 19.3121 73.8573 19.3393 73.8846C19.3665 73.9118 19.3665 73.939 19.3937 73.9662C19.4209 73.9934 19.4481 74.0206 19.4481 74.0479C19.4754 74.0751 19.5026 74.1023 19.5298 74.1023C19.557 74.1295 19.5842 74.1567 19.6115 74.1567C19.6387 74.184 19.6659 74.2112 19.7203 74.2112C19.7475 74.2112 19.7475 74.2384 19.7748 74.2384L29.1651 78.6478V102.573C29.1651 103.144 29.6278 103.607 30.1994 103.607H106.737C107.309 103.607 107.772 103.144 107.772 102.573V78.5661L116.808 74.32C117.298 74.2384 117.679 73.8029 117.679 73.2858V65.2019C117.706 64.6575 117.216 64.1948 116.645 64.1948ZM86.1331 53.2258V51.6744C86.1331 48.5171 88.7188 45.9313 91.8761 45.9313C95.0335 45.9313 97.6192 48.5171 97.6192 51.6744V53.2258V64.1948H86.1331V53.2258ZM60.1395 49.2792V47.265C60.1395 42.9373 63.6507 39.4262 67.9784 39.4262C72.3061 39.4262 75.8173 42.9373 75.8173 47.265V49.2792V64.1948H60.1395V49.2792ZM38.3105 53.2258V51.6744C38.3105 48.5171 40.8962 45.9313 44.0535 45.9313C47.2108 45.9313 49.7966 48.5171 49.7966 51.6744V53.2258V64.1948H38.3105V53.2258ZM21.2718 66.2906H115.611V72.2787H106.737H30.1994H21.2718V66.2906ZM24.8918 74.3473H29.1651V76.3614L24.8918 74.3473ZM31.2609 101.538V74.3745H105.703V77.559C105.594 77.804 105.594 78.1034 105.703 78.3756V101.538H31.2609ZM107.799 74.3473H111.882L107.799 76.2526V74.3473Z" fill="#1B2B4B" stroke="#1B2B4B" stroke-width="0.822661"/>
<path d="M76.8244 78.7295H59.1324C58.5609 78.7295 58.0981 79.1922 58.0981 79.7638V96.122C58.0981 96.6936 58.5609 97.1563 59.1324 97.1563H76.8244C77.3959 97.1563 77.8587 96.6936 77.8587 96.122V79.7638C77.8587 79.1922 77.3959 78.7295 76.8244 78.7295ZM75.7628 95.0877H60.1395V80.8253H75.7628V95.0877Z" fill="#1B2B4B" stroke="#1B2B4B" stroke-width="0.822661"/>
<path d="M67.9784 41.3862C64.7394 41.3862 62.0992 44.0264 62.0992 47.2654V60.9834C62.0992 61.555 62.562 62.0177 63.1335 62.0177H72.8233C73.3949 62.0177 73.8576 61.555 73.8576 60.9834V47.2654C73.8576 44.0264 71.2174 41.3862 67.9784 41.3862ZM71.7617 59.9491H64.1678V47.2654C64.1678 45.1696 65.8826 43.4548 67.9784 43.4548C70.0742 43.4548 71.789 45.1696 71.789 47.2654V59.9491H71.7617Z" fill="#1B2B4B" stroke="#1B2B4B" stroke-width="0.822661"/>
<path d="M50.5587 80.8794H37.5483C36.9767 80.8794 36.514 81.3421 36.514 81.9137V93.9442C36.514 94.5158 36.9767 94.9785 37.5483 94.9785H50.5859C51.1575 94.9785 51.6202 94.5158 51.6202 93.9442V81.9137C51.6202 81.3421 51.1575 80.8794 50.5587 80.8794ZM49.5244 92.9099H38.5826V82.9752H49.5244V92.9099Z" fill="#1B2B4B" stroke="#1B2B4B" stroke-width="0.822661"/>
<path d="M98.4085 80.8794H85.3709C84.7993 80.8794 84.3366 81.3421 84.3366 81.9137V93.9442C84.3366 94.5158 84.7993 94.9785 85.3709 94.9785H98.4085C98.9801 94.9785 99.4428 94.5158 99.4428 93.9442V81.9137C99.4428 81.3421 98.9801 80.8794 98.4085 80.8794ZM97.347 92.9099H86.4052V82.9752H97.347V92.9099Z" fill="#1B2B4B" stroke="#1B2B4B" stroke-width="0.822661"/>
</svg>
