<svg width="137" height="138" viewBox="0 0 137 138" fill="none" xmlns="http://www.w3.org/2000/svg">
<circle cx="68.5822" cy="68.6034" r="65.4842" stroke="#F2A446" stroke-width="5.84681"/>
<path d="M85.1599 62.09V59.8057C85.1599 53.7142 73.7384 50.6685 68.0277 50.6685C62.3169 50.6685 50.8954 53.7142 50.8954 59.8057V62.09" stroke="#1B2B4B" stroke-width="3.2" stroke-miterlimit="10" stroke-linejoin="round"/>
<path d="M41.3773 73.5114V84.9329H50.8953C54.1314 84.9329 56.9867 87.0269 58.1289 90.0726L63.8396 115.39H55.4639L49.3724 96.3544H37.1895C32.0498 96.3544 28.0522 92.3569 28.0522 87.2172V64.3742C28.0522 60.9477 30.7173 58.2827 34.1437 58.2827H34.5244C38.1412 58.2827 41.7581 59.8056 44.2327 62.4706L50.8953 69.7042H62.3168C62.3168 69.7042 61.7457 77.3186 54.7024 77.3186C50.7049 77.3186 44.8038 77.3186 44.8038 77.3186L35.4762 67.8006" stroke="#1B2B4B" stroke-width="3.2" stroke-miterlimit="10" stroke-linejoin="round"/>
<path d="M39.4738 52.5722C35.286 52.5722 31.8595 48.9554 31.8595 44.9579V43.0543C31.8595 39.0568 35.286 35.4399 39.4738 35.4399C43.6617 35.4399 47.0882 39.0568 47.0882 43.0543V44.9579C47.0882 48.9554 43.6617 52.5722 39.4738 52.5722Z" stroke="#1B2B4B" stroke-width="3.2" stroke-miterlimit="10" stroke-linejoin="round"/>
<path d="M94.6777 73.5114V84.9329H84.7791C81.543 84.9329 78.6876 87.0269 77.5455 90.0726L71.8347 115.39H80.2105L86.302 96.3544H98.4849C103.434 96.3544 108.003 92.3569 108.003 87.2172V64.3742C108.003 60.9477 104.957 58.2827 101.531 58.2827H101.15C97.5331 58.2827 93.9163 59.8056 91.4416 62.4706L84.7791 69.7042H73.7383C73.7383 69.7042 74.3094 77.3186 81.3526 77.3186C85.3502 77.3186 90.8706 77.3186 90.8706 77.3186L100.389 67.8006" stroke="#1B2B4B" stroke-width="3.2" stroke-miterlimit="10" stroke-linejoin="round"/>
<path d="M96.5814 52.5722C100.769 52.5722 104.196 48.9554 104.196 44.9579V43.0543C104.196 39.0568 100.769 35.4399 96.5814 35.4399C92.3935 35.4399 88.967 39.0568 88.967 43.0543V44.9579C88.967 48.9554 92.3935 52.5722 96.5814 52.5722Z" stroke="#1B2B4B" stroke-width="3.2" stroke-miterlimit="10" stroke-linejoin="round"/>
<path d="M41.3774 77.3184H94.6778" stroke="#1B2B4B" stroke-width="3.2" stroke-miterlimit="10" stroke-linejoin="round"/>
<path d="M68.0275 44.9575C63.8397 44.9575 60.4132 41.3407 60.4132 37.3431V35.4395C60.4132 31.442 63.8397 27.8252 68.0275 27.8252C72.2154 27.8252 75.6419 31.442 75.6419 35.4395V37.3431C75.6419 41.3407 72.2154 44.9575 68.0275 44.9575Z" stroke="#1B2B4B" stroke-width="3.2" stroke-miterlimit="10" stroke-linejoin="round"/>
</svg>
