<svg width="138" height="138" viewBox="0 0 138 138" fill="none" xmlns="http://www.w3.org/2000/svg">
<circle cx="68.8683" cy="68.8353" r="65.4842" stroke="#F2A446" stroke-width="5.84681"/>
<path d="M53.804 27.4404V37.5415" stroke="#1B2B4B" stroke-width="3.36704" stroke-miterlimit="10"/>
<path d="M57.1711 37.5415H50.437V44.2756H57.1711V37.5415Z" stroke="#1B2B4B" stroke-width="3.36704" stroke-miterlimit="10"/>
<path d="M72.323 57.7435H63.9055V52.693L57.1714 44.2754" stroke="#1B2B4B" stroke-width="3.36704" stroke-miterlimit="10"/>
<path d="M50.437 44.2754L43.7029 52.693V57.7435H33.6018V108.249" stroke="#1B2B4B" stroke-width="3.36704" stroke-miterlimit="10"/>
<path d="M43.7029 52.6929H63.9051" stroke="#1B2B4B" stroke-width="3.36704" stroke-miterlimit="10"/>
<path d="M48.7537 59.4272H55.4877" stroke="#1B2B4B" stroke-width="3.36704" stroke-miterlimit="10"/>
<path d="M48.7537 66.1611H53.8042" stroke="#1B2B4B" stroke-width="3.36704" stroke-miterlimit="10"/>
<path d="M48.7537 72.895H53.8042" stroke="#1B2B4B" stroke-width="3.36704" stroke-miterlimit="10"/>
<path d="M48.7537 79.6294H53.8042" stroke="#1B2B4B" stroke-width="3.36704" stroke-miterlimit="10"/>
<path d="M48.7537 86.3633H55.4877" stroke="#1B2B4B" stroke-width="3.36704" stroke-miterlimit="10"/>
<path d="M48.7537 93.0977H57.1713" stroke="#1B2B4B" stroke-width="3.36704" stroke-miterlimit="10"/>
<path d="M38.6526 66.1611H45.3867" stroke="#1B2B4B" stroke-width="3.36704" stroke-miterlimit="10"/>
<path d="M38.6526 72.895H45.3867" stroke="#1B2B4B" stroke-width="3.36704" stroke-miterlimit="10"/>
<path d="M38.6526 79.6294H45.3867" stroke="#1B2B4B" stroke-width="3.36704" stroke-miterlimit="10"/>
<path d="M38.6526 86.3633H45.3867" stroke="#1B2B4B" stroke-width="3.36704" stroke-miterlimit="10"/>
<path d="M38.6526 93.0977H45.3867" stroke="#1B2B4B" stroke-width="3.36704" stroke-miterlimit="10"/>
<path d="M48.7537 99.8315H57.1713" stroke="#1B2B4B" stroke-width="3.36704" stroke-miterlimit="10"/>
<path d="M38.6526 99.8315H45.3867" stroke="#1B2B4B" stroke-width="3.36704" stroke-miterlimit="10"/>
<path d="M48.7537 106.565H57.1713" stroke="#1B2B4B" stroke-width="3.36704" stroke-miterlimit="10"/>
<path d="M38.6526 106.565H45.3867" stroke="#1B2B4B" stroke-width="3.36704" stroke-miterlimit="10"/>
<path d="M80.4036 86.3633C74.4902 86.1949 68.5558 85.6478 62.6845 84.7218C60.4749 84.3851 58.8335 82.428 58.8335 80.1553V64.4775H111.023V80.1553C111.023 82.428 109.381 84.3641 107.172 84.7218C101.3 85.6478 95.3869 86.1949 89.4525 86.3633" stroke="#1B2B4B" stroke-width="3.36704" stroke-miterlimit="10"/>
<path d="M77.3735 64.4782V57.7441H92.5252V64.4782" stroke="#1B2B4B" stroke-width="3.36704" stroke-miterlimit="10"/>
<path d="M89.1581 82.9961H80.7405V91.4137H89.1581V82.9961Z" stroke="#1B2B4B" stroke-width="3.36704" stroke-miterlimit="10"/>
<path d="M107.677 84.6797V106.565H62.2217V84.6797" stroke="#1B2B4B" stroke-width="3.36704" stroke-miterlimit="10"/>
</svg>
