<svg width="138" height="138" viewBox="0 0 138 138" fill="none" xmlns="http://www.w3.org/2000/svg">
<circle cx="68.7247" cy="69.1688" r="65.4842" stroke="#F2A446" stroke-width="5.84681"/>
<path d="M72.7744 34.7914C72.7744 28.088 67.7968 22.6577 61.6566 22.6625C55.5164 22.6673 50.5388 28.1053 50.5388 34.8087C50.5388 41.5121 55.5164 46.9424 61.6566 46.9376C67.7968 46.9329 72.7744 41.4948 72.7744 34.7914Z" stroke="#1B2B4B" stroke-width="3.50808" stroke-miterlimit="10" stroke-linecap="round" stroke-linejoin="round"/>
<path d="M97.0851 48.5749C97.0851 43.0411 93.0515 38.5582 88.0758 38.5621C83.1 38.566 79.0664 43.0551 79.0664 48.5889C79.0664 54.1226 83.1 58.6055 88.0758 58.6016C93.0515 58.5978 97.0851 54.1086 97.0851 48.5749Z" stroke="#1B2B4B" stroke-width="3.50808" stroke-miterlimit="10" stroke-linecap="round" stroke-linejoin="round"/>
<path d="M74.7975 80.7237C74.7975 75.8911 71.2975 71.9739 66.9802 71.9744C62.6628 71.9748 59.1628 75.8927 59.1628 80.7253C59.1628 85.5578 62.6628 89.475 66.9802 89.4745C71.2975 89.4741 74.7975 85.5562 74.7975 80.7237Z" stroke="#1B2B4B" stroke-width="3.50808" stroke-miterlimit="10" stroke-linecap="round" stroke-linejoin="round"/>
<path d="M73.1921 49.8289C73.1921 49.8289 67.4009 52.8563 62.9155 53.0781C58.4301 53.2999 53.6143 51.4741 52.0142 50.9377C46.7391 49.1687 40.4523 51.6907 37.9954 56.6781L28.8078 75.3536C28.3949 76.1994 28.1936 77.0969 28.1936 77.9685C28.1936 78.9123 28.4207 79.8407 28.8388 80.671C29.0556 81.0836 29.3085 81.4859 29.6234 81.8418L29.6388 81.8728" stroke="#1B2B4B" stroke-width="3.50808" stroke-miterlimit="10" stroke-linecap="round" stroke-linejoin="round"/>
<path d="M47.7767 63.7698L41.0253 77.5095" stroke="#1B2B4B" stroke-width="3.50808" stroke-miterlimit="10" stroke-linecap="round" stroke-linejoin="round"/>
<path d="M41.0252 77.5095L52.0142 93.8796L52.36 94.3799C54.2078 97.1082 53.4749 100.811 50.7289 102.658C50.3005 102.941 49.8411 103.174 49.3714 103.328C48.7417 103.555 48.0707 103.658 47.4255 103.658C45.4951 103.658 43.606 102.745 42.4601 101.013L29.6336 81.8728L29.6181 81.8419L28.8336 80.6711" stroke="#1B2B4B" stroke-width="3.50808" stroke-miterlimit="10" stroke-linecap="round" stroke-linejoin="round"/>
<path d="M106.128 92.0384L106.458 91.8373C107.847 90.8625 108.662 89.2636 108.662 87.5926C108.662 86.9634 108.549 86.3084 108.291 85.6791L103.955 74.8276" stroke="#1B2B4B" stroke-width="3.50808" stroke-miterlimit="10" stroke-linecap="round" stroke-linejoin="round"/>
<path d="M68.4796 67.1584C70.7972 61.5573 75.2929 61.3819 78.2556 62.6146L78.2866 62.6301C81.8223 64.0897 85.6109 64.8323 89.4201 64.8323C90.6485 64.8323 91.8822 64.7601 93.1106 64.6054C95.2011 64.3321 97.245 64.8633 98.8916 65.9928" stroke="#1B2B4B" stroke-width="3.50808" stroke-miterlimit="10" stroke-linecap="round" stroke-linejoin="round"/>
<path d="M97.085 85.4883L93.9055 77.5095" stroke="#1B2B4B" stroke-width="3.50808" stroke-miterlimit="10" stroke-linecap="round" stroke-linejoin="round"/>
<path d="M97.085 85.488L83.0198 94.0805C82.8339 94.194 82.6636 94.3075 82.5036 94.4519C80.4854 96.0404 79.928 98.9389 81.301 101.188C82.0597 102.446 83.2624 103.246 84.594 103.534C84.9657 103.622 85.3373 103.663 85.7244 103.663C86.638 103.663 87.5723 103.421 88.4136 102.905L106.128 92.0381L106.458 91.837" stroke="#1B2B4B" stroke-width="3.50808" stroke-miterlimit="10" stroke-linecap="round" stroke-linejoin="round"/>
<path d="M99.573 72.8011L98.933 71.9397C97.2658 69.7014 97.7355 66.5346 99.9756 64.8739L100.564 64.4355C104.007 62.3519 110.634 71.3363 107.233 73.4045L106.644 73.8429C104.404 75.5036 101.24 75.0394 99.573 72.8011Z" stroke="#1B2B4B" stroke-width="3.50808" stroke-miterlimit="10" stroke-linecap="round" stroke-linejoin="round"/>
<path d="M52.0142 93.8796C53.4027 92.6366 55.2454 91.8784 57.279 91.8784C58.5075 91.8784 59.7566 92.1363 60.856 92.7346C62.6729 93.7093 64.7633 94.2664 66.9776 94.2664C69.1971 94.2664 71.2824 93.7093 73.0992 92.7346C74.1986 92.1363 75.4323 91.8784 76.6762 91.8784C78.9783 91.8784 81.0687 92.8635 82.4984 94.452" stroke="#1B2B4B" stroke-width="3.50808" stroke-miterlimit="10" stroke-linecap="round" stroke-linejoin="round"/>
<path d="M84.5941 109.208V103.535" stroke="#1B2B4B" stroke-width="3.50808" stroke-miterlimit="10" stroke-linecap="round" stroke-linejoin="round"/>
<path d="M49.3663 109.208V103.333" stroke="#1B2B4B" stroke-width="3.50808" stroke-miterlimit="10" stroke-linecap="round" stroke-linejoin="round"/>
<path d="M57.2429 109.203V104.102" stroke="#1B2B4B" stroke-width="3.50808" stroke-miterlimit="10" stroke-linecap="round" stroke-linejoin="round"/>
<path d="M76.7175 109.203V104.102" stroke="#1B2B4B" stroke-width="3.50808" stroke-miterlimit="10" stroke-linecap="round" stroke-linejoin="round"/>
</svg>
