<svg width="138" height="138" viewBox="0 0 138 138" fill="none" xmlns="http://www.w3.org/2000/svg">
<circle cx="69.1534" cy="68.6034" r="65.4842" stroke="#F2A446" stroke-width="5.84681"/>
<path d="M77.0835 40.0232L72.0763 46.6995H97.1124V40.0232L98.7815 35.016L70.4072 30.0088C70.4072 32.6793 74.5799 39.1887 77.0835 40.0232Z" stroke="#1B2B4B" stroke-width="3.6" stroke-miterlimit="10" stroke-linejoin="round"/>
<path d="M77.0835 40.0229H97.1124" stroke="#1B2B4B" stroke-width="3.6" stroke-miterlimit="10"/>
<path d="M75.4144 46.6997V51.3731C75.4144 57.048 80.2547 61.7214 86.2634 61.7214C92.2721 61.7214 97.1124 57.048 97.1124 51.3731V46.6997" stroke="#1B2B4B" stroke-width="3.6" stroke-miterlimit="10"/>
<path d="M105.458 101.779V78.4119C105.458 72.904 100.951 68.3975 95.4434 68.3975H74.5799C71.9094 68.3975 69.5727 69.5658 67.9036 71.7356L60.3928 83.4191L48.3754 84.7544C46.7064 84.9213 45.3711 86.4235 45.3711 88.0926V90.0954C45.3711 91.0969 46.0387 91.7645 47.0402 91.7645H62.0618C63.7309 91.7645 65.4 91.7645 67.236 89.4278L72.0763 81.7501V105.117" stroke="#1B2B4B" stroke-width="3.6" stroke-miterlimit="10" stroke-linecap="round" stroke-linejoin="round"/>
<path d="M97.1124 81.75V105.117" stroke="#1B2B4B" stroke-width="3.6" stroke-miterlimit="10" stroke-linecap="round" stroke-linejoin="round"/>
<path d="M93.7743 68.3975L73.7454 96.7717H97.1124" stroke="#1B2B4B" stroke-width="3.6" stroke-miterlimit="10" stroke-linejoin="round"/>
<path d="M60.3928 106.786H42.033C39.1956 106.786 37.0258 104.616 37.0258 101.779V98.4409H65.4V101.779C65.4 104.616 63.2302 106.786 60.3928 106.786Z" stroke="#1B2B4B" stroke-width="3.6" stroke-miterlimit="10" stroke-linecap="round"/>
<path d="M28.6803 93.4335V75.0736C28.6803 72.2362 30.8501 70.0664 33.6875 70.0664H37.0257V98.4407H33.6875C30.8501 98.4407 28.6803 96.2709 28.6803 93.4335Z" stroke="#1B2B4B" stroke-width="3.6" stroke-miterlimit="10" stroke-linecap="round"/>
</svg>
