<svg width="138" height="138" viewBox="0 0 138 138" fill="none" xmlns="http://www.w3.org/2000/svg">
<circle cx="68.7246" cy="69.3714" r="65.4842" stroke="#F2A446" stroke-width="5.84681"/>
<path d="M60.146 86.3519H55.7214V75.4604" stroke="#1B2B4B" stroke-width="3.63048" stroke-miterlimit="10"/>
<path d="M55.7214 55.4923V37.3398H110.179V86.3514H104.846" stroke="#1B2B4B" stroke-width="3.63048" stroke-miterlimit="10"/>
<path d="M39.3842 55.4923C43.5366 55.4923 46.6452 52.0206 46.6452 47.7094V45.1227C46.6452 40.8115 43.5366 37.3398 39.3842 37.3398C35.2318 37.3398 32.1232 40.8115 32.1232 45.1227V47.7094C32.1232 52.0206 35.2318 55.4923 39.3842 55.4923Z" stroke="#1B2B4B" stroke-width="3.63048" stroke-miterlimit="10"/>
<path d="M48.4604 88.1666V71.8294C48.4604 71.8294 57.4685 68.7889 59.3518 68.199C62.7327 67.1325 64.7976 64.9769 64.7976 60.938C61.9613 60.938 40.9045 60.938 37.5689 60.938C31.0568 60.938 26.6775 63.6835 26.6775 71.8294V88.1666" stroke="#1B2B4B" stroke-width="3.63048" stroke-miterlimit="10"/>
<path d="M82.95 107.317V103.686C82.95 96.3797 77.4588 94.6099 73.5107 94.6099H68.7911C64.8429 94.6099 59.3518 96.3797 59.3518 103.686V107.317" stroke="#1B2B4B" stroke-width="3.63048" stroke-miterlimit="10" stroke-linejoin="round"/>
<path d="M71.151 75.4604C67.7701 75.4604 64.7976 77.8656 64.7976 81.2692V84.1736C64.7976 87.5772 67.7701 89.9824 71.151 89.9824C74.5318 89.9824 77.5043 87.5772 77.5043 84.1736V81.2692C77.5043 77.8656 74.5318 75.4604 71.151 75.4604Z" stroke="#1B2B4B" stroke-width="3.63048" stroke-miterlimit="10" stroke-linejoin="round"/>
<path d="M106.548 107.317V103.686C106.548 96.3797 101.057 94.6099 97.1089 94.6099H92.3893C88.4411 94.6099 82.95 96.3797 82.95 103.686V107.317" stroke="#1B2B4B" stroke-width="3.63048" stroke-miterlimit="10" stroke-linejoin="round"/>
<path d="M94.749 75.4604C91.3682 75.4604 88.3957 77.8656 88.3957 81.2692V84.1736C88.3957 87.5772 91.3682 89.9824 94.749 89.9824C98.1299 89.9824 101.102 87.5772 101.102 84.1736V81.2692C101.102 77.8656 98.1299 75.4604 94.749 75.4604Z" stroke="#1B2B4B" stroke-width="3.63048" stroke-miterlimit="10" stroke-linejoin="round"/>
<path d="M65.4424 48.6677H100.458C101.189 48.6677 101.78 48.164 101.78 47.5419C101.78 46.9197 101.189 46.416 100.458 46.416H65.4424C64.7115 46.416 64.1198 46.9197 64.1198 47.5419C64.1198 48.164 64.6767 48.6677 65.4424 48.6677Z" fill="#1B2B4B" stroke="#1B2B4B"/>
<path d="M92.9239 55.4819H72.9469C72.3354 55.4819 71.8403 55.9856 71.8403 56.6078C71.8403 57.2299 72.3354 57.7336 72.9469 57.7336H92.953C93.5646 57.7336 94.0596 57.2299 94.0596 56.6078C94.0596 55.9856 93.5355 55.4819 92.9239 55.4819Z" fill="#1B2B4B" stroke="#1B2B4B"/>
<path d="M92.9239 64.5776H72.9469C72.3354 64.5776 71.8403 65.0813 71.8403 65.7035C71.8403 66.3257 72.3354 66.8293 72.9469 66.8293H92.953C93.5646 66.8293 94.0596 66.3257 94.0596 65.7035C94.0596 65.0813 93.5355 64.5776 92.9239 64.5776Z" fill="#1B2B4B" stroke="#1B2B4B"/>
</svg>
