<svg width="138" height="138" viewBox="0 0 138 138" fill="none" xmlns="http://www.w3.org/2000/svg">
<circle cx="69.0111" cy="68.6034" r="65.4842" stroke="#F2A446" stroke-width="5.84681"/>
<path d="M124.054 71.489L106.414 40.1716C105.816 39.1099 104.691 38.4414 103.48 38.4414C102.867 38.4414 102.269 38.6066 101.75 38.929L94.5852 43.294C93.0123 44.2534 92.4696 46.3533 93.3819 47.9735L94.3729 49.743C93.0437 50.1835 91.7461 50.4509 90.6922 50.3644C89.5439 50.27 88.0575 49.9239 86.343 49.515C83.3544 48.815 79.6344 47.942 75.5919 47.942H75.3088C69.3709 47.9971 59.0759 48.5633 56.8345 51.7171C56.5435 52.1261 56.1896 52.6215 55.8121 53.1406C55.2222 53.0384 54.593 52.944 53.9088 52.8417C51.9426 52.5508 49.245 52.1496 48.3091 51.6148C47.5305 51.1744 46.1148 50.3014 44.6834 49.4049L45.4935 47.9735C46.4058 46.3533 45.871 44.2534 44.2981 43.294L37.1333 38.929C36.6142 38.6144 36.0086 38.4414 35.4031 38.4414C34.1919 38.4414 33.0672 39.102 32.4695 40.1716L14.8289 71.489C13.9166 73.1092 14.4592 75.2091 16.0243 76.1686L23.1891 80.5335C23.7082 80.8481 24.3059 81.0211 24.9194 81.0211C26.1305 81.0211 27.2552 80.3605 27.8608 79.2909L29.2764 76.7742L30.5584 78.1977C30.7629 78.4493 31.9662 79.9515 33.6099 82.0042L33.1223 82.6727C31.2977 85.1501 31.9347 88.9173 34.5379 91.0565C35.5761 91.9138 36.8266 92.425 38.0928 92.5272C37.9512 94.517 38.8085 96.6483 40.5309 98.0719C41.6948 99.0314 43.1184 99.5583 44.5419 99.5583C44.9037 99.5583 45.2497 99.519 45.5879 99.4561C45.9182 100.809 46.689 102.099 47.8608 103.066C49.0248 104.025 50.4562 104.552 51.8797 104.552C52.4774 104.552 53.0594 104.458 53.6021 104.277C53.9796 105.48 54.7031 106.621 55.7649 107.486C56.9288 108.445 58.3602 108.972 59.7759 108.972C61.5061 108.972 63.0633 108.202 64.0543 106.857L64.943 105.653C68.6473 106.943 70.9517 107.384 71.4078 107.462C71.8325 107.565 73.3268 107.895 75.0807 107.895C76.4806 107.895 78.0299 107.683 79.3355 106.983C81.2624 105.944 82.6466 104.206 83.3858 103.097C84.6285 103.16 86.5711 103.074 87.9789 102.154C89.8349 100.942 90.4877 98.8269 90.7158 97.2933C92.0528 97.2382 93.8302 96.9472 95.065 95.9405C96.7795 94.5485 97.33 92.7238 97.4559 91.2531C99.6108 91.4026 102.206 90.7891 103.685 88.0758C104.77 86.0781 104.762 84.0018 103.732 82.1143C104.573 81.6267 105.58 80.9503 106.665 79.9594C107.373 79.3145 107.892 78.7797 108.341 78.2999C108.789 77.828 109.19 77.4112 109.717 76.9629L111.015 79.2751C111.612 80.3447 112.745 81.0054 113.948 81.0054C114.562 81.0054 115.159 80.8402 115.678 80.5178L122.843 76.1528C124.424 75.2091 124.959 73.1092 124.054 71.489ZM96.3784 46.2354L103.457 41.9176L121.066 73.2272L113.988 77.5449L96.3784 46.2354ZM105.855 75.9484C105.423 76.4045 104.975 76.8685 104.361 77.4269C103.181 78.5044 102.112 79.1336 101.412 79.4718C101.404 79.4718 101.396 79.4796 101.388 79.4875L99.6423 78.0482L99.6108 78.0246C99.5086 77.9381 97.9435 76.6247 94.6403 74.1867C92.391 72.5193 89.3473 70.3329 85.3678 67.6275C84.8565 67.2814 83.1656 66.1882 82.851 65.9916C76.9839 62.3345 69.8113 58.7403 69.4652 58.5673C69.2214 58.4493 68.9619 58.3864 68.6945 58.3864C68.5215 58.3864 68.3406 58.41 68.1754 58.465L63.6768 59.8964C63.2836 60.0223 62.9454 60.2897 62.7252 60.6436C62.6858 60.7065 58.7692 67.0612 52.9808 67.5095C52.7055 67.5409 52.4459 67.5488 52.21 67.5488C51.6044 67.5488 51.3842 67.4466 51.3763 67.4544C51.3527 67.3915 51.2112 66.9432 51.5966 65.559C52.7605 63.2704 59.0051 54.6034 59.3669 54.0844C59.4613 53.9585 59.5635 53.817 59.6422 53.699C60.4287 52.6451 66.6575 51.4497 75.3402 51.371H75.5919C79.2333 51.371 82.5915 52.1575 85.5486 52.8575C87.4047 53.29 89.0013 53.6675 90.4012 53.7855C92.1236 53.9271 94.1369 53.4552 96.0717 52.7552L107.995 73.9271C107.9 74.0136 106.382 75.39 105.855 75.9484ZM24.8958 77.5449L17.8254 73.18L35.4266 41.9176L42.497 46.2826L24.8958 77.5449ZM61.2859 104.82C60.8219 105.449 60.1455 105.536 59.7759 105.536C59.1467 105.536 58.5018 105.284 57.9513 104.836C57.1333 104.159 56.7086 103.168 56.748 102.272C56.7637 101.855 56.8817 101.469 57.1176 101.147L57.4165 100.738L58.4861 99.283L60.6882 96.2944C61.1522 95.6653 61.8364 95.5709 62.1982 95.5709C62.8274 95.5709 63.4723 95.8226 64.0228 96.2708C65.2183 97.2539 65.6037 98.9449 64.8565 99.9594L63.7004 101.524L61.5848 104.395L61.2859 104.82ZM51.8797 101.116C51.2505 101.116 50.6056 100.864 50.0472 100.408C49.3 99.7943 48.8675 98.8977 48.836 98.0719C48.8282 97.7966 48.8675 97.5292 48.9461 97.2775C49.0091 97.0809 49.0956 96.8843 49.2214 96.7191L50.464 95.0282L55.1829 88.6342C55.3244 88.4454 55.4739 88.3117 55.639 88.2095C56.0244 87.9657 56.4334 87.9106 56.6929 87.9106C57.3221 87.9106 57.967 88.1623 58.5175 88.6106C59.7208 89.5937 60.0983 91.2846 59.3512 92.2991L55.3402 97.7416L53.3819 100.4C53.3425 100.455 53.3032 100.494 53.256 100.541C52.8156 101.037 52.21 101.116 51.8797 101.116ZM41.6634 92.1183C41.7184 91.9846 41.7892 91.8509 41.8836 91.725L43.6532 89.3263L43.7397 89.2083L45.2183 87.2028C45.2261 87.1949 45.2261 87.1871 45.234 87.1792L49.2765 81.6975C49.7405 81.0683 50.4247 80.9739 50.7943 80.9739C51.4235 80.9739 52.0684 81.2256 52.619 81.6817C53.8223 82.6648 54.1998 84.3558 53.4526 85.3703L53.1302 85.8107C52.8628 86.0467 52.619 86.3062 52.4066 86.5972L47.6249 93.0856L46.4451 94.6822C46.2485 94.9496 46.0834 95.2406 45.9418 95.5394C45.8238 95.6653 45.698 95.7675 45.5643 95.8461C45.1868 96.0742 44.7936 96.1214 44.5419 96.1214C43.9206 96.1214 43.2678 95.8697 42.7173 95.4215C41.6634 94.5485 41.2466 93.1328 41.6634 92.1183ZM35.8435 84.8041C35.8592 84.7726 35.8749 84.7411 35.8907 84.7175L37.9434 81.9256L38.2658 81.493C38.7298 80.8638 39.4141 80.7773 39.7837 80.7773C40.4129 80.7773 41.0578 81.029 41.6083 81.4851C42.8038 82.4682 43.1891 84.1434 42.4499 85.1658C42.4499 85.1737 42.442 85.1737 42.442 85.1816L41.5218 86.4163L41.2623 86.7624L40.059 88.3904C39.8073 88.7364 39.4849 88.9173 39.186 89.0117C38.9422 89.0903 38.7141 89.1139 38.549 89.1139C37.9198 89.1139 37.2749 88.8623 36.7243 88.414C35.5603 87.4466 35.175 85.8265 35.8435 84.8041ZM100.665 86.4399C99.7209 88.1702 97.7547 87.9342 96.7795 87.6904L80.5703 77.9539C79.7523 77.4662 78.6985 77.7258 78.2108 78.5437C77.7232 79.3538 77.9828 80.4155 78.8007 80.9031L94.0268 90.0498C94.1055 90.8206 94.0819 92.3149 92.9022 93.2744C92.2809 93.7777 90.6922 93.9036 89.6147 93.8485L75.9222 85.9287C75.0964 85.449 74.0504 85.7321 73.5706 86.5579C73.0988 87.3758 73.374 88.4297 74.1998 88.9094L87.3418 96.5147C87.2396 97.4427 86.925 98.7404 86.0992 99.283C85.3835 99.7549 83.724 99.7471 82.7724 99.5898C82.7095 99.5819 82.6544 99.5898 82.5915 99.5898L71.1562 94.0687C70.2989 93.6519 69.2686 94.0137 68.8597 94.8709C68.4428 95.7282 68.8046 96.7585 69.6619 97.1674L79.8782 102.099C79.3355 102.767 78.5962 103.491 77.7232 103.963C76.1188 104.828 73.1853 104.372 72.2022 104.12C72.155 104.104 72.0999 104.096 72.0527 104.088C72.0213 104.081 70.2281 103.782 67.1058 102.751L67.6485 102.012C69.4731 99.5268 68.8361 95.7675 66.2328 93.6283C65.2969 92.8575 64.1959 92.3699 63.0634 92.2048C63.488 90.0262 62.6387 87.5567 60.7118 85.968C59.6972 85.1344 58.4861 84.6232 57.2592 84.5052C57.3771 82.5311 56.5277 80.4313 54.8211 79.0313C53.6571 78.0718 52.2336 77.5449 50.8101 77.5449C49.0798 77.5449 47.5226 78.3156 46.5238 79.6605L45.5328 80.9739C45.1239 80.1639 44.5419 79.4246 43.8026 78.8111C42.6386 77.8516 41.2151 77.3247 39.7916 77.3247C38.195 77.3247 36.7401 77.9932 35.7412 79.1572C34.2548 77.3011 33.2402 76.0349 33.2167 76.0034C33.1931 75.9798 33.1773 75.9562 33.1537 75.9326L31.0617 73.6204L43.0004 52.417C44.4239 53.3058 45.816 54.163 46.6182 54.6192C48.1203 55.4686 50.8101 55.8697 53.4133 56.255C53.4605 56.2629 53.5077 56.2708 53.547 56.2786C51.5966 58.992 49.5203 62.012 48.4428 64.1906C48.3956 64.2849 48.3641 64.3793 48.3327 64.4737C47.9159 65.9208 47.4833 68.0207 48.6158 69.5386C49.3551 70.506 50.5663 71.0014 52.2179 71.0014C52.5639 71.0014 52.9336 70.9778 53.2953 70.9464C59.7287 70.4509 64.0622 64.8355 65.3127 62.9951L68.5529 61.9648C70.4641 62.9401 76.4255 66.0231 81.2466 69.051C81.3961 69.1454 83.2993 70.3801 83.433 70.4745C87.5699 73.2979 90.7236 75.563 92.973 77.246C94.4909 78.4022 96.0638 79.6212 97.3379 80.62C97.3772 80.6515 97.4008 80.6672 97.4008 80.6751L99.8625 82.7042C101.522 84.3007 101.121 85.5984 100.665 86.4399Z" fill="#1B2B4B"/>
</svg>
