<svg width="137" height="138" viewBox="0 0 137 138" fill="none" xmlns="http://www.w3.org/2000/svg">
<circle cx="68.4398" cy="69.1688" r="65.4842" stroke="#F2A446" stroke-width="5.84681"/>
<path d="M124.92 70.3833L106.677 37.9959C106.059 36.8979 104.896 36.2065 103.643 36.2065C103.009 36.2065 102.391 36.3773 101.854 36.7108L94.4444 41.2249C92.8177 42.2172 92.2565 44.3888 93.2 46.0643L94.2248 47.8943C92.8502 48.3498 91.5082 48.6263 90.4183 48.5369C89.2309 48.4393 87.6936 48.0814 85.9205 47.6584C82.8298 46.9346 78.9827 46.0318 74.8021 46.0318H74.5093C68.3685 46.0887 57.7219 46.6743 55.4038 49.9358C55.1029 50.3587 54.7369 50.8712 54.3465 51.408C53.7365 51.3022 53.0858 51.2046 52.3782 51.0989C50.3448 50.798 47.555 50.3831 46.5872 49.8301C45.7819 49.3746 44.3179 48.4718 42.8376 47.5446L43.6754 46.0643C44.6189 44.3888 44.0658 42.2172 42.4391 41.2249L35.0295 36.7108C34.4927 36.3855 33.8664 36.2065 33.2402 36.2065C31.9876 36.2065 30.8245 36.8898 30.2064 37.9959L11.9631 70.3833C11.0196 72.0588 11.5808 74.2304 13.1993 75.2227L20.6089 79.7368C21.1457 80.0621 21.7639 80.241 22.3983 80.241C23.6508 80.241 24.8139 79.5578 25.4402 78.4517L26.9042 75.849L28.23 77.3211C28.4414 77.5814 29.6858 79.1349 31.3857 81.2577L30.8815 81.9491C28.9945 84.5111 29.6533 88.407 32.3455 90.6193C33.4191 91.5059 34.7123 92.0345 36.0218 92.1403C35.8754 94.198 36.762 96.4022 38.5432 97.8744C39.7469 98.8666 41.2191 99.4116 42.6912 99.4116C43.0654 99.4116 43.4233 99.3709 43.773 99.3059C44.1146 100.705 44.9117 102.039 46.1236 103.039C47.3273 104.031 48.8076 104.576 50.2798 104.576C50.8979 104.576 51.4998 104.479 52.061 104.292C52.4514 105.536 53.1997 106.715 54.2977 107.61C55.5014 108.602 56.9817 109.147 58.4457 109.147C60.2351 109.147 61.8455 108.35 62.8703 106.959L63.7894 105.715C67.6203 107.049 70.0034 107.504 70.4751 107.586C70.9143 107.691 72.4597 108.033 74.2734 108.033C75.7212 108.033 77.3235 107.813 78.6736 107.09C80.6663 106.016 82.0978 104.218 82.8624 103.072C84.1474 103.137 86.1564 103.047 87.6123 102.096C89.5318 100.843 90.2069 98.6552 90.4427 97.0692C91.8254 97.0122 93.6636 96.7113 94.9405 95.6702C96.7136 94.2306 97.283 92.3436 97.4131 90.8227C99.6417 90.9772 102.326 90.3428 103.855 87.5368C104.977 85.4709 104.969 83.3236 103.904 81.3716C104.774 80.8673 105.815 80.1678 106.937 79.143C107.669 78.4761 108.206 77.923 108.67 77.4269C109.133 76.9389 109.548 76.5078 110.093 76.0442L111.435 78.4354C112.053 79.5416 113.225 80.2248 114.469 80.2248C115.103 80.2248 115.722 80.054 116.258 79.7205L123.668 75.2064C125.303 74.2304 125.856 72.0588 124.92 70.3833ZM96.2988 44.2668L103.619 39.8015L121.83 72.1808L114.51 76.6461L96.2988 44.2668ZM106.1 74.995C105.652 75.4667 105.189 75.9466 104.554 76.5241C103.334 77.6383 102.228 78.289 101.504 78.6388C101.496 78.6388 101.488 78.6469 101.48 78.655L99.6742 77.1666L99.6417 77.1422C99.5359 77.0527 97.9174 75.6944 94.5013 73.1731C92.1752 71.4488 89.0275 69.1877 84.912 66.3898C84.3833 66.0319 82.6346 64.9014 82.3093 64.698C76.2417 60.916 68.824 57.199 68.4661 57.02C68.214 56.898 67.9456 56.833 67.6691 56.833C67.4901 56.833 67.3031 56.8574 67.1323 56.9143L62.4799 58.3946C62.0733 58.5247 61.7235 58.8013 61.4958 59.1673C61.4551 59.2323 57.4047 65.8042 51.4184 66.2678C51.1338 66.3003 50.8654 66.3084 50.6214 66.3084C49.9951 66.3084 49.7673 66.2027 49.7592 66.2108C49.7348 66.1458 49.5884 65.6822 49.9869 64.2507C51.1907 61.8838 57.6487 52.9208 58.0228 52.384C58.1204 52.2538 58.2261 52.1074 58.3075 51.9854C59.1208 50.8956 65.5625 49.6593 74.5418 49.5779H74.8021C78.5679 49.5779 82.0409 50.3913 85.0991 51.1152C87.0185 51.5625 88.6696 51.9529 90.1174 52.0749C91.8986 52.2213 93.9808 51.7333 95.9816 51.0094L108.312 72.9047C108.214 72.9941 106.645 74.4175 106.1 74.995ZM22.3739 76.6461L15.0619 72.132L33.2646 39.8015L40.5765 44.3156L22.3739 76.6461ZM60.0074 104.853C59.5275 105.504 58.828 105.593 58.4457 105.593C57.7951 105.593 57.1281 105.333 56.5588 104.869C55.7129 104.17 55.2737 103.145 55.3144 102.218C55.3306 101.787 55.4526 101.388 55.6966 101.055L56.0057 100.632L57.1119 99.1269L59.3892 96.0362C59.8691 95.3855 60.5767 95.2879 60.9508 95.2879C61.6015 95.2879 62.2685 95.5482 62.8378 96.0118C64.0741 97.0285 64.4726 98.7772 63.6999 99.8264L62.5043 101.445L60.3164 104.414L60.0074 104.853ZM50.2798 101.022C49.6291 101.022 48.9621 100.762 48.3847 100.29C47.612 99.6556 47.1646 98.7284 47.1321 97.8744C47.124 97.5897 47.1646 97.3132 47.246 97.0529C47.311 96.8496 47.4005 96.6462 47.5306 96.4754L48.8157 94.7267L53.6958 88.1142C53.8422 87.919 53.9967 87.7808 54.1675 87.675C54.5661 87.4229 54.989 87.3659 55.2574 87.3659C55.9081 87.3659 56.575 87.6262 57.1444 88.0898C58.3888 89.1065 58.7792 90.8552 58.0065 91.9044L53.8585 97.5328L51.8332 100.282C51.7926 100.339 51.7519 100.379 51.7031 100.428C51.2476 100.941 50.6214 101.022 50.2798 101.022ZM39.7144 91.7173C39.7713 91.5791 39.8445 91.4408 39.9421 91.3107L41.7722 88.83L41.8616 88.708L43.3907 86.6339C43.3988 86.6258 43.3988 86.6177 43.407 86.6095L47.5876 80.9405C48.0675 80.2898 48.7751 80.1922 49.1573 80.1922C49.808 80.1922 50.475 80.4525 51.0443 80.9243C52.2887 81.9409 52.6791 83.6896 51.9064 84.7388L51.573 85.1943C51.2964 85.4383 51.0443 85.7067 50.8247 86.0077L45.8796 92.7178L44.6595 94.3688C44.4562 94.6454 44.2854 94.9463 44.139 95.2554C44.017 95.3855 43.8869 95.4913 43.7486 95.5726C43.3582 95.8085 42.9515 95.8573 42.6912 95.8573C42.0487 95.8573 41.3736 95.597 40.8043 95.1334C39.7144 94.2306 39.2833 92.7666 39.7144 91.7173ZM33.6956 84.1532C33.7119 84.1207 33.7282 84.0882 33.7444 84.0638L35.8673 81.1764L36.2007 80.7291C36.6806 80.0784 37.3882 79.9889 37.7705 79.9889C38.4212 79.9889 39.0881 80.2492 39.6575 80.7209C40.8937 81.7376 41.2923 83.47 40.5277 84.5274C40.5277 84.5355 40.5196 84.5355 40.5196 84.5436L39.568 85.8206L39.2996 86.1785L38.0552 87.8621C37.7949 88.22 37.4614 88.407 37.1524 88.5046C36.9002 88.586 36.6644 88.6104 36.4935 88.6104C35.8429 88.6104 35.1759 88.3501 34.6066 87.8865C33.4028 86.8861 33.0043 85.2106 33.6956 84.1532ZM100.732 85.845C99.7555 87.6344 97.7222 87.3904 96.7136 87.1382L79.9506 77.069C79.1047 76.5647 78.0148 76.8331 77.5105 77.679C77.0063 78.5168 77.2747 79.6148 78.1206 80.119L93.8669 89.5782C93.9482 90.3753 93.9239 91.9207 92.7038 92.913C92.0613 93.4335 90.4183 93.5636 89.304 93.5067L75.1437 85.3163C74.2897 84.8202 73.2079 85.113 72.7118 85.967C72.2238 86.8129 72.5085 87.9028 73.3625 88.3989L86.9535 96.2639C86.8477 97.2237 86.5224 98.5657 85.6684 99.1269C84.9283 99.6149 83.2121 99.6068 82.2279 99.4441C82.1629 99.436 82.1059 99.4441 82.0409 99.4441L70.2148 93.7344C69.3283 93.3034 68.2628 93.6775 67.8399 94.5641C67.4088 95.4506 67.7829 96.5161 68.6695 96.939L79.2348 102.039C78.6736 102.73 77.9091 103.478 77.0063 103.966C75.347 104.861 72.3133 104.389 71.2966 104.129C71.2478 104.113 71.1909 104.105 71.1421 104.096C71.1095 104.088 69.2551 103.779 66.0261 102.714L66.5873 101.949C68.4743 99.3791 67.8155 95.4913 65.1233 93.279C64.1554 92.4819 63.0167 91.9776 61.8455 91.8068C62.2847 89.5538 61.4063 86.9999 59.4136 85.357C58.3644 84.4948 57.1118 83.9662 55.843 83.8442C55.965 81.8027 55.0866 79.631 53.3217 78.1833C52.1179 77.191 50.6458 76.6461 49.1736 76.6461C47.3842 76.6461 45.7738 77.4431 44.7409 78.834L43.7161 80.1922C43.2931 79.3545 42.6912 78.59 41.9267 77.9555C40.7229 76.9633 39.2508 76.4183 37.7786 76.4183C36.1275 76.4183 34.6229 77.1097 33.5899 78.3134C32.0527 76.3939 31.0035 75.0844 30.9791 75.0519C30.9547 75.0275 30.9384 75.0031 30.914 74.9787L28.7505 72.5875L41.0971 50.6597C42.5692 51.5788 44.0089 52.4653 44.8385 52.9371C46.392 53.8155 49.1736 54.2303 51.8658 54.6288C51.9146 54.6369 51.9634 54.6451 52.004 54.6532C49.9869 57.4592 47.8397 60.5825 46.7254 62.8355C46.6766 62.9331 46.6441 63.0307 46.6116 63.1283C46.1805 64.6248 45.7332 66.7965 46.9044 68.3662C47.6689 69.3666 48.9215 69.879 50.6295 69.879C50.9874 69.879 51.3696 69.8546 51.7438 69.8221C58.3969 69.3097 62.8785 63.5024 64.1717 61.5992L67.5227 60.5337C69.4991 61.5422 75.6642 64.7306 80.6501 67.8619C80.8046 67.9595 82.7729 69.2365 82.9112 69.3341C87.1894 72.254 90.4509 74.5964 92.777 76.337C94.3468 77.5326 95.9735 78.7933 97.2911 79.8262C97.3318 79.8588 97.3562 79.875 97.3562 79.8832L99.9019 81.9816C101.618 83.6327 101.203 84.9747 100.732 85.845Z" fill="#1B2B4B"/>
</svg>
