<svg width="138" height="138" viewBox="0 0 138 138" fill="none" xmlns="http://www.w3.org/2000/svg">
<circle cx="69.1534" cy="69.0672" r="65.4842" stroke="#F2A446" stroke-width="5.84681"/>
<path d="M68.9922 68.709C72.7594 68.709 75.8091 72.3472 75.8091 76.8156C75.8091 79.8433 74.4188 82.4804 72.3558 83.8722C71.3467 84.5803 70.1582 84.9954 68.9025 84.9954C65.1352 84.9954 62.1079 81.3572 62.1079 76.8888C62.1079 73.8611 63.4982 71.224 65.5612 69.8322C66.5703 69.1241 67.7364 68.709 68.9922 68.709Z" stroke="#1B2B4B" stroke-width="3.2" stroke-miterlimit="22.9256" stroke-linecap="round" stroke-linejoin="round"/>
<path d="M35.0418 29.4814H103.301C105.364 29.4814 107.046 31.1633 107.046 33.2263V48.4748C107.046 50.5378 105.364 52.2196 103.301 52.2196H91.9546L91.9097 60.4493L83.8819 52.2196H73.2303L69.194 60.4493L65.1576 52.2196H54.4837L46.4558 60.4493L46.4109 52.2196H35.0418C32.9788 52.2196 31.297 50.5378 31.297 48.4748V33.2263C31.297 31.1633 32.9788 29.4814 35.0418 29.4814Z" stroke="#1B2B4B" stroke-width="3.2" stroke-miterlimit="22.9256" stroke-linecap="round" stroke-linejoin="round"/>
<path d="M46.9043 68.709C50.6715 68.709 53.7212 72.3472 53.7212 76.8156C53.7212 79.8433 52.3309 82.4804 50.2679 83.8722C49.2588 84.5803 48.0703 84.9954 46.8146 84.9954C43.0473 84.9954 40.02 81.3572 40.02 76.8888C40.02 73.8611 41.4103 71.224 43.4734 69.8322C44.4824 69.1241 45.6485 68.709 46.9043 68.709Z" stroke="#1B2B4B" stroke-width="3.2" stroke-miterlimit="22.9256" stroke-linecap="round" stroke-linejoin="round"/>
<path d="M78.1636 108.653L78.0963 100.333" stroke="#1B2B4B" stroke-width="3.2" stroke-miterlimit="22.9256" stroke-linecap="round" stroke-linejoin="round"/>
<path d="M84.2407 108.653L83.6577 94.1889C83.4335 88.2914 55.6722 88.7398 54.7753 94.1217C54.125 97.0592 53.968 103.293 53.8783 108.653" stroke="#1B2B4B" stroke-width="3.2" stroke-miterlimit="22.9256" stroke-linecap="round" stroke-linejoin="round"/>
<path d="M60.314 100.333L60.2467 108.653" stroke="#1B2B4B" stroke-width="3.2" stroke-miterlimit="22.9256" stroke-linecap="round" stroke-linejoin="round"/>
<path d="M57.0849 90.9824C49.214 88.8072 33.1807 90.0406 32.5079 94.1218C31.8576 97.0594 31.7007 103.293 31.611 108.653" stroke="#1B2B4B" stroke-width="3.2" stroke-miterlimit="22.9256" stroke-linecap="round" stroke-linejoin="round"/>
<path d="M38.0243 100.333L37.957 108.653" stroke="#1B2B4B" stroke-width="3.2" stroke-miterlimit="22.9256" stroke-linecap="round" stroke-linejoin="round"/>
<path d="M81.7291 90.9824C89.6 88.8072 105.633 90.0406 106.306 94.1218C106.956 97.0594 107.113 103.293 107.203 108.653" stroke="#1B2B4B" stroke-width="3.2" stroke-miterlimit="22.9256" stroke-linecap="round" stroke-linejoin="round"/>
<path d="M100.79 100.333L100.857 108.653" stroke="#1B2B4B" stroke-width="3.2" stroke-miterlimit="22.9256" stroke-linecap="round" stroke-linejoin="round"/>
<path d="M91.8873 68.709C88.12 68.709 85.0703 72.3472 85.0703 76.8156C85.0703 79.8433 86.4606 82.4804 88.5236 83.8722C89.5327 84.5803 90.7212 84.9954 91.977 84.9954C95.7443 84.9954 98.7715 81.3572 98.7715 76.8888C98.7715 73.8611 97.3812 71.224 95.3182 69.8322C94.3315 69.1241 93.143 68.709 91.8873 68.709Z" stroke="#1B2B4B" stroke-width="3.2" stroke-miterlimit="22.9256" stroke-linecap="round" stroke-linejoin="round"/>
<path d="M75.7867 42.2856C75.7419 42.5323 75.7194 42.779 75.697 43.0481" stroke="#1B2B4B" stroke-width="3.2" stroke-miterlimit="22.9256" stroke-linecap="round" stroke-linejoin="round"/>
<path d="M69.2164 42.2856C69.1716 42.5323 69.1491 42.779 69.1267 43.0481" stroke="#1B2B4B" stroke-width="3.2" stroke-miterlimit="22.9256" stroke-linecap="round" stroke-linejoin="round"/>
<path d="M62.6238 42.2856C62.5789 42.5323 62.5565 42.779 62.5341 43.0481" stroke="#1B2B4B" stroke-width="3.2" stroke-miterlimit="22.9256" stroke-linecap="round" stroke-linejoin="round"/>
</svg>
