<svg width="138" height="138" viewBox="0 0 138 138" fill="none" xmlns="http://www.w3.org/2000/svg">
<circle cx="68.7246" cy="68.7779" r="65.4842" stroke="#F2A446" stroke-width="5.84681"/>
<path d="M93.0114 43.9937C86.3862 37.3685 77.5893 33.7295 68.2272 33.7295C58.8652 33.7295 50.0683 37.3685 43.443 43.9937C36.8177 50.619 33.1788 59.4159 33.1788 68.7779C33.1788 78.14 36.8177 86.9369 43.443 93.5622C50.0683 100.187 58.8652 103.826 68.2272 103.826C77.5893 103.826 86.3862 100.187 93.0114 93.5622C99.6367 86.9369 103.276 78.14 103.276 68.7779C103.276 59.4159 99.6367 50.619 93.0114 43.9937ZM27.3994 68.7779C27.3994 46.2246 45.6739 27.9502 68.2272 27.9502C90.7805 27.9502 109.055 46.2246 109.055 68.7779C109.055 91.3313 90.7805 109.606 68.2272 109.606C45.6739 109.606 27.3994 91.3313 27.3994 68.7779Z" fill="#1B2B4B" stroke="white" stroke-width="0.818553"/>
<path d="M50.4983 68.778C50.4983 78.5545 58.4506 86.5068 68.2271 86.5068C74.6335 86.5068 80.2478 83.1 83.3659 77.9943L88.3654 80.8842C84.2478 87.7113 76.7695 92.2862 68.2271 92.2862C55.2573 92.2862 44.7189 81.7478 44.7189 68.778C44.7189 55.8081 55.2573 45.2698 68.2271 45.2698C76.7535 45.2698 84.2474 49.8448 88.3654 56.6717L83.3659 59.5616C80.2478 54.4559 74.6335 51.0491 68.2271 51.0491C58.4506 51.0491 50.4983 59.0014 50.4983 68.778Z" fill="#1B2B4B" stroke="white" stroke-width="0.818553"/>
</svg>
