<svg width="137" height="138" viewBox="0 0 137 138" fill="none" xmlns="http://www.w3.org/2000/svg">
<circle cx="68.5822" cy="68.8353" r="65.4842" stroke="#F2A446" stroke-width="5.84681"/>
<path d="M113.896 63.4754C113.448 63.1915 112.866 63.311 112.567 63.7592L110.401 67.1204L108.085 63.7443C107.697 63.1617 106.83 63.1915 106.472 63.804L105.277 65.8207C103.589 54.079 94.8197 43.9356 82.3609 39.8424C81.9127 39.693 81.4197 39.9022 81.2106 40.3205L74.1147 54.4524C73.9504 54.7661 73.9803 55.1396 74.1894 55.4384L81.9725 66.478L66.6006 81.9395L71.8291 66.8664C71.9486 66.5378 71.8739 66.1643 71.62 65.8954L61.626 55.1545L68.9758 39.3196C69.2597 38.7071 68.8264 37.99 68.1542 37.9601C66.5856 37.8855 63.3589 38.2141 61.6708 38.483L43.1917 27.5778C42.5195 27.1744 41.668 27.7122 41.7576 28.504L43.7893 48.8504C41.9966 50.7178 40.4579 52.7494 39.1882 54.9155C38.9342 55.3487 38.4711 55.6176 37.9632 55.6176H28.5817C27.2671 55.6176 26.1915 56.6932 26.1915 58.0078V69.6749C26.1915 70.5862 26.7293 71.4377 27.5509 71.8261C27.9842 72.0352 33.9895 74.9184 35.6776 75.74C36.7382 80.9237 39.2031 85.8087 42.8481 89.9317L35.6029 103.765C35.1398 104.646 35.4386 105.752 36.2751 106.275L41.5783 109.621C42.4 110.144 43.4905 109.95 44.103 109.188L53.111 97.8642C63.7772 103.302 76.8485 103.317 87.5446 97.8642L96.5526 109.188C97.1651 109.95 98.2407 110.144 99.0772 109.621L104.38 106.29C105.217 105.767 105.516 104.661 105.053 103.78L97.8074 89.9765C102.887 84.2401 105.77 76.8753 105.546 69.1072L107.338 66.0747L109.609 69.3911C109.967 69.9289 110.819 69.9737 111.207 69.3761L114.15 64.8198C114.464 64.3568 114.33 63.7592 113.896 63.4754ZM95.955 89.1699C95.6861 89.4686 95.6264 89.9018 95.8057 90.2604L103.35 104.646L98.0465 107.978L88.5455 96.0416C88.2616 95.6831 87.7537 95.5785 87.3354 95.7877C76.8634 101.42 63.7772 101.434 53.2902 95.7877C52.8869 95.5636 52.379 95.6682 52.0802 96.0416L42.5792 107.978L37.276 104.646L44.82 90.2604C45.0142 89.9018 44.9545 89.4686 44.6706 89.1699C41.3393 85.5547 38.994 81.2972 37.8287 76.7409L46.3139 80.4307C46.1794 80.4307 46.4334 80.4905 46.3139 80.4307C47.3447 80.4307 48.0318 79.0863 47.0907 78.668C34.1986 73.066 39.0537 75.2769 28.3576 70.1231C28.1933 70.0484 28.0887 69.8841 28.0887 69.6898V58.0228C28.0887 57.7539 28.2979 57.5447 28.5668 57.5447H37.9184C39.0985 57.5447 40.204 56.9173 40.8015 55.8865C42.0564 53.7354 43.61 51.7037 45.4325 49.8812C45.6267 49.6721 45.7313 49.4032 45.7014 49.1193L43.8341 30.207L60.9986 40.3205C61.1928 40.44 61.4318 40.4848 61.6559 40.44C62.7315 40.2308 64.9275 39.9918 66.5856 39.9022L59.6242 54.9454C59.4599 55.3039 59.5197 55.7222 59.7886 56.006L69.8273 66.7917L63.4187 85.2858C63.09 86.2419 64.2851 86.9888 65.0022 86.2718L83.9145 67.2399C84.2431 66.9113 84.288 66.3884 84.0191 66.0149L76.1016 54.796L82.5551 41.9189C103.499 49.3583 110.535 73.3349 95.955 89.1699Z" fill="#1B2B4B"/>
<path d="M46.3139 80.4307L37.8287 76.7409C38.994 81.2972 41.3393 85.5547 44.6706 89.1699C44.9545 89.4686 45.0142 89.9018 44.82 90.2604L37.276 104.646L42.5792 107.978L52.0802 96.0416C52.379 95.6682 52.8869 95.5636 53.2902 95.7877C63.7772 101.434 76.8634 101.42 87.3354 95.7877C87.7537 95.5785 88.2616 95.6831 88.5455 96.0416L98.0465 107.978L103.35 104.646L95.8057 90.2604C95.6264 89.9018 95.6861 89.4686 95.955 89.1699C110.535 73.3349 103.499 49.3583 82.5551 41.9189L76.1016 54.796L84.0191 66.0149C84.288 66.3884 84.2431 66.9113 83.9145 67.2399L65.0021 86.2718C64.2851 86.9888 63.09 86.2419 63.4187 85.2858L69.8273 66.7917L59.7886 56.006C59.5197 55.7222 59.4599 55.3039 59.6242 54.9454L66.5856 39.9022C64.9275 39.9918 62.7315 40.2308 61.6559 40.44C61.4318 40.4848 61.1928 40.44 60.9986 40.3205L43.8341 30.207L45.7014 49.1193C45.7313 49.4032 45.6267 49.6721 45.4325 49.8812C43.61 51.7037 42.0564 53.7354 40.8015 55.8865C40.204 56.9173 39.0985 57.5447 37.9184 57.5447H28.5668C28.2979 57.5447 28.0887 57.7539 28.0887 58.0228V69.6898C28.0887 69.8841 28.1933 70.0484 28.3576 70.1231C39.0537 75.2769 34.1986 73.066 47.0907 78.668C48.0318 79.0863 47.3447 80.4307 46.3139 80.4307ZM46.3139 80.4307C46.4334 80.4905 46.1794 80.4307 46.3139 80.4307ZM113.896 63.4754C113.448 63.1915 112.866 63.311 112.567 63.7592L110.401 67.1204L108.085 63.7443C107.697 63.1617 106.83 63.1915 106.472 63.804L105.277 65.8207C103.589 54.079 94.8197 43.9356 82.3609 39.8424C81.9127 39.693 81.4197 39.9022 81.2106 40.3205L74.1147 54.4524C73.9504 54.7661 73.9803 55.1396 74.1894 55.4384L81.9725 66.478L66.6006 81.9395L71.8291 66.8664C71.9486 66.5378 71.8739 66.1643 71.62 65.8954L61.626 55.1545L68.9758 39.3196C69.2597 38.7071 68.8264 37.99 68.1542 37.9601C66.5856 37.8855 63.3589 38.2141 61.6708 38.483L43.1917 27.5778C42.5195 27.1744 41.668 27.7122 41.7576 28.504L43.7893 48.8504C41.9966 50.7178 40.4579 52.7494 39.1882 54.9155C38.9342 55.3487 38.4711 55.6176 37.9632 55.6176H28.5817C27.2671 55.6176 26.1915 56.6932 26.1915 58.0078V69.6749C26.1915 70.5862 26.7293 71.4377 27.5509 71.8261C27.9842 72.0352 33.9895 74.9184 35.6776 75.74C36.7382 80.9237 39.2031 85.8087 42.8481 89.9317L35.6029 103.765C35.1398 104.646 35.4386 105.752 36.2751 106.275L41.5783 109.621C42.4 110.144 43.4905 109.95 44.103 109.188L53.111 97.8642C63.7772 103.302 76.8485 103.317 87.5446 97.8642L96.5526 109.188C97.1651 109.95 98.2407 110.144 99.0772 109.621L104.38 106.29C105.217 105.767 105.516 104.661 105.053 103.78L97.8074 89.9765C102.887 84.2401 105.77 76.8753 105.546 69.1072L107.338 66.0747L109.609 69.3911C109.968 69.9289 110.819 69.9737 111.207 69.3761L114.15 64.8198C114.464 64.3567 114.33 63.7592 113.896 63.4754Z" stroke="#1B2B4B" stroke-width="1.75404"/>
</svg>
