<svg width="138" height="138" viewBox="0 0 138 138" fill="none" xmlns="http://www.w3.org/2000/svg">
<circle cx="68.8685" cy="68.6034" r="65.4842" stroke="#F2A446" stroke-width="5.84681"/>
<path d="M121.457 50.3891C121.427 49.9447 121.16 49.5892 120.746 49.4114C109.813 44.9673 101.518 46.5376 96.3624 48.7596V43.96C96.3624 38.5086 91.9183 34.0645 86.4668 34.0645H36.2189C36.1003 34.0645 36.0115 34.0941 35.9226 34.1237C35.6263 34.0941 35.3004 34.0645 34.9745 34.0645C29.4046 34.0645 24.8716 38.5974 24.8716 44.1674C24.8716 44.197 24.8716 44.197 24.8716 44.2266C24.8716 44.2563 24.8716 44.2563 24.8716 44.2859C24.8716 44.9081 25.3752 45.4117 25.9974 45.4117H42.8258V94.208V94.2376C42.9146 99.689 47.3291 104.104 52.7805 104.192H52.8102H102.969C102.999 104.192 102.999 104.192 103.029 104.192C103.058 104.192 103.058 104.192 103.088 104.192C108.658 104.192 113.191 99.6594 113.191 94.0895C113.191 94.0598 113.191 94.0598 113.191 94.0302C113.191 94.0006 113.191 94.0006 113.191 93.9709C113.191 93.3488 112.687 92.8451 112.065 92.8451H95.2365V75.8983C97.0142 74.4465 98.1696 73.3207 98.2881 73.1726C98.6437 72.817 98.7326 72.2541 98.4659 71.8097C98.1993 71.3653 97.6956 71.1579 97.1919 71.2764C96.6586 71.4245 96.1846 71.5134 95.7402 71.543C101.843 62.7141 120.657 51.5742 120.864 51.4557C121.279 51.2187 121.486 50.8039 121.457 50.3891ZM34.9745 36.3458C38.9446 36.3458 42.2332 39.3381 42.7369 43.16H27.2121C27.7158 39.3085 31.0044 36.3458 34.9745 36.3458ZM103.088 101.941C103.058 101.941 103.058 101.941 103.029 101.941C102.999 101.941 102.999 101.941 102.969 101.941H59.2986C61.3428 100.282 62.7057 97.8521 62.9724 95.1264H110.85C110.376 98.9483 107.087 101.941 103.088 101.941ZM92.7775 72.0763C92.5997 72.4022 92.5997 72.7578 92.7478 73.0837C92.896 73.4096 93.1922 73.6466 93.5478 73.7058C93.5774 73.7058 93.7848 73.7651 94.1699 73.7947C91.4146 76.076 86.8816 79.3647 82.8227 80.0461C82.2005 80.1646 81.7857 80.7275 81.9042 81.3497C81.9931 81.9126 82.4671 82.2978 83.0301 82.2978C83.0893 82.2978 83.1486 82.2978 83.2375 82.2681C86.6446 81.6756 90.1999 79.6017 92.9848 77.587V92.8155H61.9058C61.2836 92.8155 60.7799 93.3191 60.7799 93.9413C60.7799 93.971 60.7799 93.971 60.7799 94.0006C60.7799 94.0302 60.7799 94.0302 60.7799 94.0598C60.7799 98.3854 57.2543 101.911 52.9287 101.911C48.6031 101.911 45.0774 98.3854 45.0774 94.0598V44.2859C45.0774 44.2563 45.0774 44.2563 45.0774 44.2266C45.0774 44.197 45.0774 44.197 45.0774 44.1674C45.0774 40.9973 43.6257 38.1827 41.3444 36.3161H86.4668C90.6739 36.3161 94.0811 39.7233 94.0811 43.9304V49.8262C92.3627 50.7743 90.9998 51.752 89.9332 52.6408C90.1999 51.7816 90.5554 50.9224 90.8221 50.3002C91.0294 49.8262 90.9109 49.2929 90.5258 48.967C90.1406 48.6411 89.5777 48.6115 89.1629 48.8781C81.7857 53.7074 77.3712 59.3662 76.038 65.7657C74.3493 73.9429 78.3489 80.1646 78.5267 80.4313C78.586 80.5201 78.6452 80.5794 78.7341 80.6683C77.6675 83.8088 76.8972 87.2159 76.6898 90.8897C76.6602 91.5119 77.1342 92.0452 77.7564 92.1044C77.786 92.1044 77.8157 92.1044 77.8157 92.1044C78.4082 92.1044 78.9119 91.6304 78.9415 91.0378C80.1266 70.8616 98.5548 57.9737 98.7622 57.8552C99.2658 57.4997 99.414 56.7886 99.0585 56.285C98.7029 55.7813 97.9919 55.6332 97.4882 55.9887C97.2808 56.1368 92.5404 59.4255 87.563 65.3509C84.9262 68.5211 81.9339 72.7874 79.7711 78.0018C79.0304 76.4316 77.9045 73.4985 77.9045 69.8839C77.8749 63.5733 81.1043 57.8552 87.5038 52.9074C87.2075 54.0037 87.0001 55.1591 87.1186 56.0776C87.1779 56.522 87.5038 56.9071 87.9482 57.0256C88.3926 57.1442 88.8666 56.996 89.1333 56.6405C89.1629 56.6109 91.8294 53.263 96.9549 50.9817C103.206 48.1967 110.169 48.1078 117.724 50.715C112.183 54.1518 96.9253 64.1362 92.7775 72.0763Z" fill="#1B2B4B" stroke="#1B2B4B"/>
<path d="M50.8251 48.2561H80.6302C81.2523 48.2561 81.756 47.7524 81.756 47.1302C81.756 46.5081 81.2523 46.0044 80.6302 46.0044H50.8251C50.2029 46.0044 49.6992 46.5081 49.6992 47.1302C49.6992 47.7524 50.1733 48.2561 50.8251 48.2561Z" fill="#1B2B4B" stroke="#1B2B4B"/>
<path d="M71.1494 55.0703H50.8251C50.2029 55.0703 49.6992 55.574 49.6992 56.1962C49.6992 56.8183 50.2029 57.322 50.8251 57.322H71.179C71.8012 57.322 72.3049 56.8183 72.3049 56.1962C72.3049 55.574 71.7716 55.0703 71.1494 55.0703Z" fill="#1B2B4B" stroke="#1B2B4B"/>
<path d="M71.1494 64.166H50.8251C50.2029 64.166 49.6992 64.6697 49.6992 65.2919C49.6992 65.914 50.2029 66.4177 50.8251 66.4177H71.179C71.8012 66.4177 72.3049 65.914 72.3049 65.2919C72.3049 64.6697 71.7716 64.166 71.1494 64.166Z" fill="#1B2B4B" stroke="#1B2B4B"/>
</svg>
