<svg width="138" height="138" viewBox="0 0 138 138" fill="none" xmlns="http://www.w3.org/2000/svg">
<circle cx="69.1534" cy="68.9364" r="65.4842" stroke="#F2A446" stroke-width="5.84681"/>
<path d="M96.6007 96.7167C95.9837 96.7167 95.4841 96.2171 95.4841 95.6001V89.2824H43.033V95.6295C43.033 96.2465 42.5335 96.7461 41.9164 96.7461H26.9891C26.3721 96.7461 25.8725 96.2465 25.8725 95.6295V68.4489C25.8725 66.5977 26.6659 64.8052 28.0763 63.5711L31.7788 60.28L27.0773 58.6639C26.137 58.3407 25.373 57.6354 24.9616 56.7539C24.5502 55.843 24.5502 54.8145 24.9322 53.9036L25.5493 52.4344C26.1076 51.0827 27.4005 50.2012 28.8697 50.2012H37.9201L40.6529 41.7679C41.4756 39.2702 43.797 37.5659 46.4416 37.5659H92.0461C94.6907 37.5659 97.0415 39.2702 97.8349 41.7679L100.568 50.2012H109.618C111.058 50.2012 112.38 51.0533 112.938 52.405L113.585 53.933C113.938 54.8145 113.908 55.843 113.526 56.7245C113.115 57.6354 112.351 58.3113 111.44 58.6345L106.738 60.2507L110.441 63.5417C111.851 64.7759 112.645 66.5683 112.645 68.4195V95.6001C112.645 96.2171 112.145 96.7167 111.528 96.7167H96.6007ZM97.7173 94.5128H110.411V89.2824H97.7173V94.5128ZM28.1057 94.5128H40.7998V89.2824H28.1057V94.5128ZM34.7172 60.6327C34.6878 60.662 34.6878 60.662 34.6584 60.662L29.5456 65.2166C28.6347 66.0394 28.1057 67.2148 28.1057 68.4195V87.0198H110.411V68.4195C110.411 67.1854 109.882 66.01 108.972 65.2166L103.829 60.662C103.8 60.6327 103.8 60.6327 103.771 60.6033L102.272 59.0459V60.3976H36.2452V59.0459L34.7172 60.6327ZM105.063 58.4876L110.676 56.5482C111.028 56.4307 111.322 56.1662 111.469 55.8136C111.616 55.461 111.616 55.079 111.499 54.7264L110.882 53.2572C110.676 52.7576 110.176 52.4344 109.618 52.4344H101.655L105.063 58.4876ZM28.8697 52.4344C28.3114 52.4344 27.8119 52.7576 27.6062 53.2866L26.9891 54.7558C26.8422 55.1084 26.8422 55.4904 26.9891 55.843C27.136 56.1956 27.4299 56.4601 27.7825 56.5776L33.3949 58.517L36.7741 52.4638H28.8697V52.4344ZM36.1277 58.2231H102.36L99.2453 52.6695L98.8046 51.8761C98.7752 51.788 98.7458 51.7292 98.7164 51.6704L96.7477 45.6172H41.7401L39.7713 51.6704C39.7419 51.7292 39.7126 51.788 39.6832 51.8761L39.2424 52.6695L36.1277 58.2231ZM46.4416 39.7991C44.8842 39.7991 43.4738 40.7394 42.8567 42.1793L42.3572 43.4134H96.1306L95.631 42.1793C95.014 40.7394 93.6329 39.7991 92.0461 39.7991H46.4416Z" fill="#1B2B4B" stroke="#1B2B4B" stroke-width="0.935489"/>
<path d="M91.7523 76.1475C89.6954 76.1475 88.0205 74.4726 88.0205 72.4157C88.0205 70.6526 89.2547 69.1246 90.9589 68.772L102.419 66.3037C102.683 66.245 102.948 66.2156 103.212 66.2156C104.064 66.2156 104.887 66.5094 105.563 67.0383C106.445 67.7436 106.944 68.8014 106.944 69.9474V72.4157C106.944 74.4726 105.269 76.1475 103.212 76.1475H91.7523ZM103.242 68.4194C103.124 68.4194 103.007 68.4194 102.918 68.4488L91.4585 70.9171C90.7533 71.064 90.2537 71.6811 90.2537 72.3863C90.2537 73.2091 90.9296 73.9143 91.7817 73.9143H103.242C104.064 73.9143 104.77 73.2384 104.77 72.3863V69.918C104.77 69.4479 104.564 69.0365 104.211 68.7426C103.917 68.5369 103.565 68.4194 103.242 68.4194Z" fill="#1B2B4B" stroke="#1B2B4B" stroke-width="0.935489"/>
<path d="M35.2755 76.1475C33.2186 76.1475 31.5437 74.4726 31.5437 72.4157V69.9474C31.5437 68.8014 32.0432 67.7436 32.9248 67.0383C33.6006 66.5094 34.4234 66.2156 35.2755 66.2156C35.54 66.2156 35.8044 66.245 36.0689 66.3037L47.5288 68.772C49.2331 69.154 50.4672 70.682 50.4672 72.4157C50.4672 74.4726 48.7923 76.1475 46.7354 76.1475H35.2755ZM35.2755 68.4194C34.9229 68.4194 34.5997 68.5369 34.3352 68.7426C33.9826 69.0365 33.7769 69.4772 33.7769 69.918V72.3863C33.7769 73.2091 34.4528 73.9143 35.3049 73.9143H46.7648C47.5876 73.9143 48.2928 73.2384 48.2928 72.3863C48.2928 71.6811 47.7933 71.064 47.088 70.9171L35.6281 68.4488C35.4812 68.4488 35.3637 68.4194 35.2755 68.4194Z" fill="#1B2B4B" stroke="#1B2B4B" stroke-width="0.935489"/>
</svg>
