<svg width="138" height="138" viewBox="0 0 138 138" fill="none" xmlns="http://www.w3.org/2000/svg">
<circle cx="68.8685" cy="68.7779" r="65.4842" stroke="#F2A446" stroke-width="5.84681"/>
<path d="M80.9414 103.064H73.3135C72.4057 103.064 71.6606 102.319 71.6606 101.412V47.6098C71.6606 46.7021 72.4057 45.9569 73.3135 45.9569H97.9721C98.8798 45.9569 99.6114 45.1982 99.5708 44.2769C99.5302 43.4098 98.785 42.7459 97.9179 42.7459H73.3C72.3922 42.7459 71.647 42.0007 71.647 41.0929C71.647 40.6323 71.8232 40.1987 72.1619 39.8871C73.0967 39.0335 73.6793 37.6787 73.6793 35.7277C73.6793 33.0315 71.227 29.8476 69.6689 28.0998C69.0186 27.3546 67.8534 27.3546 67.2031 28.0998C65.6585 29.8476 63.1927 33.0315 63.1927 35.7277C63.1927 37.6787 63.7753 39.02 64.7101 39.8871C65.0488 40.1987 65.225 40.6323 65.225 41.0929C65.225 42.0007 64.4798 42.7459 63.572 42.7459H38.9812C38.1141 42.7459 37.3689 43.4098 37.3283 44.2769C37.2876 45.1982 38.0193 45.9569 38.927 45.9569H63.5856C64.4933 45.9569 65.2385 46.7021 65.2385 47.6098V101.412C65.2385 102.319 64.4933 103.064 63.5856 103.064H55.9577C55.1177 103.064 54.4402 103.742 54.4402 104.582V108.498C54.4402 109.338 55.1177 110.015 55.9577 110.015H65.2385H71.6606H80.9414C81.7814 110.015 82.4589 109.338 82.4589 108.498V104.582C82.4589 103.755 81.7814 103.064 80.9414 103.064Z" stroke="#1B2B4B" stroke-width="3.50808"/>
<path d="M50.9038 74.8967H27.0988C25.9201 74.8967 25.0123 75.8451 25.1884 76.9155C26.2452 83.0124 32.0305 87.6731 38.9945 87.6731C45.9585 87.6731 51.7438 83.0124 52.8006 76.9155C52.9903 75.8587 52.0825 74.8967 50.9038 74.8967Z" stroke="#1B2B4B" stroke-width="3.50808"/>
<path d="M109.826 74.9376H86.0209C84.8422 74.9376 83.9344 75.886 84.1105 76.9564C85.1673 83.0533 90.9526 87.714 97.9166 87.714C104.881 87.714 110.666 83.0533 111.723 76.9564C111.912 75.8996 111.005 74.9376 109.826 74.9376Z" stroke="#1B2B4B" stroke-width="3.50808"/>
<path d="M101.933 47.978C101.666 47.1658 100.622 46.9013 99.8294 47.2224C99.1156 47.5117 98.6211 48.2707 98.8611 49.0026L105.953 70.6255C106.17 71.2891 106.79 71.7378 107.488 71.7378C108.588 71.7378 109.366 70.6636 109.024 69.6187L101.933 47.978Z" fill="#1B2B4B"/>
<path d="M37.0655 47.2208C36.2746 46.9022 35.2343 47.1708 34.9686 47.981L27.8879 69.5717C27.5452 70.6165 28.3236 71.6909 29.4232 71.6909C30.1215 71.6909 30.7407 71.2423 30.9584 70.5788L38.0347 49.007C38.2756 48.2727 37.7823 47.5096 37.0655 47.2208Z" fill="#1B2B4B"/>
<path d="M43.2616 48.7025C43.0433 48.0363 42.4216 47.5858 41.7206 47.5858C40.6168 47.5858 39.8355 48.6646 40.1798 49.7133L47.0288 70.5787C47.2466 71.2422 47.866 71.6908 48.5643 71.6908C49.664 71.6908 50.4425 70.6164 50.1001 69.5714L43.2616 48.7025Z" fill="#1B2B4B"/>
<path d="M95.213 47.5858C94.5145 47.5858 93.895 48.0347 93.6775 48.6986L86.8238 69.6189C86.4815 70.6637 87.26 71.7378 88.3594 71.7378C89.0579 71.7378 89.6774 71.2889 89.8949 70.6251L96.7486 49.7047C97.0909 48.66 96.3124 47.5858 95.213 47.5858Z" fill="#1B2B4B"/>
</svg>
