<svg width="138" height="138" viewBox="0 0 138 138" fill="none" xmlns="http://www.w3.org/2000/svg">
<circle cx="69.1535" cy="68.8353" r="65.4842" stroke="#F2A446" stroke-width="5.84681"/>
<path d="M107.844 67.8647C106.669 67.8647 105.886 68.6837 105.886 69.9121V96.6138C105.886 97.8422 105.103 98.6611 103.929 98.6611H33.2143C32.0399 98.6611 31.2569 97.8422 31.2569 96.6138V69.9121C31.2569 68.6837 30.4739 67.8647 29.2995 67.8647C28.125 67.8647 27.342 68.6837 27.342 69.9121V96.6138C27.342 100.105 29.897 102.777 33.2349 102.777H103.929C107.267 102.777 109.822 100.105 109.822 96.6138V69.9121C109.822 68.6837 109.039 67.8647 107.844 67.8647Z" fill="#1B2B4B"/>
<path d="M105.886 42.6807H31.257C27.9191 42.6807 25.3641 45.2356 25.3641 48.5735V61.1422C25.3641 63.8826 27.3216 66.2521 29.8765 66.8291L60.7214 73.7109V79.9953C60.7214 81.1698 61.5043 81.9527 62.6788 81.9527H74.4645C75.639 81.9527 76.4219 81.1698 76.4219 79.9953V73.7109L107.267 66.8291C109.822 66.2315 111.779 63.8826 111.779 61.1422V48.5735C111.779 45.2356 109.224 42.6807 105.886 42.6807ZM72.5071 78.0379H64.6568V70.1876H72.5071V78.0379ZM107.844 61.1422C107.844 62.1313 107.246 62.9142 106.278 63.0997L76.4219 69.7755V68.2096C76.4219 67.0351 75.639 66.2521 74.4645 66.2521H62.6788C61.5043 66.2521 60.7214 67.0351 60.7214 68.2096V69.7755L30.8655 63.0997C29.8765 62.8936 29.2996 62.1106 29.2996 61.1422V48.5735C29.2996 47.3991 30.0826 46.6161 31.257 46.6161H105.886C107.061 46.6161 107.844 47.3991 107.844 48.5735V61.1422Z" fill="#1B2B4B"/>
<path d="M54.8285 41.3852C56.0029 41.3852 56.7859 40.4942 56.7859 39.1578V36.9303C56.7859 35.5939 57.5689 34.7029 58.7433 34.7029H78.3793C79.5538 34.7029 80.3368 35.5939 80.3368 36.9303V39.1578C80.3368 40.4942 81.1197 41.3852 82.2942 41.3852C83.4686 41.3852 84.2516 40.4942 84.2516 39.1578V36.9303C84.2516 33.132 81.6966 30.2246 78.3587 30.2246H58.7227C55.3848 30.2246 52.8298 33.132 52.8298 36.9303V39.1578C52.8504 40.4708 53.654 41.3852 54.8285 41.3852Z" fill="#1B2B4B"/>
</svg>
