<svg width="137" height="138" viewBox="0 0 137 138" fill="none" xmlns="http://www.w3.org/2000/svg">
<circle cx="68.4398" cy="69.0672" r="65.4842" stroke="#F2A446" stroke-width="5.84681"/>
<path d="M100.42 60.9958C102.356 60.9958 104.062 59.4204 104.062 57.4837V56.443H108.615V51.1676L68.8684 26.019L29.1221 51.1676V56.443H33.6748V57.4837C33.6748 59.4204 35.1346 60.9958 37.0713 60.9958H40.2944V89.5698H37.0713C35.1346 89.5698 33.6748 91.1452 33.6748 93.0819V94.5272H32.5186C30.5818 94.5272 29.1221 96.1026 29.1221 98.0538V103.633H108.615V98.0394C108.615 96.1026 106.909 94.5272 104.972 94.5272H104.062V93.0819C104.062 91.1452 102.356 89.5698 100.42 89.5698H97.8471V60.9958H100.42ZM33.5592 53.5379H32.0272V52.7575L68.8684 29.4445L105.71 52.7575V53.5379H103.932H33.5592ZM104.972 97.4323C105.319 97.4323 105.71 97.7069 105.71 98.0538V100.742H32.0272V98.0538C32.0272 97.7069 32.1861 97.4323 32.5186 97.4323H104.972ZM100.42 92.4604C100.767 92.4604 101.157 92.735 101.157 93.0819V94.1226H36.5799V93.0819C36.5799 92.735 36.7389 92.4604 37.0713 92.4604H40.1788H54.2562H62.1187H75.777H84.0587H97.717H100.42ZM43.1995 89.5553V61.4005H51.4812V89.5553H43.1995ZM54.3718 89.5553V60.9958H62.2344V89.5698H54.3718V89.5553ZM65.1395 89.5553V61.4005H73.002V89.5553H65.1395ZM75.9071 89.5553V60.9958H84.1888V89.5698H75.9071V89.5553ZM87.0794 89.5553V61.4005H94.942V89.5553H87.0794ZM37.0713 58.0907C36.7245 58.0907 36.5799 57.8161 36.5799 57.4692V56.4286H101.171V57.4692C101.171 57.8161 100.767 58.0907 100.434 58.0907H37.0713ZM69.143 34.7199C64.966 34.7199 61.5695 38.1164 61.5695 42.2934C61.5695 46.4703 64.966 49.8668 69.143 49.8668C73.32 49.8668 76.7165 46.4703 76.7165 42.2934C76.7309 38.1164 73.3344 34.7199 69.143 34.7199ZM69.143 46.9762C66.5559 46.9762 64.4602 44.8805 64.4602 42.2934C64.4602 39.7062 66.5559 37.6105 69.143 37.6105C71.7301 37.6105 73.8258 39.7062 73.8258 42.2934C73.8258 44.8805 71.7301 46.9762 69.143 46.9762Z" fill="#1B2B4B"/>
</svg>
