<svg width="137" height="138" viewBox="0 0 137 138" fill="none" xmlns="http://www.w3.org/2000/svg">
<circle cx="68.5822" cy="68.9364" r="65.4842" stroke="#F2A446" stroke-width="5.84681"/>
<path d="M57.4436 57.7977V59.8441H59.4899V57.7977H57.4436ZM57.4436 80.0748H59.4899V78.0284H57.4436V80.0748ZM79.7206 80.0748V78.0284H77.6743V80.0748H79.7206ZM79.7206 57.7977H77.6743V59.8441H79.7206V57.7977ZM59.4899 34.3939C59.4899 34.2324 59.6208 34.1016 59.7823 34.1016V30.0088C57.3605 30.0088 55.3972 31.9721 55.3972 34.3939H59.4899ZM59.4899 57.7977V34.3939H55.3972V57.7977H59.4899ZM34.0398 59.8441H57.4436V55.7513H34.0398V59.8441ZM33.7474 60.1364C33.7474 59.9749 33.8783 59.8441 34.0398 59.8441V55.7513C31.6179 55.7513 29.6547 57.7146 29.6547 60.1364H33.7474ZM33.7474 77.736V60.1364H29.6547V77.736H33.7474ZM34.0398 78.0284C33.8783 78.0284 33.7474 77.8975 33.7474 77.736H29.6547C29.6547 80.1579 31.6179 82.1211 34.0398 82.1211V78.0284ZM57.4436 78.0284H34.0398V82.1211H57.4436V78.0284ZM59.4899 103.478V80.0748H55.3972V103.478H59.4899ZM59.7823 103.771C59.6208 103.771 59.4899 103.64 59.4899 103.478H55.3972C55.3972 105.9 57.3604 107.864 59.7823 107.864V103.771ZM77.3819 103.771H59.7823V107.864H77.3819V103.771ZM77.6743 103.478C77.6743 103.64 77.5434 103.771 77.3819 103.771V107.864C79.8037 107.864 81.767 105.9 81.767 103.478H77.6743ZM77.6743 80.0748V103.478H81.767V80.0748H77.6743ZM103.124 78.0284H79.7206V82.1211H103.124V78.0284ZM103.417 77.736C103.417 77.8975 103.286 78.0284 103.124 78.0284V82.1211C105.546 82.1211 107.509 80.1579 107.509 77.736H103.417ZM103.417 60.1364V77.736H107.509V60.1364H103.417ZM103.124 59.8441C103.286 59.8441 103.417 59.9749 103.417 60.1364H107.509C107.509 57.7146 105.546 55.7513 103.124 55.7513V59.8441ZM79.7206 59.8441H103.124V55.7513H79.7206V59.8441ZM77.6743 34.3939V57.7977H81.767V34.3939H77.6743ZM77.3819 34.1016C77.5434 34.1016 77.6743 34.2324 77.6743 34.3939H81.767C81.767 31.9721 79.8037 30.0088 77.3819 30.0088V34.1016ZM59.7823 34.1016H77.3819V30.0088H59.7823V34.1016Z" fill="#1B2B4B"/>
</svg>
