<svg width="137" height="138" viewBox="0 0 137 138" fill="none" xmlns="http://www.w3.org/2000/svg">
<circle cx="68.5822" cy="68.7779" r="65.4842" stroke="#F2A446" stroke-width="5.84681"/>
<path d="M29.915 77.2443C29.2339 77.53 28.6846 77.9914 28.2672 78.5846C28.0694 78.8922 27.9156 79.1998 27.8058 79.5513C27.6959 79.9029 27.63 80.2764 27.63 80.6499V105.082C27.63 105.587 27.7399 106.093 27.9156 106.532C28.2013 107.213 28.6627 107.763 29.2559 108.18C29.5635 108.378 29.8711 108.532 30.2226 108.641C30.5742 108.751 30.9477 108.817 31.3212 108.817H40.7249C41.2303 108.817 41.7356 108.707 42.1751 108.532C42.8342 108.246 43.4055 107.785 43.8009 107.191C43.9328 106.994 44.0426 106.774 44.1525 106.554H45.9102H64.1245C65.3768 106.554 66.761 106.444 68.2331 106.247C70.4302 105.961 72.8032 105.5 75.1541 104.972C77.505 104.445 79.834 103.852 81.8773 103.28C83.9646 102.709 85.7663 102.182 87.4361 101.633C88.6885 101.215 89.8529 100.798 90.9954 100.314C92.6872 99.5892 94.2912 98.7763 95.939 97.7436C97.5649 96.711 99.2347 95.4806 101.08 93.9646C101.278 93.7888 101.476 93.635 101.696 93.4592L108.023 88.0982C108.682 87.5269 109.21 86.8458 109.583 86.0768C109.935 85.3298 110.111 84.5169 110.111 83.7039C110.111 82.847 109.913 82.0121 109.539 81.2212C109.166 80.4302 108.573 79.7271 107.847 79.1558C107.254 78.6944 106.595 78.3429 105.892 78.1232C105.211 77.9035 104.486 77.7717 103.761 77.7717C103.124 77.7717 102.465 77.8595 101.849 78.0573C102.025 77.0027 102.135 75.948 102.135 74.8714V74.8495C102.135 72.125 101.717 69.3127 100.97 66.5223C99.8279 62.3477 97.9384 58.2391 95.4337 54.6138C94.1813 52.7902 92.7751 51.0984 91.2371 49.6044C90.6879 49.0551 90.1166 48.5497 89.5234 48.0444C89.787 48.0664 90.0287 48.0664 90.2704 48.0664C90.4681 48.0664 90.6659 48.0664 90.8636 48.0444C91.7425 47.9565 92.5774 47.7588 93.3903 47.4292C94.5988 46.9678 95.6973 46.2647 96.6201 45.3858C97.5649 44.507 98.3339 43.4304 98.8392 42.2C99.2347 41.2113 98.7733 40.0907 97.7846 39.6953C96.7959 39.2998 95.6754 39.7612 95.2579 40.7499C95.0821 41.1893 94.8185 41.6287 94.4889 42.0242C94.0055 42.6175 93.3903 43.1448 92.6872 43.5183C91.9842 43.8918 91.2152 44.1335 90.4681 44.2214C90.4462 44.2214 90.3583 44.2214 90.2484 44.2214C90.0727 44.2214 89.8529 44.2214 89.5893 44.1994C89.5234 44.1994 89.4355 44.1994 89.3476 44.1774C90.4901 43.2766 91.4568 42.2 92.2258 40.9916C93.4123 39.146 94.0714 37.0148 94.1593 34.8176C94.2033 33.763 93.3903 32.8622 92.3137 32.8182C91.2591 32.7743 90.3583 33.5872 90.2924 34.6638C90.2265 36.1579 89.7651 37.6519 88.9521 38.9263C88.2271 40.0688 87.2603 41.0355 86.1178 41.7386C85.7223 41.9803 85.2829 42.2 84.7995 42.3758C85.2609 41.2992 85.7223 40.0907 86.1398 38.8164C86.4913 37.7618 86.7989 36.6852 87.0626 35.5646C87.3262 34.4441 87.524 33.3236 87.6119 32.1811C87.6338 32.0273 87.6338 31.8735 87.6338 31.6977C87.6338 31.0385 87.502 30.4014 87.2823 29.8081C86.9307 28.9293 86.3595 28.1383 85.6125 27.5451C85.239 27.2595 84.8215 27.0178 84.3601 26.82C83.8987 26.6443 83.4153 26.5124 82.91 26.4685C82.7562 26.4685 82.6244 26.4465 82.4706 26.4465C82.163 26.4465 81.8114 26.4685 81.4599 26.5783C81.1962 26.6443 80.9326 26.7541 80.6689 26.8859C80.2954 27.0837 79.9439 27.3693 79.6363 27.7209C79.4165 27.5231 79.1749 27.3473 78.9112 27.1716C78.6036 26.9738 78.2521 26.7981 77.8785 26.6662C77.7467 26.6003 77.6149 26.5564 77.4831 26.5124C77.4171 26.4905 77.3293 26.4685 77.2414 26.4465C76.758 26.3147 76.2307 26.2488 75.6814 26.2488C75.6594 26.2488 75.6375 26.2488 75.6375 26.2488C75.6155 26.2488 75.5935 26.2488 75.5715 26.2488C75.0223 26.2488 74.4949 26.3147 73.9896 26.4465C73.9017 26.4685 73.8138 26.4905 73.7479 26.5124C73.6161 26.5564 73.4843 26.6003 73.3524 26.6662C73.0229 26.7761 72.7372 26.9299 72.4516 27.1057C72.122 27.3034 71.8364 27.5231 71.5728 27.7428C71.419 27.5671 71.2432 27.3913 71.0674 27.2375C70.6939 26.9519 70.2984 26.7541 69.9029 26.6223C69.5075 26.5124 69.112 26.4685 68.7604 26.4685C68.6066 26.4685 68.4528 26.4685 68.299 26.4905C67.6179 26.5564 66.9807 26.7541 66.4095 27.0617C65.5526 27.5231 64.8495 28.2042 64.3661 28.9952C63.8828 29.8081 63.6191 30.7529 63.6191 31.7416C63.6191 31.9174 63.6191 32.0712 63.6411 32.247C63.7729 33.6971 64.0585 35.1692 64.4321 36.5753C65.0033 38.7065 65.7503 40.7059 66.4534 42.4417C66.783 43.2107 67.0906 43.9357 67.3982 44.5509C66.0799 45.1881 64.8275 45.9351 63.6191 46.814C61.8394 48.1103 57.6429 52.5777 56.1489 54.2695C55.4458 55.0604 55.5337 56.2908 56.3246 56.9939C57.1156 57.697 58.346 57.6091 59.0491 56.8182C60.3674 55.3021 64.3661 51.0325 65.9041 49.9339C67.3323 48.9013 68.8263 48.0664 70.3863 47.4731H81.4379L84.2283 48.9892C86.2277 50.2195 88.1172 51.8454 89.809 53.7569C92.3577 56.6352 94.4889 60.1506 95.961 63.8418C97.4331 67.533 98.246 71.378 98.246 74.8934V74.9154C98.246 75.992 98.1142 77.0905 97.8725 78.1891L97.2134 81.1113C96.9497 81.2871 96.73 81.4189 96.5103 81.5507C96.2686 81.6826 96.0269 81.7924 95.7632 81.9023C95.3678 82.078 94.9064 82.2318 94.2912 82.4516C93.676 82.6713 92.9289 82.913 91.9842 83.2645C90.4242 83.8138 88.8203 84.2752 87.1944 84.6487C87.3921 84.3411 87.5899 84.0115 87.7217 83.6819C87.9854 83.0668 88.0952 82.4296 88.0952 81.7924C88.0952 81.0674 87.9195 80.3423 87.6338 79.7271C87.1944 78.7823 86.4694 77.9694 85.5905 77.4201C84.7116 76.8489 83.635 76.5413 82.4706 76.5413C82.3827 76.5413 82.3168 76.5413 82.2289 76.5413L63.9926 77.2443C60.5431 77.3762 57.0936 77.7716 53.732 78.4308L53.6881 78.255C53.4244 77.1784 53.2926 76.0579 53.2926 74.9373V74.9154C53.2926 72.938 53.5562 70.8726 54.0396 68.7634C54.523 66.6761 55.4238 63.0197 56.3246 60.9764C56.7641 60.0097 56.3246 58.8671 55.3579 58.4277C54.3911 57.9883 53.2486 58.4277 52.8092 59.3945C51.7985 61.6575 50.8318 65.5336 50.2825 67.8845C49.7332 70.2355 49.4476 72.6084 49.4476 74.8934V74.9154C49.4476 76.3215 49.6234 77.7277 49.931 79.1119L49.9749 79.2437C48.371 79.6612 46.789 80.1226 45.2291 80.6499L44.3722 80.9355V80.6938C44.3722 80.1885 44.2623 79.6832 44.0866 79.2437C43.8009 78.5626 43.3395 78.0133 42.7463 77.6179C42.4387 77.4201 42.1091 77.2663 41.7796 77.1565C41.428 77.0466 41.0545 76.9807 40.681 76.9807H31.3651C30.8598 76.9367 30.3764 77.0466 29.915 77.2443ZM67.7058 31.1923C67.7937 30.9507 67.9695 30.7309 68.1452 30.5771C68.2331 30.4893 68.343 30.4453 68.4528 30.4014C68.5627 30.3574 68.6725 30.3355 68.8044 30.3135H68.8263C69.1559 31.2583 69.3536 31.8295 69.5074 32.1591C69.5294 32.247 69.5734 32.3129 69.5953 32.3788C69.6173 32.4227 69.6393 32.4667 69.6612 32.5106C69.6832 32.5546 69.6832 32.5765 69.7052 32.6205C69.7272 32.6424 69.7272 32.6864 69.7491 32.7084C69.7711 32.7303 69.7711 32.7743 69.815 32.8182C69.837 32.8402 69.859 32.8841 69.881 32.9281C69.9029 32.972 69.9249 32.994 69.9688 33.0599C69.9908 33.1038 70.0348 33.1478 70.0787 33.1917C70.1226 33.2357 70.1666 33.2796 70.2105 33.3236C70.2984 33.3895 70.4302 33.4774 70.606 33.5872C70.6939 33.6312 70.8257 33.6751 70.9576 33.719C71.0894 33.763 71.2652 33.785 71.4409 33.785C71.5728 33.785 71.7046 33.785 71.8364 33.741C72.1001 33.6971 72.3418 33.5652 72.5395 33.4334C72.7153 33.3016 72.8471 33.1698 72.935 33.0599C73.0229 32.95 73.0888 32.8402 73.1327 32.7523C73.2206 32.5985 73.2426 32.4667 73.2865 32.3788C73.3305 32.247 73.3305 32.1371 73.3524 32.0712C73.3744 32.0273 73.3964 31.9613 73.4184 31.8954C73.4623 31.7636 73.5502 31.5878 73.6381 31.4121C73.7699 31.1484 73.9676 30.8847 74.1874 30.687C74.2972 30.5771 74.4071 30.4893 74.5389 30.4233C74.6707 30.3574 74.8026 30.2915 74.9564 30.2256C74.9783 30.2256 74.9783 30.2256 75.0003 30.2036L75.0442 30.1817C75.22 30.1377 75.4178 30.0938 75.6814 30.0938H75.7034H75.7693C75.7913 30.0938 75.7913 30.0938 75.7913 30.0938C76.0549 30.0938 76.2527 30.1157 76.4284 30.1817L76.4724 30.2036C76.4943 30.2036 76.4943 30.2036 76.5163 30.2256C76.6701 30.2695 76.8019 30.3355 76.9118 30.4014C77.1315 30.5332 77.3073 30.687 77.4611 30.8847C77.5709 31.0385 77.6808 31.1923 77.7907 31.3461C77.9225 31.5878 78.0323 31.8295 78.0763 32.0053C78.0763 32.0273 78.0763 32.0492 78.0983 32.0492C78.0983 32.1151 78.1202 32.1811 78.1422 32.2909C78.1642 32.3788 78.1861 32.4667 78.2521 32.5985C78.296 32.6864 78.3399 32.7962 78.4278 32.9281C78.4937 33.016 78.5816 33.1258 78.6695 33.2137C78.8233 33.3675 79.0211 33.5213 79.2847 33.6092C79.5264 33.719 79.7901 33.763 80.0317 33.763C80.1855 33.763 80.3174 33.741 80.4492 33.719C80.6909 33.6531 80.8667 33.5872 80.9985 33.4993C81.1303 33.4334 81.2182 33.3675 81.2841 33.3016C81.4159 33.1917 81.4818 33.1038 81.5478 33.0379C81.5917 32.972 81.6356 32.9281 81.6576 32.8841C81.7016 32.7962 81.7235 32.7523 81.7675 32.7084C81.8114 32.6205 81.8334 32.5765 81.8554 32.5326C81.8993 32.4447 81.9213 32.3568 81.9872 32.247C82.0531 32.0712 82.141 31.8515 82.2508 31.5219C82.3607 31.2143 82.5145 30.7969 82.6903 30.2915C82.6903 30.2915 82.6903 30.2915 82.7122 30.2915C82.888 30.3135 83.0418 30.3574 83.1736 30.4233C83.3934 30.5332 83.5691 30.709 83.701 30.9287C83.8328 31.1484 83.9207 31.4121 83.9207 31.6757C83.9207 31.7197 83.9207 31.7636 83.9207 31.8075C83.8328 32.7303 83.679 33.6751 83.4593 34.6638C83.1297 36.1359 82.6463 37.608 82.141 38.9702C81.6356 40.3544 81.0864 41.6068 80.603 42.6394L80.581 42.6834L80.2075 43.5622H71.353C70.8257 42.4417 70.1226 40.9257 69.4855 39.2119C69.0461 38.0474 68.6286 36.795 68.299 35.5427C67.9695 34.2903 67.7278 33.016 67.6179 31.8515C67.6179 31.8075 67.6179 31.7636 67.6179 31.7197C67.5959 31.5439 67.6399 31.3461 67.7058 31.1923ZM40.659 81.5068V83.5721C40.659 83.5721 40.659 83.5721 40.659 83.5941V104.621V104.972H31.497V80.8037H40.659V81.5068ZM46.5693 84.2752C48.7884 83.5282 51.0515 82.891 53.3585 82.3856C56.9178 81.6166 60.5651 81.1552 64.2563 81.0014L82.4925 80.2984C82.5145 80.2984 82.5584 80.2984 82.5804 80.2984C82.866 80.2984 83.1077 80.3423 83.3274 80.4302C83.657 80.562 83.9207 80.7817 84.0964 81.0014C84.1843 81.1113 84.2502 81.2431 84.2722 81.353C84.3162 81.4628 84.3381 81.5947 84.3381 81.7045C84.3381 81.8364 84.3162 81.9682 84.2502 82.144C84.2063 82.2538 84.1404 82.3637 84.0745 82.4516C83.9646 82.6054 83.7888 82.7372 83.5911 82.847C83.3934 82.9569 83.1517 83.0448 82.91 83.0887L68.9142 85.2199C68.6945 85.2639 68.4309 85.3298 68.2111 85.4616C68.0354 85.5495 67.8816 85.6813 67.7278 85.8132C67.5081 86.0329 67.3543 86.2746 67.2444 86.5382C67.1345 86.8019 67.0906 87.0655 67.0906 87.3512C67.0906 87.6148 67.1345 87.8785 67.2444 88.1421C67.3323 88.3399 67.4202 88.5157 67.552 88.6914C67.7497 88.9551 68.0134 89.1528 68.321 89.3066C68.6066 89.4385 68.8923 89.5044 69.1779 89.5044C69.1998 89.5044 69.2218 89.5044 69.2658 89.5044H69.2877L78.9332 89.3945C83.9207 89.3286 88.8203 88.4497 93.4123 86.8019C94.3351 86.4723 95.0602 86.2306 95.6973 86.0109C96.3345 85.7912 96.8838 85.5935 97.4111 85.3518C97.7626 85.198 98.1361 85.0222 98.4877 84.8245C99.015 84.5388 99.5423 84.1873 100.114 83.7698C100.685 83.3524 101.322 82.847 102.091 82.2099C102.333 82.0121 102.596 81.8583 102.904 81.7704C103.212 81.6606 103.519 81.6166 103.849 81.6166C104.156 81.6166 104.464 81.6606 104.75 81.7704C105.035 81.8583 105.299 82.0121 105.541 82.1879C105.826 82.4076 106.024 82.6713 106.156 82.913C106.288 83.1766 106.331 83.4403 106.331 83.7039C106.331 83.9456 106.288 84.2093 106.156 84.4509C106.046 84.6926 105.87 84.9343 105.606 85.154L99.2787 90.537C99.0809 90.6908 98.9051 90.8446 98.7074 91.0204C97.1474 92.3167 95.7632 93.3274 94.4669 94.2062C92.4895 95.4806 90.6879 96.4034 88.5786 97.2163C86.4693 98.0293 84.0525 98.7323 80.9545 99.5892C78.274 100.314 75.1321 101.127 72.144 101.72C70.65 102.028 69.1779 102.27 67.8376 102.445C66.4974 102.621 65.245 102.731 64.2343 102.731H45.9761H44.504V84.9783L46.5474 84.2972L46.5693 84.2752Z" fill="#1B2B4B"/>
<path d="M36.1989 88.1422C35.1442 88.1422 34.2654 88.9991 34.2654 90.0757V102.336C34.2654 103.39 35.1223 104.269 36.1989 104.269C37.2535 104.269 38.1323 103.412 38.1323 102.336V90.0757C38.1104 89.0211 37.2535 88.1422 36.1989 88.1422Z" fill="#1B2B4B"/>
</svg>
