<svg width="138" height="138" viewBox="0 0 138 138" fill="none" xmlns="http://www.w3.org/2000/svg">
<circle cx="69.1534" cy="69.1688" r="65.4842" stroke="#F2A446" stroke-width="5.84681"/>
<path d="M101.518 68.2407C101.482 67.9108 101.347 67.5932 101.091 67.3488L70.362 36.62C69.7755 36.0336 68.8347 36.0336 68.2483 36.62L37.3973 67.4832C37.2507 67.6298 37.1407 67.8009 37.0674 67.9964C36.9575 68.2163 36.8964 68.4607 36.8964 68.7172V104.272C36.8964 105.189 37.6295 105.922 38.5458 105.922H58.2416V78.6628C58.2416 77.7465 58.9746 77.0134 59.891 77.0134H78.5849C79.5012 77.0134 80.2343 77.7465 80.2343 78.6628V105.922H99.93C100.846 105.922 101.58 105.189 101.58 104.272V68.7172C101.58 68.5462 101.555 68.3873 101.518 68.2407Z" stroke="#1B2B4B" stroke-width="3.50808"/>
<path d="M112.319 68.8265L100.211 56.7183V44.6345C100.993 44.5001 101.58 43.8281 101.58 43.0095V40.2604C101.58 39.344 100.846 38.6109 99.9301 38.6109H82.0915L71.1929 27.6879C71.1196 27.6146 71.034 27.5413 70.9485 27.4679L70.7408 27.2602C70.3498 26.8693 69.8122 26.7104 69.2257 26.7471C68.6515 26.7104 68.1017 26.8693 67.7107 27.2602L67.503 27.4679C67.4174 27.5413 67.3441 27.6023 67.2586 27.6879L26.1566 68.8265C25.0814 69.9017 24.8981 71.4535 25.729 72.2965L27.4884 74.0559C28.3314 74.899 29.8831 74.7035 30.9583 73.6283L69.238 35.3365L107.518 73.6161C108.593 74.6913 110.144 74.8746 110.988 74.0437L112.747 72.2843C113.59 71.4535 113.395 69.9017 112.319 68.8265Z" stroke="#1B2B4B" stroke-width="3.50808"/>
</svg>
