<svg width="138" height="138" viewBox="0 0 138 138" fill="none" xmlns="http://www.w3.org/2000/svg">
<circle cx="69.011" cy="69.0672" r="65.4842" stroke="#F2A446" stroke-width="5.84681"/>
<path d="M87.5794 111.779C73.7691 111.779 62.5428 100.553 62.5428 86.7426C62.5428 72.9323 73.7691 61.7061 87.5794 61.7061C101.432 61.7061 112.701 72.9323 112.701 86.7426C112.701 100.553 101.432 111.779 87.5794 111.779ZM87.5794 64.8833C75.506 64.8833 65.6777 74.7115 65.6777 86.785C65.6777 98.8585 75.506 108.687 87.5794 108.687C99.6953 108.687 109.566 98.8585 109.566 86.785C109.566 74.6692 99.6953 64.8833 87.5794 64.8833Z" fill="#1B2B4B" stroke="#1B2B4B" stroke-width="0.6"/>
<path d="M56.8238 52.3017C44.4537 52.3017 31.3212 48.9127 31.3212 42.6006C31.3212 36.2461 44.1572 32.8994 56.8238 32.8994C69.5327 32.8994 82.4111 36.2461 82.4111 42.6006C82.4111 48.9127 69.2361 52.3017 56.8238 52.3017ZM56.8238 36.0343C42.971 36.0343 34.456 39.847 34.456 42.6006C34.456 45.2694 43.1828 49.1668 56.8238 49.1668C70.5494 49.1668 79.2762 45.2694 79.2762 42.6006C79.2762 39.847 70.7188 36.0343 56.8238 36.0343Z" fill="#1B2B4B" stroke="#1B2B4B" stroke-width="0.6"/>
<path d="M56.8238 100.977C44.1572 100.977 31.3212 97.6304 31.3212 91.2759C31.3212 90.4287 32.0413 89.7085 32.8886 89.7085C33.7359 89.7085 34.456 90.4287 34.456 91.2759C34.456 94.0295 43.1828 97.8846 56.9508 97.8422C57.7557 97.8422 58.603 97.8422 59.4079 97.7575C60.2552 97.6728 61.0601 98.3082 61.1448 99.1555C61.2295 100.003 60.5941 100.808 59.7468 100.892C58.7725 100.977 57.7981 100.977 56.8238 100.977Z" fill="#1B2B4B" stroke="#1B2B4B" stroke-width="0.6"/>
<path d="M80.8437 58.3173C79.9964 58.3173 79.2762 57.5972 79.2762 56.7499V42.6006C79.2762 41.7534 79.9964 41.0332 80.8437 41.0332C81.6909 41.0332 82.4111 41.7534 82.4111 42.6006V56.7499C82.4111 57.5972 81.6909 58.3173 80.8437 58.3173Z" fill="#1B2B4B" stroke="#1B2B4B" stroke-width="0.6"/>
<path d="M32.8886 92.8433C32.0413 92.8433 31.3212 92.1231 31.3212 91.2758V42.6006C31.3212 41.7534 32.0413 41.0332 32.8886 41.0332C33.7359 41.0332 34.456 41.7534 34.456 42.6006V91.2758C34.456 92.1655 33.7782 92.8433 32.8886 92.8433Z" fill="#1B2B4B" stroke="#1B2B4B" stroke-width="0.6"/>
<path d="M59.1114 76.7879H56.7814C44.1572 76.7879 31.3212 73.4835 31.3212 67.1714C31.3212 66.3242 32.0413 65.604 32.8886 65.604C33.7359 65.604 34.456 66.3242 34.456 67.1714C34.456 69.798 43.1828 73.653 56.8238 73.653H59.1537C60.001 73.653 60.7212 74.3732 60.7212 75.2204C60.7212 76.0677 60.001 76.7879 59.1114 76.7879Z" fill="#1B2B4B" stroke="#1B2B4B" stroke-width="0.6"/>
<path d="M56.8237 88.9883C44.4537 88.9883 31.3212 85.5993 31.3212 79.2872C31.3212 78.4399 32.0413 77.7197 32.8886 77.7197C33.7359 77.7197 34.456 78.4399 34.456 79.2872C34.456 81.956 43.1828 85.8534 56.8237 85.8534C57.671 85.8534 58.3912 86.5736 58.3912 87.4209C58.3912 88.2681 57.671 88.9883 56.8237 88.9883Z" fill="#1B2B4B" stroke="#1B2B4B" stroke-width="0.6"/>
<path d="M56.8238 64.6714C44.1572 64.6714 31.3212 61.3671 31.3212 54.9703C31.3212 54.123 32.0413 53.4028 32.8886 53.4028C33.7359 53.4028 34.456 54.123 34.456 54.9703C34.456 57.7239 42.971 61.5365 56.8238 61.5365C61.0601 61.5365 65.3387 61.1129 69.1938 60.3504C70.041 60.1809 70.8883 60.7316 71.0578 61.5789C71.2272 62.4262 70.6765 63.2734 69.8292 63.4429C65.7624 64.2478 61.2719 64.6714 56.8238 64.6714ZM80.2082 58.4864C79.954 58.4864 79.6575 58.4017 79.4456 58.2746C78.6831 57.851 78.4289 56.8766 78.8526 56.1141C79.1491 55.6057 79.2762 55.2244 79.2762 54.9703C79.2762 54.123 79.9964 53.4028 80.8436 53.4028C81.6909 53.4028 82.4111 54.123 82.4111 54.9703C82.4111 56.0717 81.9451 57.0037 81.5638 57.6815C81.2673 58.1899 80.7589 58.4864 80.2082 58.4864Z" fill="#1B2B4B" stroke="#1B2B4B" stroke-width="0.6"/>
<path d="M81.3943 98.3924C81.0978 98.3924 80.8436 98.3077 80.5894 98.1383C79.8692 97.6723 79.6151 96.6979 80.081 95.9777L92.5358 75.8553C93.0018 75.1351 93.9761 74.8809 94.6963 75.3469C95.4165 75.8129 95.6707 76.7873 95.2047 77.5074L82.7499 97.6299C82.4534 98.1383 81.9027 98.3924 81.3943 98.3924Z" fill="#1B2B4B" stroke="#1B2B4B" stroke-width="0.6"/>
<path d="M80.5471 85.8538C77.7935 85.8538 75.5482 83.2697 75.5482 80.1348C75.5482 77.0423 77.7935 74.5005 80.5471 74.5005C83.3007 74.5005 85.5459 77.0423 85.5459 80.1348C85.5459 83.2697 83.3007 85.8538 80.5471 85.8538ZM80.5471 77.6354C79.6574 77.6354 78.6831 78.6944 78.6831 80.1348C78.6831 81.6599 79.6574 82.7189 80.5471 82.7189C81.4367 82.7189 82.411 81.6599 82.411 80.1348C82.411 78.6944 81.4367 77.6354 80.5471 77.6354Z" fill="#1B2B4B" stroke="#1B2B4B" stroke-width="0.6"/>
<path d="M94.6964 99.0701C91.9428 99.0701 89.6975 96.486 89.6975 93.3511C89.6975 90.2586 91.9428 87.7168 94.6964 87.7168C97.45 87.7168 99.6952 90.2586 99.6952 93.3511C99.6952 96.486 97.45 99.0701 94.6964 99.0701ZM94.6964 90.8093C93.8067 90.8093 92.8324 91.8684 92.8324 93.3087C92.8324 94.8338 93.8067 95.8929 94.6964 95.8929C95.586 95.8929 96.5603 94.8338 96.5603 93.3087C96.5603 91.9107 95.586 90.8093 94.6964 90.8093Z" fill="#1B2B4B" stroke="#1B2B4B" stroke-width="0.6"/>
</svg>
