<svg width="138" height="138" viewBox="0 0 138 138" fill="none" xmlns="http://www.w3.org/2000/svg">
<circle cx="68.8683" cy="69.1688" r="65.4842" stroke="#F2A446" stroke-width="5.84681"/>
<path d="M107.844 69.4985C106.669 69.4985 105.886 70.2815 105.886 71.456V96.9849C105.886 98.1593 105.103 98.9423 103.929 98.9423H33.2143C32.0399 98.9423 31.2569 98.1593 31.2569 96.9849V71.456C31.2569 70.2815 30.4739 69.4985 29.2995 69.4985C28.125 69.4985 27.342 70.2815 27.342 71.456V96.9849C27.342 100.323 29.897 102.878 33.2349 102.878H103.929C107.267 102.878 109.822 100.323 109.822 96.9849V71.456C109.822 70.2815 109.039 69.4985 107.844 69.4985Z" fill="#1B2B4B"/>
<path d="M103.929 103.187H33.2142C31.5247 103.187 29.9381 102.548 28.7843 101.394C27.6304 100.24 26.9917 98.6743 26.9917 96.9641V71.4558C26.9917 70.1165 27.9395 69.1687 29.2788 69.1687C30.6181 69.1687 31.5659 70.1165 31.5659 71.4558V96.9847C31.5659 97.9943 32.2046 98.6331 33.2142 98.6331H103.908C104.918 98.6331 105.556 97.9943 105.556 96.9847V71.4558C105.556 70.1165 106.504 69.1687 107.844 69.1687C109.183 69.1687 110.131 70.1165 110.131 71.4558V96.9847C110.131 98.6743 109.492 100.261 108.338 101.415C107.184 102.569 105.618 103.187 103.929 103.187ZM29.2994 69.8074C28.2898 69.8074 27.651 70.4462 27.651 71.4558V96.9847C27.651 100.158 30.0412 102.568 33.2348 102.568H103.929C107.102 102.568 109.512 100.178 109.512 96.9847V71.4558C109.512 70.4462 108.874 69.8074 107.864 69.8074C106.854 69.8074 106.216 70.4462 106.216 71.4558V96.9847C106.216 98.324 105.268 99.2718 103.929 99.2718H33.2142C31.8749 99.2718 30.9271 98.324 30.9271 96.9847V71.4558C30.9477 70.4462 30.2884 69.8074 29.2994 69.8074Z" fill="#1B2B4B"/>
<path d="M105.886 42.7812H31.2571C27.9192 42.7812 25.3643 45.3362 25.3643 48.6741V61.2428C25.3643 63.9832 27.3217 66.3527 29.8766 66.9296L60.7215 73.8115V80.0959C60.7215 81.2703 61.5044 82.0533 62.6789 82.0533H74.4646C75.6391 82.0533 76.4221 81.2703 76.4221 80.0959V73.8115L107.267 66.9296C109.822 66.3321 111.779 63.9832 111.779 61.2428V48.6741C111.779 45.3362 109.224 42.7812 105.886 42.7812ZM72.5072 78.1385H64.6569V70.2882H72.5072V78.1385ZM107.844 61.2428C107.844 62.2318 107.246 63.0148 106.278 63.2002L76.4221 69.8761V68.3101C76.4221 67.1357 75.6391 66.3527 74.4646 66.3527H62.6789C61.5044 66.3527 60.7215 67.1357 60.7215 68.3101V69.8761L30.8656 63.2002C29.8766 62.9942 29.2997 62.2112 29.2997 61.2428V48.6741C29.2997 47.4997 30.0827 46.7167 31.2571 46.7167H105.886C107.061 46.7167 107.844 47.4997 107.844 48.6741V61.2428Z" fill="#1B2B4B"/>
<path d="M74.4645 82.3831H62.6787C61.3394 82.3831 60.3916 81.4353 60.3916 80.096V74.0589L29.794 67.2388C27.033 66.6001 25.0344 64.0863 25.0344 61.2429V48.6742C25.0344 46.9846 25.6732 45.3981 26.827 44.2442C27.9809 43.0904 29.5468 42.4517 31.257 42.4517H105.886C107.576 42.4517 109.162 43.0904 110.316 44.2442C111.47 45.3981 112.109 46.964 112.109 48.6742V61.2429C112.109 64.0863 110.11 66.6001 107.349 67.2388L76.7516 74.0589V80.096C76.7516 81.4353 75.8038 82.3831 74.4645 82.3831ZM31.257 43.111C28.0839 43.111 25.6732 45.5011 25.6732 48.6948V61.2635C25.6732 63.8185 27.4657 66.085 29.9383 66.6413L61.0304 73.5644V80.096C61.0304 81.1056 61.6691 81.7443 62.6787 81.7443H74.4645C75.4741 81.7443 76.1128 81.1056 76.1128 80.096V73.5644L76.3601 73.5026L107.205 66.6207C109.677 66.0437 111.47 63.7773 111.47 61.2429V48.6742C111.47 45.5011 109.08 43.0904 105.886 43.0904H31.257V43.111ZM72.8161 78.4476H64.3271V69.9586H72.8161V78.4476ZM64.9658 77.8295H72.198V70.5973H64.9658V77.8295ZM76.1128 70.2883V68.3308C76.1128 67.3212 75.4741 66.6825 74.4645 66.6825H62.6787C61.6691 66.6825 61.0304 67.3212 61.0304 68.3308V70.2883L30.7831 63.53C29.691 63.3034 28.9699 62.4174 28.9699 61.2635V48.6948C28.9699 47.3555 29.9177 46.4077 31.257 46.4077H105.886C107.226 46.4077 108.173 47.3555 108.173 48.6948V61.2635C108.173 62.4174 107.452 63.324 106.34 63.53L76.1128 70.2883ZM31.257 47.0258C30.2473 47.0258 29.6086 47.6646 29.6086 48.6742V61.2429C29.6086 62.1083 30.1031 62.7264 30.9273 62.8913L60.3916 69.4847V68.3102C60.3916 66.9709 61.3394 66.0231 62.6787 66.0231H74.4645C75.8038 66.0231 76.7516 66.9709 76.7516 68.3102V69.4847L106.216 62.8913C107.04 62.7264 107.535 62.0877 107.535 61.2429V48.6742C107.535 47.6646 106.896 47.0258 105.886 47.0258H31.257Z" fill="#1B2B4B"/>
<path d="M54.8285 40.1329C56.0029 40.1329 56.7859 39.3499 56.7859 38.1755V36.2181C56.7859 35.0436 57.5689 34.2606 58.7433 34.2606H78.3793C79.5538 34.2606 80.3368 35.0436 80.3368 36.2181V38.1755C80.3368 39.3499 81.1197 40.1329 82.2942 40.1329C83.4686 40.1329 84.2516 39.3499 84.2516 38.1755V36.2181C84.2516 32.8801 81.6966 30.3252 78.3587 30.3252H58.7227C55.3848 30.3252 52.8298 32.8801 52.8298 36.2181V38.1755C52.8504 39.3293 53.654 40.1329 54.8285 40.1329Z" fill="#1B2B4B"/>
<path d="M82.3148 40.4417C80.9755 40.4417 80.0277 39.4939 80.0277 38.1546V36.1972C80.0277 35.1875 79.3889 34.5488 78.3793 34.5488H58.7433C57.7337 34.5488 57.0949 35.1875 57.0949 36.1972V38.1546C57.0949 39.4939 56.1471 40.4417 54.8078 40.4417C53.4686 40.4417 52.5208 39.4939 52.5208 38.1546V36.1972C52.5208 34.5076 53.1595 32.921 54.3133 31.7672C55.4672 30.6133 57.0331 29.9746 58.7433 29.9746H78.3793C80.0689 29.9746 81.6554 30.6133 82.8093 31.7672C83.9631 32.921 84.6019 34.487 84.6019 36.1972V38.1546C84.6019 39.4939 83.6541 40.4417 82.3148 40.4417ZM58.7433 33.9101H78.3793C79.7186 33.9101 80.6664 34.8579 80.6664 36.1972V38.1546C80.6664 39.1642 81.3052 39.8029 82.3148 39.8029C83.3244 39.8029 83.9631 39.1642 83.9631 38.1546V36.1972C83.9631 33.0241 81.573 30.6133 78.3793 30.6133H58.7433C55.5702 30.6133 53.1595 33.0035 53.1595 36.1972V38.1546C53.1595 39.1642 53.7982 39.8029 54.8078 39.8029C55.8175 39.8029 56.4562 39.1642 56.4562 38.1546V36.1972C56.4768 34.8579 57.404 33.9101 58.7433 33.9101Z" fill="#1B2B4B"/>
</svg>
