<svg width="138" height="138" viewBox="0 0 138 138" fill="none" xmlns="http://www.w3.org/2000/svg">
<circle cx="69.011" cy="69.1688" r="65.4842" stroke="#F2A446" stroke-width="5.84681"/>
<path d="M96.9861 36.7297H41.036V109.375H96.9861V36.7297Z" stroke="#1B2B4B" stroke-width="3.50808" stroke-miterlimit="10" stroke-linecap="round" stroke-linejoin="round"/>
<path d="M87.05 80.5864H81.1863V86.6402H87.05V80.5864Z" stroke="#1B2B4B" stroke-width="3.50808" stroke-miterlimit="10" stroke-linecap="round" stroke-linejoin="round"/>
<path d="M87.05 65.574H81.1863V71.6278H87.05V65.574Z" stroke="#1B2B4B" stroke-width="3.50808" stroke-miterlimit="10" stroke-linecap="round" stroke-linejoin="round"/>
<path d="M87.05 50.5615H81.1863V56.6153H87.05V50.5615Z" stroke="#1B2B4B" stroke-width="3.50808" stroke-miterlimit="10" stroke-linecap="round" stroke-linejoin="round"/>
<path d="M71.6036 80.5864H65.7399V86.6402H71.6036V80.5864Z" stroke="#1B2B4B" stroke-width="3.50808" stroke-miterlimit="10" stroke-linecap="round" stroke-linejoin="round"/>
<path d="M71.6036 65.574H65.7399V71.6278H71.6036V65.574Z" stroke="#1B2B4B" stroke-width="3.50808" stroke-miterlimit="10" stroke-linecap="round" stroke-linejoin="round"/>
<path d="M71.6036 50.5615H65.7399V56.6153H71.6036V50.5615Z" stroke="#1B2B4B" stroke-width="3.50808" stroke-miterlimit="10" stroke-linecap="round" stroke-linejoin="round"/>
<path d="M56.1573 80.5864H50.2936V86.6402H56.1573V80.5864Z" stroke="#1B2B4B" stroke-width="3.50808" stroke-miterlimit="10" stroke-linecap="round" stroke-linejoin="round"/>
<path d="M56.1573 65.574H50.2936V71.6278H56.1573V65.574Z" stroke="#1B2B4B" stroke-width="3.50808" stroke-miterlimit="10" stroke-linecap="round" stroke-linejoin="round"/>
<path d="M56.1573 50.5615H50.2936V56.6153H56.1573V50.5615Z" stroke="#1B2B4B" stroke-width="3.50808" stroke-miterlimit="10" stroke-linecap="round" stroke-linejoin="round"/>
<path d="M74.2097 100.471H61.2877V109.375H74.2097V100.471Z" stroke="#1B2B4B" stroke-width="3.50808" stroke-miterlimit="10" stroke-linecap="round" stroke-linejoin="round"/>
<path d="M67.7489 100.471V109.375" stroke="#1B2B4B" stroke-width="3.50808" stroke-miterlimit="10" stroke-linecap="round" stroke-linejoin="round"/>
<path d="M90.4435 31.0835H47.0082V36.7301H90.4435V31.0835Z" stroke="#1B2B4B" stroke-width="3.50808" stroke-miterlimit="10" stroke-linecap="round" stroke-linejoin="round"/>
<path d="M84.0907 25.4097H53.3602V31.0563H84.0907V25.4097Z" stroke="#1B2B4B" stroke-width="3.50808" stroke-miterlimit="10" stroke-linecap="round" stroke-linejoin="round"/>
</svg>
