<svg width="138" height="138" viewBox="0 0 138 138" fill="none" xmlns="http://www.w3.org/2000/svg">
<circle cx="68.8683" cy="69.0672" r="65.4842" stroke="#F2A446" stroke-width="5.84681"/>
<path d="M90.2214 80.9629C89.7416 80.9629 89.3479 80.5692 89.3479 80.0894V76.2015C89.3479 75.9678 89.1633 75.7709 88.9172 75.7709H85.0294C84.7957 75.7709 84.5742 75.6848 84.4143 75.5126L83.1224 74.2207C82.9625 74.0608 82.8641 73.8393 82.8641 73.6056V71.0096C82.8641 70.7758 82.6795 70.579 82.4335 70.579H79.8375C79.6037 70.579 79.3823 70.4929 79.2223 70.3206L76.085 67.1833C75.9989 67.0972 75.9005 67.0603 75.7897 67.0603C75.7405 67.0603 75.6913 67.0726 75.6421 67.0849C74.0796 67.6754 72.4433 67.983 70.77 67.983C63.1666 68.0076 56.9658 61.8068 56.9658 54.1911C56.9658 46.5631 63.1666 40.3623 70.7946 40.3623C78.4226 40.3623 84.6234 46.5631 84.6234 54.1911C84.6234 56.1719 84.1928 58.165 83.3685 59.949C83.2947 60.109 83.3316 60.3058 83.4546 60.4288L97.3203 74.2945C97.4803 74.4545 97.5787 74.6759 97.5787 74.9097V80.0894C97.5787 80.5692 97.185 80.9629 96.7052 80.9629H90.2214ZM76.1096 65.1164C76.3434 65.1164 76.5648 65.2025 76.7248 65.3747L80.0958 68.7458C80.1697 68.8196 80.2804 68.8688 80.3911 68.8688H83.7376C84.2174 68.8688 84.6111 69.2625 84.6111 69.7424V73.0888C84.6111 73.1996 84.6603 73.3103 84.7342 73.3841L85.2755 73.9255C85.3493 73.9993 85.46 74.0485 85.5708 74.0485H90.2214C90.7012 74.0485 91.0949 74.4422 91.0949 74.922V78.8098C91.0949 79.0436 91.2795 79.2404 91.5255 79.2404H95.4133C95.6471 79.2404 95.844 79.0559 95.844 78.8098V75.4634C95.844 75.3526 95.7947 75.2419 95.7209 75.1681L81.5722 61.0194C81.3016 60.7487 81.24 60.3181 81.4246 59.9859C82.3842 58.2266 82.8887 56.2211 82.8887 54.2034C82.8887 47.5351 77.463 42.1217 70.8069 42.1217C64.1386 42.1217 58.7252 47.5474 58.7252 54.2034C58.7252 60.8718 64.1509 66.2852 70.8069 66.2852C72.5294 66.2852 74.1903 65.9284 75.7774 65.2148C75.8635 65.141 75.9866 65.1164 76.1096 65.1164Z" fill="#1B2B4B" stroke="#1B2B4B" stroke-width="1.5"/>
<path d="M68.1988 56.3572C65.5783 56.3572 63.4375 54.2287 63.4375 51.5958C63.4375 48.9629 65.5783 46.8345 68.1988 46.8345C70.8194 46.8345 72.9602 48.9629 72.9602 51.5958C72.9602 54.2287 70.8194 56.3572 68.1988 56.3572ZM68.1988 48.5815C66.5379 48.5815 65.1846 49.9349 65.1846 51.5958C65.1846 53.2567 66.5379 54.6101 68.1988 54.6101C69.8598 54.6101 71.2131 53.2567 71.2131 51.5958C71.2131 49.9349 69.8598 48.5815 68.1988 48.5815Z" fill="#1B2B4B" stroke="#1B2B4B" stroke-width="1.5"/>
<path d="M77.2722 93.8887C95.6222 93.8887 110.498 79.0131 110.498 60.6631C110.498 42.3131 95.6222 27.4375 77.2722 27.4375C58.9222 27.4375 44.0466 42.3131 44.0466 60.6631C44.0466 79.0131 58.9222 93.8887 77.2722 93.8887Z" stroke="#1B2B4B" stroke-width="3.4" stroke-miterlimit="10"/>
<path d="M53.1286 84.8066L46.9265 91.0088" stroke="#1B2B4B" stroke-width="3.4" stroke-miterlimit="10"/>
<path d="M33.1088 109.113L28.8223 104.827C28.2099 104.214 28.2099 103.296 28.8223 102.684L41.9889 89.5169C42.6013 88.9045 43.5198 88.9045 44.1322 89.5169L48.4187 93.8034C49.0311 94.4158 49.0311 95.3343 48.4187 95.9467L35.2521 109.113C34.6397 109.726 33.7212 109.726 33.1088 109.113Z" stroke="#1B2B4B" stroke-width="3.4" stroke-miterlimit="10"/>
</svg>
