<svg width="138" height="138" viewBox="0 0 138 138" fill="none" xmlns="http://www.w3.org/2000/svg">
<circle cx="68.7246" cy="68.9364" r="65.4842" stroke="#F2A446" stroke-width="5.84681"/>
<path d="M68.6245 103.814C67.9392 103.814 67.4097 103.253 67.4097 102.599V102.444C67.4097 100.481 65.821 98.8925 63.8586 98.8925H33.7368C31.7744 98.8925 30.1858 100.481 30.1858 102.444V102.599C30.1858 103.285 29.6251 103.814 28.9709 103.814C28.2856 103.814 27.7561 103.253 27.7561 102.599V102.444C27.7561 99.1105 30.4661 96.4316 33.768 96.4316H63.8586C67.1916 96.4316 69.8705 99.1417 69.8705 102.444V102.599C69.8394 103.285 69.3098 103.814 68.6245 103.814Z" fill="#1B2B4B" stroke="#1B2B4B" stroke-width="0.584681"/>
<path d="M64.2323 98.8613H33.3318C32.6465 98.8613 32.1169 98.3006 32.1169 97.6465V92.9429C32.1169 92.2576 32.6776 91.728 33.3318 91.728H64.2323C64.9176 91.728 65.4471 92.2887 65.4471 92.9429V97.6465C65.4783 98.3318 64.9176 98.8613 64.2323 98.8613ZM34.5466 96.4005H63.0175V94.1577H34.5466V96.4005Z" fill="#1B2B4B" stroke="#1B2B4B" stroke-width="0.584681"/>
<path d="M41.7733 88.426C41.4618 88.426 41.1503 88.3014 40.9011 88.0522L36.3844 83.5355C35.9172 83.0682 35.9172 82.2895 36.3844 81.7911C36.8517 81.3239 37.6304 81.3239 38.1288 81.7911L42.6455 86.3078C43.1128 86.7751 43.1128 87.5538 42.6455 88.0522C42.3963 88.3014 42.0848 88.426 41.7733 88.426Z" fill="#1B2B4B" stroke="#1B2B4B" stroke-width="0.584681"/>
<path d="M55.8219 88.426C55.5104 88.426 55.1989 88.3014 54.9497 88.0522C54.4825 87.585 54.4825 86.8062 54.9497 86.3078L59.4664 81.7911C59.9337 81.3239 60.7124 81.3239 61.2108 81.7911C61.6781 82.2584 61.6781 83.0371 61.2108 83.5355L56.6941 88.0833C56.4449 88.3014 56.1334 88.426 55.8219 88.426Z" fill="#1B2B4B" stroke="#1B2B4B" stroke-width="0.584681"/>
<path d="M48.782 86.744C48.0967 86.744 47.5672 86.1833 47.5672 85.5291V79.1434C47.5672 78.4581 48.1279 77.9286 48.782 77.9286C49.4673 77.9286 49.9969 78.4893 49.9969 79.1434V85.5291C50.028 86.2144 49.4673 86.744 48.782 86.744Z" fill="#1B2B4B" stroke="#1B2B4B" stroke-width="0.584681"/>
<path d="M68.6244 103.814H28.9397C28.2544 103.814 27.7249 103.254 27.7249 102.599C27.7249 101.914 28.2855 101.385 28.9397 101.385H68.6244C69.3097 101.385 69.8393 101.945 69.8393 102.599C69.8393 103.285 69.3097 103.814 68.6244 103.814Z" fill="#1B2B4B" stroke="#1B2B4B" stroke-width="0.584681"/>
<path d="M61.9064 67.618H61.8753C61.5638 67.618 61.2523 67.4622 61.0343 67.213L49.4466 54.7532C48.9793 54.2548 49.0105 53.476 49.5089 53.0088L69.9119 34.0386C70.4103 33.5714 71.1891 33.6025 71.6563 34.1009L83.244 46.5608C83.462 46.81 83.5866 47.1215 83.5866 47.433C83.5866 47.7445 83.4309 48.056 83.1817 48.274L62.7786 67.2442C62.5294 67.4934 62.2179 67.618 61.9064 67.618ZM52.0631 53.9744L61.9687 64.6276L80.5651 47.3395L70.6595 36.6863L52.0631 53.9744Z" fill="#1B2B4B" stroke="#1B2B4B" stroke-width="0.584681"/>
<path d="M57.203 74.9382C56.2062 74.9382 55.2405 74.5333 54.5241 73.7857L42.3757 60.734C41.7215 60.0175 41.3478 59.083 41.4101 58.1174C41.4412 57.1518 41.8461 56.2484 42.5626 55.5631L44.2758 53.9745C44.525 53.7564 44.8365 53.6318 45.148 53.6318C45.4595 53.6318 45.771 53.7876 45.9891 54.0368L61.4393 70.6396C61.6574 70.8888 61.782 71.2003 61.782 71.5118C61.782 71.8233 61.6262 72.1348 61.377 72.3528L59.6638 73.9414C59.0096 74.6267 58.1063 74.9382 57.203 74.9382ZM45.0546 56.5911L44.2447 57.3386C43.7463 57.8059 43.7463 58.5535 44.1824 59.0519L56.3308 72.1036C56.7669 72.602 57.5456 72.602 58.044 72.1659L58.8539 71.4183L45.0546 56.5911Z" fill="#1B2B4B" stroke="#1B2B4B" stroke-width="0.584681"/>
<path d="M57.8259 69.7671H57.7948C57.4833 69.7671 57.1718 69.6113 56.9537 69.3621L46.9858 58.6466C46.5186 58.1482 46.5497 57.3695 47.0481 56.9023L50.2877 53.8807C50.5369 53.6627 50.8484 53.5381 51.1599 53.5381C51.4714 53.5381 51.7829 53.6938 52.0009 53.943L61.9688 64.6585C62.4361 65.1569 62.4049 65.9357 61.9065 66.4029L58.6669 69.4244C58.4489 69.6425 58.1374 69.7671 57.8259 69.7671ZM49.6024 57.899L57.8882 66.8079L59.3211 65.4684L51.0353 56.5596L49.6024 57.899Z" fill="#1B2B4B" stroke="#1B2B4B" stroke-width="0.584681"/>
<path d="M87.2312 47.433C87.2 47.433 87.2 47.433 87.2 47.433C86.8885 47.433 86.5771 47.2773 86.359 47.0281L70.9087 30.3941C70.6907 30.1449 70.5661 29.8334 70.5661 29.5219C70.5661 29.2104 70.7219 28.8989 70.971 28.6809L72.6843 27.0922C73.4007 26.4381 74.3352 26.0643 75.3009 26.1266C76.2665 26.1578 77.1698 26.5627 77.8551 27.2791L90.0035 40.3309C91.3741 41.7949 91.2807 44.1311 89.8166 45.5017L88.1034 47.0904C87.8542 47.3396 87.5427 47.433 87.2312 47.433ZM73.5253 29.6465L87.2935 44.4738L88.1034 43.7262C88.6018 43.2901 88.6018 42.5114 88.1657 42.013L76.0173 28.9612C75.7993 28.712 75.4878 28.5874 75.1763 28.5874C74.8336 28.5563 74.5533 28.6809 74.3041 28.8989L73.5253 29.6465Z" fill="#1B2B4B" stroke="#1B2B4B" stroke-width="0.584681"/>
<path d="M81.2504 47.4954C80.9078 47.4954 80.5963 47.3708 80.3471 47.0904L70.4103 36.4061C69.9431 35.9077 69.9742 35.1289 70.4726 34.6617L73.7122 31.6402C74.2106 31.1729 74.9893 31.2041 75.4566 31.7025L85.3933 42.418C85.6114 42.6672 85.736 42.9787 85.736 43.2902C85.736 43.6017 85.5802 43.9131 85.331 44.1312L82.0914 47.1527C81.8422 47.4019 81.5619 47.4954 81.2504 47.4954ZM73.0269 35.6273L81.3127 44.5361L82.7456 43.1967L74.4598 34.2879L73.0269 35.6273Z" fill="#1B2B4B" stroke="#1B2B4B" stroke-width="0.584681"/>
<path d="M73.4319 64.5963H73.4008C73.0893 64.5963 72.7778 64.4405 72.5597 64.1913L68.6972 60.0796C68.2299 59.5812 68.2611 58.8024 68.7595 58.3352L73.8057 53.6627C74.0549 53.4447 74.3664 53.3201 74.6779 53.3201C74.9894 53.3201 75.3009 53.4758 75.519 53.725L79.3504 57.8368C79.8176 58.3352 79.7865 59.1139 79.2881 59.5812L74.2418 64.2536C74.0238 64.4717 73.7434 64.5963 73.4319 64.5963ZM71.3449 59.3008L73.4942 61.6059L76.7338 58.5844L74.5845 56.2793L71.3449 59.3008Z" fill="#1B2B4B" stroke="#1B2B4B" stroke-width="0.584681"/>
<path d="M105.36 96.4314C105.205 96.4314 105.08 96.4314 104.924 96.4003C103.834 96.2757 102.806 95.7773 102.027 94.9362L73.4007 63.3504C72.9646 62.852 72.9957 62.0733 73.463 61.6372L76.7337 58.5845C77.2321 58.1173 78.0108 58.1484 78.4469 58.6468L107.852 89.485C108.631 90.3261 109.098 91.4163 109.129 92.5065C109.161 93.6591 108.724 94.7182 107.946 95.4658C107.26 96.0888 106.357 96.4314 105.36 96.4314ZM76.0484 62.6028L103.865 93.2853C104.239 93.6902 104.706 93.9394 105.205 93.9706C105.641 94.0329 106.046 93.9083 106.326 93.6279C106.606 93.3787 106.762 92.9738 106.731 92.5377C106.731 92.0393 106.513 91.5409 106.139 91.1359L77.5747 61.1699L76.0484 62.6028Z" fill="#1B2B4B" stroke="#1B2B4B" stroke-width="0.584681"/>
</svg>
